G04 #@! TF.GenerationSoftware,KiCad,Pcbnew,(5.1.4)-1*
G04 #@! TF.CreationDate,2019-10-03T17:37:10+01:00*
G04 #@! TF.ProjectId,M2MRover,4d324d52-6f76-4657-922e-6b696361645f,rev?*
G04 #@! TF.SameCoordinates,Original*
G04 #@! TF.FileFunction,Soldermask,Bot*
G04 #@! TF.FilePolarity,Negative*
%FSLAX46Y46*%
G04 Gerber Fmt 4.6, Leading zero omitted, Abs format (unit mm)*
G04 Created by KiCad (PCBNEW (5.1.4)-1) date 2019-10-03 17:37:10*
%MOMM*%
%LPD*%
G04 APERTURE LIST*
%ADD10C,0.050000*%
%ADD11C,0.150000*%
G04 APERTURE END LIST*
D10*
X105000000Y-135000000D02*
X105000000Y-45000000D01*
X185000000Y-135000000D02*
X105000000Y-135000000D01*
X185000000Y-45000000D02*
X185000000Y-135000000D01*
X105000000Y-45000000D02*
X185000000Y-45000000D01*
D11*
G36*
X179536693Y-127301859D02*
G01*
X179802437Y-127354719D01*
X180303087Y-127562095D01*
X180483561Y-127682684D01*
X180753660Y-127863158D01*
X181136842Y-128246340D01*
X181317316Y-128516439D01*
X181437905Y-128696913D01*
X181437905Y-128696914D01*
X181645281Y-129197564D01*
X181751000Y-129729049D01*
X181751000Y-130270951D01*
X181743827Y-130307011D01*
X181645281Y-130802437D01*
X181437905Y-131303087D01*
X181431287Y-131312991D01*
X181136842Y-131753660D01*
X180753660Y-132136842D01*
X180483561Y-132317316D01*
X180303087Y-132437905D01*
X179802437Y-132645281D01*
X179536694Y-132698140D01*
X179270951Y-132751000D01*
X178729049Y-132751000D01*
X178463306Y-132698140D01*
X178197563Y-132645281D01*
X177696913Y-132437905D01*
X177516439Y-132317316D01*
X177246340Y-132136842D01*
X176863158Y-131753660D01*
X176568713Y-131312991D01*
X176562095Y-131303087D01*
X176354719Y-130802437D01*
X176256173Y-130307011D01*
X176249000Y-130270951D01*
X176249000Y-129729049D01*
X176354719Y-129197564D01*
X176562095Y-128696914D01*
X176562095Y-128696913D01*
X176682684Y-128516439D01*
X176863158Y-128246340D01*
X177246340Y-127863158D01*
X177516439Y-127682684D01*
X177696913Y-127562095D01*
X178197563Y-127354719D01*
X178463307Y-127301859D01*
X178729049Y-127249000D01*
X179270951Y-127249000D01*
X179536693Y-127301859D01*
X179536693Y-127301859D01*
G37*
G36*
X111536693Y-127301859D02*
G01*
X111802437Y-127354719D01*
X112303087Y-127562095D01*
X112483561Y-127682684D01*
X112753660Y-127863158D01*
X113136842Y-128246340D01*
X113317316Y-128516439D01*
X113437905Y-128696913D01*
X113437905Y-128696914D01*
X113645281Y-129197564D01*
X113751000Y-129729049D01*
X113751000Y-130270951D01*
X113743827Y-130307011D01*
X113645281Y-130802437D01*
X113437905Y-131303087D01*
X113431287Y-131312991D01*
X113136842Y-131753660D01*
X112753660Y-132136842D01*
X112483561Y-132317316D01*
X112303087Y-132437905D01*
X111802437Y-132645281D01*
X111536694Y-132698140D01*
X111270951Y-132751000D01*
X110729049Y-132751000D01*
X110463306Y-132698140D01*
X110197563Y-132645281D01*
X109696913Y-132437905D01*
X109516439Y-132317316D01*
X109246340Y-132136842D01*
X108863158Y-131753660D01*
X108568713Y-131312991D01*
X108562095Y-131303087D01*
X108354719Y-130802437D01*
X108256173Y-130307011D01*
X108249000Y-130270951D01*
X108249000Y-129729049D01*
X108354719Y-129197564D01*
X108562095Y-128696914D01*
X108562095Y-128696913D01*
X108682684Y-128516439D01*
X108863158Y-128246340D01*
X109246340Y-127863158D01*
X109516439Y-127682684D01*
X109696913Y-127562095D01*
X110197563Y-127354719D01*
X110463307Y-127301859D01*
X110729049Y-127249000D01*
X111270951Y-127249000D01*
X111536693Y-127301859D01*
X111536693Y-127301859D01*
G37*
G36*
X171560442Y-129915518D02*
G01*
X171626627Y-129922037D01*
X171796466Y-129973557D01*
X171952991Y-130057222D01*
X171988729Y-130086552D01*
X172090186Y-130169814D01*
X172173185Y-130270950D01*
X172202778Y-130307009D01*
X172286443Y-130463534D01*
X172337963Y-130633373D01*
X172355359Y-130810000D01*
X172337963Y-130986627D01*
X172286443Y-131156466D01*
X172202778Y-131312991D01*
X172173448Y-131348729D01*
X172090186Y-131450186D01*
X171988729Y-131533448D01*
X171952991Y-131562778D01*
X171796466Y-131646443D01*
X171626627Y-131697963D01*
X171560443Y-131704481D01*
X171494260Y-131711000D01*
X171405740Y-131711000D01*
X171339557Y-131704481D01*
X171273373Y-131697963D01*
X171103534Y-131646443D01*
X170947009Y-131562778D01*
X170911271Y-131533448D01*
X170809814Y-131450186D01*
X170726552Y-131348729D01*
X170697222Y-131312991D01*
X170613557Y-131156466D01*
X170562037Y-130986627D01*
X170544641Y-130810000D01*
X170562037Y-130633373D01*
X170613557Y-130463534D01*
X170697222Y-130307009D01*
X170726815Y-130270950D01*
X170809814Y-130169814D01*
X170911271Y-130086552D01*
X170947009Y-130057222D01*
X171103534Y-129973557D01*
X171273373Y-129922037D01*
X171339558Y-129915518D01*
X171405740Y-129909000D01*
X171494260Y-129909000D01*
X171560442Y-129915518D01*
X171560442Y-129915518D01*
G37*
G36*
X166480442Y-129915518D02*
G01*
X166546627Y-129922037D01*
X166716466Y-129973557D01*
X166872991Y-130057222D01*
X166908729Y-130086552D01*
X167010186Y-130169814D01*
X167093185Y-130270950D01*
X167122778Y-130307009D01*
X167206443Y-130463534D01*
X167257963Y-130633373D01*
X167275359Y-130810000D01*
X167257963Y-130986627D01*
X167206443Y-131156466D01*
X167122778Y-131312991D01*
X167093448Y-131348729D01*
X167010186Y-131450186D01*
X166908729Y-131533448D01*
X166872991Y-131562778D01*
X166716466Y-131646443D01*
X166546627Y-131697963D01*
X166480443Y-131704481D01*
X166414260Y-131711000D01*
X166325740Y-131711000D01*
X166259557Y-131704481D01*
X166193373Y-131697963D01*
X166023534Y-131646443D01*
X165867009Y-131562778D01*
X165831271Y-131533448D01*
X165729814Y-131450186D01*
X165646552Y-131348729D01*
X165617222Y-131312991D01*
X165533557Y-131156466D01*
X165482037Y-130986627D01*
X165464641Y-130810000D01*
X165482037Y-130633373D01*
X165533557Y-130463534D01*
X165617222Y-130307009D01*
X165646815Y-130270950D01*
X165729814Y-130169814D01*
X165831271Y-130086552D01*
X165867009Y-130057222D01*
X166023534Y-129973557D01*
X166193373Y-129922037D01*
X166259558Y-129915518D01*
X166325740Y-129909000D01*
X166414260Y-129909000D01*
X166480442Y-129915518D01*
X166480442Y-129915518D01*
G37*
G36*
X169020442Y-129915518D02*
G01*
X169086627Y-129922037D01*
X169256466Y-129973557D01*
X169412991Y-130057222D01*
X169448729Y-130086552D01*
X169550186Y-130169814D01*
X169633185Y-130270950D01*
X169662778Y-130307009D01*
X169746443Y-130463534D01*
X169797963Y-130633373D01*
X169815359Y-130810000D01*
X169797963Y-130986627D01*
X169746443Y-131156466D01*
X169662778Y-131312991D01*
X169633448Y-131348729D01*
X169550186Y-131450186D01*
X169448729Y-131533448D01*
X169412991Y-131562778D01*
X169256466Y-131646443D01*
X169086627Y-131697963D01*
X169020443Y-131704481D01*
X168954260Y-131711000D01*
X168865740Y-131711000D01*
X168799557Y-131704481D01*
X168733373Y-131697963D01*
X168563534Y-131646443D01*
X168407009Y-131562778D01*
X168371271Y-131533448D01*
X168269814Y-131450186D01*
X168186552Y-131348729D01*
X168157222Y-131312991D01*
X168073557Y-131156466D01*
X168022037Y-130986627D01*
X168004641Y-130810000D01*
X168022037Y-130633373D01*
X168073557Y-130463534D01*
X168157222Y-130307009D01*
X168186815Y-130270950D01*
X168269814Y-130169814D01*
X168371271Y-130086552D01*
X168407009Y-130057222D01*
X168563534Y-129973557D01*
X168733373Y-129922037D01*
X168799558Y-129915518D01*
X168865740Y-129909000D01*
X168954260Y-129909000D01*
X169020442Y-129915518D01*
X169020442Y-129915518D01*
G37*
G36*
X164731000Y-131711000D02*
G01*
X162929000Y-131711000D01*
X162929000Y-129909000D01*
X164731000Y-129909000D01*
X164731000Y-131711000D01*
X164731000Y-131711000D01*
G37*
G36*
X119490442Y-129915518D02*
G01*
X119556627Y-129922037D01*
X119726466Y-129973557D01*
X119882991Y-130057222D01*
X119918729Y-130086552D01*
X120020186Y-130169814D01*
X120103185Y-130270950D01*
X120132778Y-130307009D01*
X120216443Y-130463534D01*
X120267963Y-130633373D01*
X120285359Y-130810000D01*
X120267963Y-130986627D01*
X120216443Y-131156466D01*
X120132778Y-131312991D01*
X120103448Y-131348729D01*
X120020186Y-131450186D01*
X119918729Y-131533448D01*
X119882991Y-131562778D01*
X119726466Y-131646443D01*
X119556627Y-131697963D01*
X119490443Y-131704481D01*
X119424260Y-131711000D01*
X119335740Y-131711000D01*
X119269557Y-131704481D01*
X119203373Y-131697963D01*
X119033534Y-131646443D01*
X118877009Y-131562778D01*
X118841271Y-131533448D01*
X118739814Y-131450186D01*
X118656552Y-131348729D01*
X118627222Y-131312991D01*
X118543557Y-131156466D01*
X118492037Y-130986627D01*
X118474641Y-130810000D01*
X118492037Y-130633373D01*
X118543557Y-130463534D01*
X118627222Y-130307009D01*
X118656815Y-130270950D01*
X118739814Y-130169814D01*
X118841271Y-130086552D01*
X118877009Y-130057222D01*
X119033534Y-129973557D01*
X119203373Y-129922037D01*
X119269558Y-129915518D01*
X119335740Y-129909000D01*
X119424260Y-129909000D01*
X119490442Y-129915518D01*
X119490442Y-129915518D01*
G37*
G36*
X122030442Y-129915518D02*
G01*
X122096627Y-129922037D01*
X122266466Y-129973557D01*
X122422991Y-130057222D01*
X122458729Y-130086552D01*
X122560186Y-130169814D01*
X122643185Y-130270950D01*
X122672778Y-130307009D01*
X122756443Y-130463534D01*
X122807963Y-130633373D01*
X122825359Y-130810000D01*
X122807963Y-130986627D01*
X122756443Y-131156466D01*
X122672778Y-131312991D01*
X122643448Y-131348729D01*
X122560186Y-131450186D01*
X122458729Y-131533448D01*
X122422991Y-131562778D01*
X122266466Y-131646443D01*
X122096627Y-131697963D01*
X122030443Y-131704481D01*
X121964260Y-131711000D01*
X121875740Y-131711000D01*
X121809557Y-131704481D01*
X121743373Y-131697963D01*
X121573534Y-131646443D01*
X121417009Y-131562778D01*
X121381271Y-131533448D01*
X121279814Y-131450186D01*
X121196552Y-131348729D01*
X121167222Y-131312991D01*
X121083557Y-131156466D01*
X121032037Y-130986627D01*
X121014641Y-130810000D01*
X121032037Y-130633373D01*
X121083557Y-130463534D01*
X121167222Y-130307009D01*
X121196815Y-130270950D01*
X121279814Y-130169814D01*
X121381271Y-130086552D01*
X121417009Y-130057222D01*
X121573534Y-129973557D01*
X121743373Y-129922037D01*
X121809558Y-129915518D01*
X121875740Y-129909000D01*
X121964260Y-129909000D01*
X122030442Y-129915518D01*
X122030442Y-129915518D01*
G37*
G36*
X124570442Y-129915518D02*
G01*
X124636627Y-129922037D01*
X124806466Y-129973557D01*
X124962991Y-130057222D01*
X124998729Y-130086552D01*
X125100186Y-130169814D01*
X125183185Y-130270950D01*
X125212778Y-130307009D01*
X125296443Y-130463534D01*
X125347963Y-130633373D01*
X125365359Y-130810000D01*
X125347963Y-130986627D01*
X125296443Y-131156466D01*
X125212778Y-131312991D01*
X125183448Y-131348729D01*
X125100186Y-131450186D01*
X124998729Y-131533448D01*
X124962991Y-131562778D01*
X124806466Y-131646443D01*
X124636627Y-131697963D01*
X124570443Y-131704481D01*
X124504260Y-131711000D01*
X124415740Y-131711000D01*
X124349557Y-131704481D01*
X124283373Y-131697963D01*
X124113534Y-131646443D01*
X123957009Y-131562778D01*
X123921271Y-131533448D01*
X123819814Y-131450186D01*
X123736552Y-131348729D01*
X123707222Y-131312991D01*
X123623557Y-131156466D01*
X123572037Y-130986627D01*
X123554641Y-130810000D01*
X123572037Y-130633373D01*
X123623557Y-130463534D01*
X123707222Y-130307009D01*
X123736815Y-130270950D01*
X123819814Y-130169814D01*
X123921271Y-130086552D01*
X123957009Y-130057222D01*
X124113534Y-129973557D01*
X124283373Y-129922037D01*
X124349558Y-129915518D01*
X124415740Y-129909000D01*
X124504260Y-129909000D01*
X124570442Y-129915518D01*
X124570442Y-129915518D01*
G37*
G36*
X129650442Y-129915518D02*
G01*
X129716627Y-129922037D01*
X129886466Y-129973557D01*
X130042991Y-130057222D01*
X130078729Y-130086552D01*
X130180186Y-130169814D01*
X130263185Y-130270950D01*
X130292778Y-130307009D01*
X130376443Y-130463534D01*
X130427963Y-130633373D01*
X130445359Y-130810000D01*
X130427963Y-130986627D01*
X130376443Y-131156466D01*
X130292778Y-131312991D01*
X130263448Y-131348729D01*
X130180186Y-131450186D01*
X130078729Y-131533448D01*
X130042991Y-131562778D01*
X129886466Y-131646443D01*
X129716627Y-131697963D01*
X129650443Y-131704481D01*
X129584260Y-131711000D01*
X129495740Y-131711000D01*
X129429557Y-131704481D01*
X129363373Y-131697963D01*
X129193534Y-131646443D01*
X129037009Y-131562778D01*
X129001271Y-131533448D01*
X128899814Y-131450186D01*
X128816552Y-131348729D01*
X128787222Y-131312991D01*
X128703557Y-131156466D01*
X128652037Y-130986627D01*
X128634641Y-130810000D01*
X128652037Y-130633373D01*
X128703557Y-130463534D01*
X128787222Y-130307009D01*
X128816815Y-130270950D01*
X128899814Y-130169814D01*
X129001271Y-130086552D01*
X129037009Y-130057222D01*
X129193534Y-129973557D01*
X129363373Y-129922037D01*
X129429558Y-129915518D01*
X129495740Y-129909000D01*
X129584260Y-129909000D01*
X129650442Y-129915518D01*
X129650442Y-129915518D01*
G37*
G36*
X132190442Y-129915518D02*
G01*
X132256627Y-129922037D01*
X132426466Y-129973557D01*
X132582991Y-130057222D01*
X132618729Y-130086552D01*
X132720186Y-130169814D01*
X132803185Y-130270950D01*
X132832778Y-130307009D01*
X132916443Y-130463534D01*
X132967963Y-130633373D01*
X132985359Y-130810000D01*
X132967963Y-130986627D01*
X132916443Y-131156466D01*
X132832778Y-131312991D01*
X132803448Y-131348729D01*
X132720186Y-131450186D01*
X132618729Y-131533448D01*
X132582991Y-131562778D01*
X132426466Y-131646443D01*
X132256627Y-131697963D01*
X132190443Y-131704481D01*
X132124260Y-131711000D01*
X132035740Y-131711000D01*
X131969557Y-131704481D01*
X131903373Y-131697963D01*
X131733534Y-131646443D01*
X131577009Y-131562778D01*
X131541271Y-131533448D01*
X131439814Y-131450186D01*
X131356552Y-131348729D01*
X131327222Y-131312991D01*
X131243557Y-131156466D01*
X131192037Y-130986627D01*
X131174641Y-130810000D01*
X131192037Y-130633373D01*
X131243557Y-130463534D01*
X131327222Y-130307009D01*
X131356815Y-130270950D01*
X131439814Y-130169814D01*
X131541271Y-130086552D01*
X131577009Y-130057222D01*
X131733534Y-129973557D01*
X131903373Y-129922037D01*
X131969558Y-129915518D01*
X132035740Y-129909000D01*
X132124260Y-129909000D01*
X132190442Y-129915518D01*
X132190442Y-129915518D01*
G37*
G36*
X134730442Y-129915518D02*
G01*
X134796627Y-129922037D01*
X134966466Y-129973557D01*
X135122991Y-130057222D01*
X135158729Y-130086552D01*
X135260186Y-130169814D01*
X135343185Y-130270950D01*
X135372778Y-130307009D01*
X135456443Y-130463534D01*
X135507963Y-130633373D01*
X135525359Y-130810000D01*
X135507963Y-130986627D01*
X135456443Y-131156466D01*
X135372778Y-131312991D01*
X135343448Y-131348729D01*
X135260186Y-131450186D01*
X135158729Y-131533448D01*
X135122991Y-131562778D01*
X134966466Y-131646443D01*
X134796627Y-131697963D01*
X134730443Y-131704481D01*
X134664260Y-131711000D01*
X134575740Y-131711000D01*
X134509557Y-131704481D01*
X134443373Y-131697963D01*
X134273534Y-131646443D01*
X134117009Y-131562778D01*
X134081271Y-131533448D01*
X133979814Y-131450186D01*
X133896552Y-131348729D01*
X133867222Y-131312991D01*
X133783557Y-131156466D01*
X133732037Y-130986627D01*
X133714641Y-130810000D01*
X133732037Y-130633373D01*
X133783557Y-130463534D01*
X133867222Y-130307009D01*
X133896815Y-130270950D01*
X133979814Y-130169814D01*
X134081271Y-130086552D01*
X134117009Y-130057222D01*
X134273534Y-129973557D01*
X134443373Y-129922037D01*
X134509558Y-129915518D01*
X134575740Y-129909000D01*
X134664260Y-129909000D01*
X134730442Y-129915518D01*
X134730442Y-129915518D01*
G37*
G36*
X138061000Y-131711000D02*
G01*
X136259000Y-131711000D01*
X136259000Y-129909000D01*
X138061000Y-129909000D01*
X138061000Y-131711000D01*
X138061000Y-131711000D01*
G37*
G36*
X127110442Y-129915518D02*
G01*
X127176627Y-129922037D01*
X127346466Y-129973557D01*
X127502991Y-130057222D01*
X127538729Y-130086552D01*
X127640186Y-130169814D01*
X127723185Y-130270950D01*
X127752778Y-130307009D01*
X127836443Y-130463534D01*
X127887963Y-130633373D01*
X127905359Y-130810000D01*
X127887963Y-130986627D01*
X127836443Y-131156466D01*
X127752778Y-131312991D01*
X127723448Y-131348729D01*
X127640186Y-131450186D01*
X127538729Y-131533448D01*
X127502991Y-131562778D01*
X127346466Y-131646443D01*
X127176627Y-131697963D01*
X127110443Y-131704481D01*
X127044260Y-131711000D01*
X126955740Y-131711000D01*
X126889557Y-131704481D01*
X126823373Y-131697963D01*
X126653534Y-131646443D01*
X126497009Y-131562778D01*
X126461271Y-131533448D01*
X126359814Y-131450186D01*
X126276552Y-131348729D01*
X126247222Y-131312991D01*
X126163557Y-131156466D01*
X126112037Y-130986627D01*
X126094641Y-130810000D01*
X126112037Y-130633373D01*
X126163557Y-130463534D01*
X126247222Y-130307009D01*
X126276815Y-130270950D01*
X126359814Y-130169814D01*
X126461271Y-130086552D01*
X126497009Y-130057222D01*
X126653534Y-129973557D01*
X126823373Y-129922037D01*
X126889558Y-129915518D01*
X126955740Y-129909000D01*
X127044260Y-129909000D01*
X127110442Y-129915518D01*
X127110442Y-129915518D01*
G37*
G36*
X162670443Y-124835519D02*
G01*
X162736627Y-124842037D01*
X162906466Y-124893557D01*
X163062991Y-124977222D01*
X163098729Y-125006552D01*
X163200186Y-125089814D01*
X163283448Y-125191271D01*
X163312778Y-125227009D01*
X163396443Y-125383534D01*
X163447963Y-125553373D01*
X163465359Y-125730000D01*
X163447963Y-125906627D01*
X163396443Y-126076466D01*
X163312778Y-126232991D01*
X163283448Y-126268729D01*
X163200186Y-126370186D01*
X163098729Y-126453448D01*
X163062991Y-126482778D01*
X162906466Y-126566443D01*
X162736627Y-126617963D01*
X162670442Y-126624482D01*
X162604260Y-126631000D01*
X162515740Y-126631000D01*
X162449558Y-126624482D01*
X162383373Y-126617963D01*
X162213534Y-126566443D01*
X162057009Y-126482778D01*
X162021271Y-126453448D01*
X161919814Y-126370186D01*
X161836552Y-126268729D01*
X161807222Y-126232991D01*
X161723557Y-126076466D01*
X161672037Y-125906627D01*
X161654641Y-125730000D01*
X161672037Y-125553373D01*
X161723557Y-125383534D01*
X161807222Y-125227009D01*
X161836552Y-125191271D01*
X161919814Y-125089814D01*
X162021271Y-125006552D01*
X162057009Y-124977222D01*
X162213534Y-124893557D01*
X162383373Y-124842037D01*
X162449557Y-124835519D01*
X162515740Y-124829000D01*
X162604260Y-124829000D01*
X162670443Y-124835519D01*
X162670443Y-124835519D01*
G37*
G36*
X160921000Y-126631000D02*
G01*
X159119000Y-126631000D01*
X159119000Y-124829000D01*
X160921000Y-124829000D01*
X160921000Y-126631000D01*
X160921000Y-126631000D01*
G37*
G36*
X162670442Y-121025518D02*
G01*
X162736627Y-121032037D01*
X162906466Y-121083557D01*
X163062991Y-121167222D01*
X163098729Y-121196552D01*
X163200186Y-121279814D01*
X163283448Y-121381271D01*
X163312778Y-121417009D01*
X163396443Y-121573534D01*
X163447963Y-121743373D01*
X163465359Y-121920000D01*
X163447963Y-122096627D01*
X163396443Y-122266466D01*
X163312778Y-122422991D01*
X163283448Y-122458729D01*
X163200186Y-122560186D01*
X163098729Y-122643448D01*
X163062991Y-122672778D01*
X162906466Y-122756443D01*
X162736627Y-122807963D01*
X162670443Y-122814481D01*
X162604260Y-122821000D01*
X162515740Y-122821000D01*
X162449557Y-122814481D01*
X162383373Y-122807963D01*
X162213534Y-122756443D01*
X162057009Y-122672778D01*
X162021271Y-122643448D01*
X161919814Y-122560186D01*
X161836552Y-122458729D01*
X161807222Y-122422991D01*
X161723557Y-122266466D01*
X161672037Y-122096627D01*
X161654641Y-121920000D01*
X161672037Y-121743373D01*
X161723557Y-121573534D01*
X161807222Y-121417009D01*
X161836552Y-121381271D01*
X161919814Y-121279814D01*
X162021271Y-121196552D01*
X162057009Y-121167222D01*
X162213534Y-121083557D01*
X162383373Y-121032037D01*
X162449558Y-121025518D01*
X162515740Y-121019000D01*
X162604260Y-121019000D01*
X162670442Y-121025518D01*
X162670442Y-121025518D01*
G37*
G36*
X160921000Y-122821000D02*
G01*
X159119000Y-122821000D01*
X159119000Y-121019000D01*
X160921000Y-121019000D01*
X160921000Y-122821000D01*
X160921000Y-122821000D01*
G37*
G36*
X149006000Y-120383500D02*
G01*
X146904000Y-120383500D01*
X146904000Y-118376500D01*
X149006000Y-118376500D01*
X149006000Y-120383500D01*
X149006000Y-120383500D01*
G37*
G36*
X175439294Y-117843633D02*
G01*
X175611695Y-117895931D01*
X175770583Y-117980858D01*
X175909849Y-118095151D01*
X176024142Y-118234417D01*
X176109069Y-118393305D01*
X176161367Y-118565706D01*
X176179025Y-118745000D01*
X176161367Y-118924294D01*
X176109069Y-119096695D01*
X176024142Y-119255583D01*
X175909849Y-119394849D01*
X175770583Y-119509142D01*
X175611695Y-119594069D01*
X175439294Y-119646367D01*
X175304931Y-119659600D01*
X175215069Y-119659600D01*
X175080706Y-119646367D01*
X174908305Y-119594069D01*
X174749417Y-119509142D01*
X174610151Y-119394849D01*
X174495858Y-119255583D01*
X174410931Y-119096695D01*
X174358633Y-118924294D01*
X174340975Y-118745000D01*
X174358633Y-118565706D01*
X174410931Y-118393305D01*
X174495858Y-118234417D01*
X174610151Y-118095151D01*
X174749417Y-117980858D01*
X174908305Y-117895931D01*
X175080706Y-117843633D01*
X175215069Y-117830400D01*
X175304931Y-117830400D01*
X175439294Y-117843633D01*
X175439294Y-117843633D01*
G37*
G36*
X171094600Y-119659600D02*
G01*
X169265400Y-119659600D01*
X169265400Y-117830400D01*
X171094600Y-117830400D01*
X171094600Y-119659600D01*
X171094600Y-119659600D01*
G37*
G36*
X123300443Y-117215519D02*
G01*
X123366627Y-117222037D01*
X123536466Y-117273557D01*
X123692991Y-117357222D01*
X123728729Y-117386552D01*
X123830186Y-117469814D01*
X123898466Y-117553015D01*
X123942778Y-117607009D01*
X124026443Y-117763534D01*
X124077963Y-117933373D01*
X124095359Y-118110000D01*
X124077963Y-118286627D01*
X124026443Y-118456466D01*
X123942778Y-118612991D01*
X123913448Y-118648729D01*
X123830186Y-118750186D01*
X123728729Y-118833448D01*
X123692991Y-118862778D01*
X123536466Y-118946443D01*
X123366627Y-118997963D01*
X123300443Y-119004481D01*
X123234260Y-119011000D01*
X123145740Y-119011000D01*
X123079557Y-119004481D01*
X123013373Y-118997963D01*
X122843534Y-118946443D01*
X122687009Y-118862778D01*
X122651271Y-118833448D01*
X122549814Y-118750186D01*
X122466552Y-118648729D01*
X122437222Y-118612991D01*
X122353557Y-118456466D01*
X122302037Y-118286627D01*
X122284641Y-118110000D01*
X122302037Y-117933373D01*
X122353557Y-117763534D01*
X122437222Y-117607009D01*
X122481534Y-117553015D01*
X122549814Y-117469814D01*
X122651271Y-117386552D01*
X122687009Y-117357222D01*
X122843534Y-117273557D01*
X123013373Y-117222037D01*
X123079557Y-117215519D01*
X123145740Y-117209000D01*
X123234260Y-117209000D01*
X123300443Y-117215519D01*
X123300443Y-117215519D01*
G37*
G36*
X111870443Y-117215519D02*
G01*
X111936627Y-117222037D01*
X112106466Y-117273557D01*
X112262991Y-117357222D01*
X112298729Y-117386552D01*
X112400186Y-117469814D01*
X112468466Y-117553015D01*
X112512778Y-117607009D01*
X112596443Y-117763534D01*
X112647963Y-117933373D01*
X112665359Y-118110000D01*
X112647963Y-118286627D01*
X112596443Y-118456466D01*
X112512778Y-118612991D01*
X112483448Y-118648729D01*
X112400186Y-118750186D01*
X112298729Y-118833448D01*
X112262991Y-118862778D01*
X112106466Y-118946443D01*
X111936627Y-118997963D01*
X111870443Y-119004481D01*
X111804260Y-119011000D01*
X111715740Y-119011000D01*
X111649557Y-119004481D01*
X111583373Y-118997963D01*
X111413534Y-118946443D01*
X111257009Y-118862778D01*
X111221271Y-118833448D01*
X111119814Y-118750186D01*
X111036552Y-118648729D01*
X111007222Y-118612991D01*
X110923557Y-118456466D01*
X110872037Y-118286627D01*
X110854641Y-118110000D01*
X110872037Y-117933373D01*
X110923557Y-117763534D01*
X111007222Y-117607009D01*
X111051534Y-117553015D01*
X111119814Y-117469814D01*
X111221271Y-117386552D01*
X111257009Y-117357222D01*
X111413534Y-117273557D01*
X111583373Y-117222037D01*
X111649557Y-117215519D01*
X111715740Y-117209000D01*
X111804260Y-117209000D01*
X111870443Y-117215519D01*
X111870443Y-117215519D01*
G37*
G36*
X109330443Y-117215519D02*
G01*
X109396627Y-117222037D01*
X109566466Y-117273557D01*
X109722991Y-117357222D01*
X109758729Y-117386552D01*
X109860186Y-117469814D01*
X109928466Y-117553015D01*
X109972778Y-117607009D01*
X110056443Y-117763534D01*
X110107963Y-117933373D01*
X110125359Y-118110000D01*
X110107963Y-118286627D01*
X110056443Y-118456466D01*
X109972778Y-118612991D01*
X109943448Y-118648729D01*
X109860186Y-118750186D01*
X109758729Y-118833448D01*
X109722991Y-118862778D01*
X109566466Y-118946443D01*
X109396627Y-118997963D01*
X109330443Y-119004481D01*
X109264260Y-119011000D01*
X109175740Y-119011000D01*
X109109557Y-119004481D01*
X109043373Y-118997963D01*
X108873534Y-118946443D01*
X108717009Y-118862778D01*
X108681271Y-118833448D01*
X108579814Y-118750186D01*
X108496552Y-118648729D01*
X108467222Y-118612991D01*
X108383557Y-118456466D01*
X108332037Y-118286627D01*
X108314641Y-118110000D01*
X108332037Y-117933373D01*
X108383557Y-117763534D01*
X108467222Y-117607009D01*
X108511534Y-117553015D01*
X108579814Y-117469814D01*
X108681271Y-117386552D01*
X108717009Y-117357222D01*
X108873534Y-117273557D01*
X109043373Y-117222037D01*
X109109557Y-117215519D01*
X109175740Y-117209000D01*
X109264260Y-117209000D01*
X109330443Y-117215519D01*
X109330443Y-117215519D01*
G37*
G36*
X177979294Y-116573633D02*
G01*
X178151695Y-116625931D01*
X178310583Y-116710858D01*
X178449849Y-116825151D01*
X178564142Y-116964417D01*
X178649069Y-117123305D01*
X178701367Y-117295706D01*
X178719025Y-117475000D01*
X178701367Y-117654294D01*
X178649069Y-117826695D01*
X178564142Y-117985583D01*
X178449849Y-118124849D01*
X178310583Y-118239142D01*
X178151695Y-118324069D01*
X177979294Y-118376367D01*
X177844931Y-118389600D01*
X177755069Y-118389600D01*
X177620706Y-118376367D01*
X177448305Y-118324069D01*
X177289417Y-118239142D01*
X177150151Y-118124849D01*
X177035858Y-117985583D01*
X176950931Y-117826695D01*
X176898633Y-117654294D01*
X176880975Y-117475000D01*
X176898633Y-117295706D01*
X176950931Y-117123305D01*
X177035858Y-116964417D01*
X177150151Y-116825151D01*
X177289417Y-116710858D01*
X177448305Y-116625931D01*
X177620706Y-116573633D01*
X177755069Y-116560400D01*
X177844931Y-116560400D01*
X177979294Y-116573633D01*
X177979294Y-116573633D01*
G37*
G36*
X172899294Y-116573633D02*
G01*
X173071695Y-116625931D01*
X173230583Y-116710858D01*
X173369849Y-116825151D01*
X173484142Y-116964417D01*
X173569069Y-117123305D01*
X173621367Y-117295706D01*
X173639025Y-117475000D01*
X173621367Y-117654294D01*
X173569069Y-117826695D01*
X173484142Y-117985583D01*
X173369849Y-118124849D01*
X173230583Y-118239142D01*
X173071695Y-118324069D01*
X172899294Y-118376367D01*
X172764931Y-118389600D01*
X172675069Y-118389600D01*
X172540706Y-118376367D01*
X172368305Y-118324069D01*
X172209417Y-118239142D01*
X172070151Y-118124849D01*
X171955858Y-117985583D01*
X171870931Y-117826695D01*
X171818633Y-117654294D01*
X171800975Y-117475000D01*
X171818633Y-117295706D01*
X171870931Y-117123305D01*
X171955858Y-116964417D01*
X172070151Y-116825151D01*
X172209417Y-116710858D01*
X172368305Y-116625931D01*
X172540706Y-116573633D01*
X172675069Y-116560400D01*
X172764931Y-116560400D01*
X172899294Y-116573633D01*
X172899294Y-116573633D01*
G37*
G36*
X148100936Y-115841340D02*
G01*
X148199220Y-115851020D01*
X148388381Y-115908401D01*
X148562712Y-116001583D01*
X148715515Y-116126985D01*
X148840917Y-116279788D01*
X148934099Y-116454119D01*
X148991480Y-116643280D01*
X149010855Y-116840000D01*
X148991480Y-117036720D01*
X148934099Y-117225881D01*
X148840917Y-117400212D01*
X148715515Y-117553015D01*
X148562712Y-117678417D01*
X148388381Y-117771599D01*
X148199220Y-117828980D01*
X148100936Y-117838660D01*
X148051795Y-117843500D01*
X147858205Y-117843500D01*
X147809064Y-117838660D01*
X147710780Y-117828980D01*
X147521619Y-117771599D01*
X147347288Y-117678417D01*
X147194485Y-117553015D01*
X147069083Y-117400212D01*
X146975901Y-117225881D01*
X146918520Y-117036720D01*
X146899145Y-116840000D01*
X146918520Y-116643280D01*
X146975901Y-116454119D01*
X147069083Y-116279788D01*
X147194485Y-116126985D01*
X147347288Y-116001583D01*
X147521619Y-115908401D01*
X147710780Y-115851020D01*
X147809064Y-115841340D01*
X147858205Y-115836500D01*
X148051795Y-115836500D01*
X148100936Y-115841340D01*
X148100936Y-115841340D01*
G37*
G36*
X175439294Y-115303633D02*
G01*
X175611695Y-115355931D01*
X175770583Y-115440858D01*
X175909849Y-115555151D01*
X176024142Y-115694417D01*
X176109069Y-115853305D01*
X176161367Y-116025706D01*
X176179025Y-116205000D01*
X176161367Y-116384294D01*
X176109069Y-116556695D01*
X176024142Y-116715583D01*
X175909849Y-116854849D01*
X175770583Y-116969142D01*
X175611695Y-117054069D01*
X175439294Y-117106367D01*
X175304931Y-117119600D01*
X175215069Y-117119600D01*
X175080706Y-117106367D01*
X174908305Y-117054069D01*
X174749417Y-116969142D01*
X174610151Y-116854849D01*
X174495858Y-116715583D01*
X174410931Y-116556695D01*
X174358633Y-116384294D01*
X174340975Y-116205000D01*
X174358633Y-116025706D01*
X174410931Y-115853305D01*
X174495858Y-115694417D01*
X174610151Y-115555151D01*
X174749417Y-115440858D01*
X174908305Y-115355931D01*
X175080706Y-115303633D01*
X175215069Y-115290400D01*
X175304931Y-115290400D01*
X175439294Y-115303633D01*
X175439294Y-115303633D01*
G37*
G36*
X170359294Y-115303633D02*
G01*
X170531695Y-115355931D01*
X170690583Y-115440858D01*
X170829849Y-115555151D01*
X170944142Y-115694417D01*
X171029069Y-115853305D01*
X171081367Y-116025706D01*
X171099025Y-116205000D01*
X171081367Y-116384294D01*
X171029069Y-116556695D01*
X170944142Y-116715583D01*
X170829849Y-116854849D01*
X170690583Y-116969142D01*
X170531695Y-117054069D01*
X170359294Y-117106367D01*
X170224931Y-117119600D01*
X170135069Y-117119600D01*
X170000706Y-117106367D01*
X169828305Y-117054069D01*
X169669417Y-116969142D01*
X169530151Y-116854849D01*
X169415858Y-116715583D01*
X169330931Y-116556695D01*
X169278633Y-116384294D01*
X169260975Y-116205000D01*
X169278633Y-116025706D01*
X169330931Y-115853305D01*
X169415858Y-115694417D01*
X169530151Y-115555151D01*
X169669417Y-115440858D01*
X169828305Y-115355931D01*
X170000706Y-115303633D01*
X170135069Y-115290400D01*
X170224931Y-115290400D01*
X170359294Y-115303633D01*
X170359294Y-115303633D01*
G37*
G36*
X123300443Y-114675519D02*
G01*
X123366627Y-114682037D01*
X123536466Y-114733557D01*
X123692991Y-114817222D01*
X123728729Y-114846552D01*
X123830186Y-114929814D01*
X123898466Y-115013015D01*
X123942778Y-115067009D01*
X124026443Y-115223534D01*
X124077963Y-115393373D01*
X124095359Y-115570000D01*
X124077963Y-115746627D01*
X124026443Y-115916466D01*
X123942778Y-116072991D01*
X123913448Y-116108729D01*
X123830186Y-116210186D01*
X123745374Y-116279788D01*
X123692991Y-116322778D01*
X123536466Y-116406443D01*
X123366627Y-116457963D01*
X123300442Y-116464482D01*
X123234260Y-116471000D01*
X123145740Y-116471000D01*
X123079558Y-116464482D01*
X123013373Y-116457963D01*
X122843534Y-116406443D01*
X122687009Y-116322778D01*
X122634626Y-116279788D01*
X122549814Y-116210186D01*
X122466552Y-116108729D01*
X122437222Y-116072991D01*
X122353557Y-115916466D01*
X122302037Y-115746627D01*
X122284641Y-115570000D01*
X122302037Y-115393373D01*
X122353557Y-115223534D01*
X122437222Y-115067009D01*
X122481534Y-115013015D01*
X122549814Y-114929814D01*
X122651271Y-114846552D01*
X122687009Y-114817222D01*
X122843534Y-114733557D01*
X123013373Y-114682037D01*
X123079557Y-114675519D01*
X123145740Y-114669000D01*
X123234260Y-114669000D01*
X123300443Y-114675519D01*
X123300443Y-114675519D01*
G37*
G36*
X109330443Y-114675519D02*
G01*
X109396627Y-114682037D01*
X109566466Y-114733557D01*
X109722991Y-114817222D01*
X109758729Y-114846552D01*
X109860186Y-114929814D01*
X109928466Y-115013015D01*
X109972778Y-115067009D01*
X110056443Y-115223534D01*
X110107963Y-115393373D01*
X110125359Y-115570000D01*
X110107963Y-115746627D01*
X110056443Y-115916466D01*
X109972778Y-116072991D01*
X109943448Y-116108729D01*
X109860186Y-116210186D01*
X109775374Y-116279788D01*
X109722991Y-116322778D01*
X109566466Y-116406443D01*
X109396627Y-116457963D01*
X109330442Y-116464482D01*
X109264260Y-116471000D01*
X109175740Y-116471000D01*
X109109558Y-116464482D01*
X109043373Y-116457963D01*
X108873534Y-116406443D01*
X108717009Y-116322778D01*
X108664626Y-116279788D01*
X108579814Y-116210186D01*
X108496552Y-116108729D01*
X108467222Y-116072991D01*
X108383557Y-115916466D01*
X108332037Y-115746627D01*
X108314641Y-115570000D01*
X108332037Y-115393373D01*
X108383557Y-115223534D01*
X108467222Y-115067009D01*
X108511534Y-115013015D01*
X108579814Y-114929814D01*
X108681271Y-114846552D01*
X108717009Y-114817222D01*
X108873534Y-114733557D01*
X109043373Y-114682037D01*
X109109557Y-114675519D01*
X109175740Y-114669000D01*
X109264260Y-114669000D01*
X109330443Y-114675519D01*
X109330443Y-114675519D01*
G37*
G36*
X111870443Y-114675519D02*
G01*
X111936627Y-114682037D01*
X112106466Y-114733557D01*
X112262991Y-114817222D01*
X112298729Y-114846552D01*
X112400186Y-114929814D01*
X112468466Y-115013015D01*
X112512778Y-115067009D01*
X112596443Y-115223534D01*
X112647963Y-115393373D01*
X112665359Y-115570000D01*
X112647963Y-115746627D01*
X112596443Y-115916466D01*
X112512778Y-116072991D01*
X112483448Y-116108729D01*
X112400186Y-116210186D01*
X112315374Y-116279788D01*
X112262991Y-116322778D01*
X112106466Y-116406443D01*
X111936627Y-116457963D01*
X111870442Y-116464482D01*
X111804260Y-116471000D01*
X111715740Y-116471000D01*
X111649558Y-116464482D01*
X111583373Y-116457963D01*
X111413534Y-116406443D01*
X111257009Y-116322778D01*
X111204626Y-116279788D01*
X111119814Y-116210186D01*
X111036552Y-116108729D01*
X111007222Y-116072991D01*
X110923557Y-115916466D01*
X110872037Y-115746627D01*
X110854641Y-115570000D01*
X110872037Y-115393373D01*
X110923557Y-115223534D01*
X111007222Y-115067009D01*
X111051534Y-115013015D01*
X111119814Y-114929814D01*
X111221271Y-114846552D01*
X111257009Y-114817222D01*
X111413534Y-114733557D01*
X111583373Y-114682037D01*
X111649557Y-114675519D01*
X111715740Y-114669000D01*
X111804260Y-114669000D01*
X111870443Y-114675519D01*
X111870443Y-114675519D01*
G37*
G36*
X177979294Y-114033633D02*
G01*
X178151695Y-114085931D01*
X178310583Y-114170858D01*
X178449849Y-114285151D01*
X178564142Y-114424417D01*
X178649069Y-114583305D01*
X178701367Y-114755706D01*
X178719025Y-114935000D01*
X178701367Y-115114294D01*
X178649069Y-115286695D01*
X178564142Y-115445583D01*
X178449849Y-115584849D01*
X178310583Y-115699142D01*
X178151695Y-115784069D01*
X177979294Y-115836367D01*
X177844931Y-115849600D01*
X177755069Y-115849600D01*
X177620706Y-115836367D01*
X177448305Y-115784069D01*
X177289417Y-115699142D01*
X177150151Y-115584849D01*
X177035858Y-115445583D01*
X176950931Y-115286695D01*
X176898633Y-115114294D01*
X176880975Y-114935000D01*
X176898633Y-114755706D01*
X176950931Y-114583305D01*
X177035858Y-114424417D01*
X177150151Y-114285151D01*
X177289417Y-114170858D01*
X177448305Y-114085931D01*
X177620706Y-114033633D01*
X177755069Y-114020400D01*
X177844931Y-114020400D01*
X177979294Y-114033633D01*
X177979294Y-114033633D01*
G37*
G36*
X172899294Y-114033633D02*
G01*
X173071695Y-114085931D01*
X173230583Y-114170858D01*
X173369849Y-114285151D01*
X173484142Y-114424417D01*
X173569069Y-114583305D01*
X173621367Y-114755706D01*
X173639025Y-114935000D01*
X173621367Y-115114294D01*
X173569069Y-115286695D01*
X173484142Y-115445583D01*
X173369849Y-115584849D01*
X173230583Y-115699142D01*
X173071695Y-115784069D01*
X172899294Y-115836367D01*
X172764931Y-115849600D01*
X172675069Y-115849600D01*
X172540706Y-115836367D01*
X172368305Y-115784069D01*
X172209417Y-115699142D01*
X172070151Y-115584849D01*
X171955858Y-115445583D01*
X171870931Y-115286695D01*
X171818633Y-115114294D01*
X171800975Y-114935000D01*
X171818633Y-114755706D01*
X171870931Y-114583305D01*
X171955858Y-114424417D01*
X172070151Y-114285151D01*
X172209417Y-114170858D01*
X172368305Y-114085931D01*
X172540706Y-114033633D01*
X172675069Y-114020400D01*
X172764931Y-114020400D01*
X172899294Y-114033633D01*
X172899294Y-114033633D01*
G37*
G36*
X148100936Y-113301340D02*
G01*
X148199220Y-113311020D01*
X148388381Y-113368401D01*
X148562712Y-113461583D01*
X148715515Y-113586985D01*
X148840917Y-113739788D01*
X148934099Y-113914119D01*
X148991480Y-114103280D01*
X149010855Y-114300000D01*
X148991480Y-114496720D01*
X148934099Y-114685881D01*
X148840917Y-114860212D01*
X148715515Y-115013015D01*
X148562712Y-115138417D01*
X148388381Y-115231599D01*
X148199220Y-115288980D01*
X148100936Y-115298660D01*
X148051795Y-115303500D01*
X147858205Y-115303500D01*
X147809064Y-115298660D01*
X147710780Y-115288980D01*
X147521619Y-115231599D01*
X147347288Y-115138417D01*
X147194485Y-115013015D01*
X147069083Y-114860212D01*
X146975901Y-114685881D01*
X146918520Y-114496720D01*
X146899145Y-114300000D01*
X146918520Y-114103280D01*
X146975901Y-113914119D01*
X147069083Y-113739788D01*
X147194485Y-113586985D01*
X147347288Y-113461583D01*
X147521619Y-113368401D01*
X147710780Y-113311020D01*
X147809064Y-113301340D01*
X147858205Y-113296500D01*
X148051795Y-113296500D01*
X148100936Y-113301340D01*
X148100936Y-113301340D01*
G37*
G36*
X175439294Y-112763633D02*
G01*
X175611695Y-112815931D01*
X175770583Y-112900858D01*
X175909849Y-113015151D01*
X176024142Y-113154417D01*
X176109069Y-113313305D01*
X176161367Y-113485706D01*
X176179025Y-113665000D01*
X176161367Y-113844294D01*
X176109069Y-114016695D01*
X176024142Y-114175583D01*
X175909849Y-114314849D01*
X175770583Y-114429142D01*
X175611695Y-114514069D01*
X175439294Y-114566367D01*
X175304931Y-114579600D01*
X175215069Y-114579600D01*
X175080706Y-114566367D01*
X174908305Y-114514069D01*
X174749417Y-114429142D01*
X174610151Y-114314849D01*
X174495858Y-114175583D01*
X174410931Y-114016695D01*
X174358633Y-113844294D01*
X174340975Y-113665000D01*
X174358633Y-113485706D01*
X174410931Y-113313305D01*
X174495858Y-113154417D01*
X174610151Y-113015151D01*
X174749417Y-112900858D01*
X174908305Y-112815931D01*
X175080706Y-112763633D01*
X175215069Y-112750400D01*
X175304931Y-112750400D01*
X175439294Y-112763633D01*
X175439294Y-112763633D01*
G37*
G36*
X170359294Y-112763633D02*
G01*
X170531695Y-112815931D01*
X170690583Y-112900858D01*
X170829849Y-113015151D01*
X170944142Y-113154417D01*
X171029069Y-113313305D01*
X171081367Y-113485706D01*
X171099025Y-113665000D01*
X171081367Y-113844294D01*
X171029069Y-114016695D01*
X170944142Y-114175583D01*
X170829849Y-114314849D01*
X170690583Y-114429142D01*
X170531695Y-114514069D01*
X170359294Y-114566367D01*
X170224931Y-114579600D01*
X170135069Y-114579600D01*
X170000706Y-114566367D01*
X169828305Y-114514069D01*
X169669417Y-114429142D01*
X169530151Y-114314849D01*
X169415858Y-114175583D01*
X169330931Y-114016695D01*
X169278633Y-113844294D01*
X169260975Y-113665000D01*
X169278633Y-113485706D01*
X169330931Y-113313305D01*
X169415858Y-113154417D01*
X169530151Y-113015151D01*
X169669417Y-112900858D01*
X169828305Y-112815931D01*
X170000706Y-112763633D01*
X170135069Y-112750400D01*
X170224931Y-112750400D01*
X170359294Y-112763633D01*
X170359294Y-112763633D01*
G37*
G36*
X123300443Y-112135519D02*
G01*
X123366627Y-112142037D01*
X123536466Y-112193557D01*
X123692991Y-112277222D01*
X123728729Y-112306552D01*
X123830186Y-112389814D01*
X123913448Y-112491271D01*
X123942778Y-112527009D01*
X124026443Y-112683534D01*
X124077963Y-112853373D01*
X124095359Y-113030000D01*
X124077963Y-113206627D01*
X124026443Y-113376466D01*
X123942778Y-113532991D01*
X123913448Y-113568729D01*
X123830186Y-113670186D01*
X123745374Y-113739788D01*
X123692991Y-113782778D01*
X123536466Y-113866443D01*
X123366627Y-113917963D01*
X123300443Y-113924481D01*
X123234260Y-113931000D01*
X123145740Y-113931000D01*
X123079557Y-113924481D01*
X123013373Y-113917963D01*
X122843534Y-113866443D01*
X122687009Y-113782778D01*
X122634626Y-113739788D01*
X122549814Y-113670186D01*
X122466552Y-113568729D01*
X122437222Y-113532991D01*
X122353557Y-113376466D01*
X122302037Y-113206627D01*
X122284641Y-113030000D01*
X122302037Y-112853373D01*
X122353557Y-112683534D01*
X122437222Y-112527009D01*
X122466552Y-112491271D01*
X122549814Y-112389814D01*
X122651271Y-112306552D01*
X122687009Y-112277222D01*
X122843534Y-112193557D01*
X123013373Y-112142037D01*
X123079557Y-112135519D01*
X123145740Y-112129000D01*
X123234260Y-112129000D01*
X123300443Y-112135519D01*
X123300443Y-112135519D01*
G37*
G36*
X111870443Y-112135519D02*
G01*
X111936627Y-112142037D01*
X112106466Y-112193557D01*
X112262991Y-112277222D01*
X112298729Y-112306552D01*
X112400186Y-112389814D01*
X112483448Y-112491271D01*
X112512778Y-112527009D01*
X112596443Y-112683534D01*
X112647963Y-112853373D01*
X112665359Y-113030000D01*
X112647963Y-113206627D01*
X112596443Y-113376466D01*
X112512778Y-113532991D01*
X112483448Y-113568729D01*
X112400186Y-113670186D01*
X112315374Y-113739788D01*
X112262991Y-113782778D01*
X112106466Y-113866443D01*
X111936627Y-113917963D01*
X111870443Y-113924481D01*
X111804260Y-113931000D01*
X111715740Y-113931000D01*
X111649557Y-113924481D01*
X111583373Y-113917963D01*
X111413534Y-113866443D01*
X111257009Y-113782778D01*
X111204626Y-113739788D01*
X111119814Y-113670186D01*
X111036552Y-113568729D01*
X111007222Y-113532991D01*
X110923557Y-113376466D01*
X110872037Y-113206627D01*
X110854641Y-113030000D01*
X110872037Y-112853373D01*
X110923557Y-112683534D01*
X111007222Y-112527009D01*
X111036552Y-112491271D01*
X111119814Y-112389814D01*
X111221271Y-112306552D01*
X111257009Y-112277222D01*
X111413534Y-112193557D01*
X111583373Y-112142037D01*
X111649557Y-112135519D01*
X111715740Y-112129000D01*
X111804260Y-112129000D01*
X111870443Y-112135519D01*
X111870443Y-112135519D01*
G37*
G36*
X109330443Y-112135519D02*
G01*
X109396627Y-112142037D01*
X109566466Y-112193557D01*
X109722991Y-112277222D01*
X109758729Y-112306552D01*
X109860186Y-112389814D01*
X109943448Y-112491271D01*
X109972778Y-112527009D01*
X110056443Y-112683534D01*
X110107963Y-112853373D01*
X110125359Y-113030000D01*
X110107963Y-113206627D01*
X110056443Y-113376466D01*
X109972778Y-113532991D01*
X109943448Y-113568729D01*
X109860186Y-113670186D01*
X109775374Y-113739788D01*
X109722991Y-113782778D01*
X109566466Y-113866443D01*
X109396627Y-113917963D01*
X109330443Y-113924481D01*
X109264260Y-113931000D01*
X109175740Y-113931000D01*
X109109557Y-113924481D01*
X109043373Y-113917963D01*
X108873534Y-113866443D01*
X108717009Y-113782778D01*
X108664626Y-113739788D01*
X108579814Y-113670186D01*
X108496552Y-113568729D01*
X108467222Y-113532991D01*
X108383557Y-113376466D01*
X108332037Y-113206627D01*
X108314641Y-113030000D01*
X108332037Y-112853373D01*
X108383557Y-112683534D01*
X108467222Y-112527009D01*
X108496552Y-112491271D01*
X108579814Y-112389814D01*
X108681271Y-112306552D01*
X108717009Y-112277222D01*
X108873534Y-112193557D01*
X109043373Y-112142037D01*
X109109557Y-112135519D01*
X109175740Y-112129000D01*
X109264260Y-112129000D01*
X109330443Y-112135519D01*
X109330443Y-112135519D01*
G37*
G36*
X177979294Y-111493633D02*
G01*
X178151695Y-111545931D01*
X178310583Y-111630858D01*
X178449849Y-111745151D01*
X178564142Y-111884417D01*
X178649069Y-112043305D01*
X178701367Y-112215706D01*
X178719025Y-112395000D01*
X178701367Y-112574294D01*
X178649069Y-112746695D01*
X178564142Y-112905583D01*
X178449849Y-113044849D01*
X178310583Y-113159142D01*
X178151695Y-113244069D01*
X177979294Y-113296367D01*
X177844931Y-113309600D01*
X177755069Y-113309600D01*
X177620706Y-113296367D01*
X177448305Y-113244069D01*
X177289417Y-113159142D01*
X177150151Y-113044849D01*
X177035858Y-112905583D01*
X176950931Y-112746695D01*
X176898633Y-112574294D01*
X176880975Y-112395000D01*
X176898633Y-112215706D01*
X176950931Y-112043305D01*
X177035858Y-111884417D01*
X177150151Y-111745151D01*
X177289417Y-111630858D01*
X177448305Y-111545931D01*
X177620706Y-111493633D01*
X177755069Y-111480400D01*
X177844931Y-111480400D01*
X177979294Y-111493633D01*
X177979294Y-111493633D01*
G37*
G36*
X172899294Y-111493633D02*
G01*
X173071695Y-111545931D01*
X173230583Y-111630858D01*
X173369849Y-111745151D01*
X173484142Y-111884417D01*
X173569069Y-112043305D01*
X173621367Y-112215706D01*
X173639025Y-112395000D01*
X173621367Y-112574294D01*
X173569069Y-112746695D01*
X173484142Y-112905583D01*
X173369849Y-113044849D01*
X173230583Y-113159142D01*
X173071695Y-113244069D01*
X172899294Y-113296367D01*
X172764931Y-113309600D01*
X172675069Y-113309600D01*
X172540706Y-113296367D01*
X172368305Y-113244069D01*
X172209417Y-113159142D01*
X172070151Y-113044849D01*
X171955858Y-112905583D01*
X171870931Y-112746695D01*
X171818633Y-112574294D01*
X171800975Y-112395000D01*
X171818633Y-112215706D01*
X171870931Y-112043305D01*
X171955858Y-111884417D01*
X172070151Y-111745151D01*
X172209417Y-111630858D01*
X172368305Y-111545931D01*
X172540706Y-111493633D01*
X172675069Y-111480400D01*
X172764931Y-111480400D01*
X172899294Y-111493633D01*
X172899294Y-111493633D01*
G37*
G36*
X175439294Y-110223633D02*
G01*
X175611695Y-110275931D01*
X175770583Y-110360858D01*
X175909849Y-110475151D01*
X176024142Y-110614417D01*
X176109069Y-110773305D01*
X176161367Y-110945706D01*
X176179025Y-111125000D01*
X176161367Y-111304294D01*
X176109069Y-111476695D01*
X176024142Y-111635583D01*
X175909849Y-111774849D01*
X175770583Y-111889142D01*
X175611695Y-111974069D01*
X175439294Y-112026367D01*
X175304931Y-112039600D01*
X175215069Y-112039600D01*
X175080706Y-112026367D01*
X174908305Y-111974069D01*
X174749417Y-111889142D01*
X174610151Y-111774849D01*
X174495858Y-111635583D01*
X174410931Y-111476695D01*
X174358633Y-111304294D01*
X174340975Y-111125000D01*
X174358633Y-110945706D01*
X174410931Y-110773305D01*
X174495858Y-110614417D01*
X174610151Y-110475151D01*
X174749417Y-110360858D01*
X174908305Y-110275931D01*
X175080706Y-110223633D01*
X175215069Y-110210400D01*
X175304931Y-110210400D01*
X175439294Y-110223633D01*
X175439294Y-110223633D01*
G37*
G36*
X170359294Y-110223633D02*
G01*
X170531695Y-110275931D01*
X170690583Y-110360858D01*
X170829849Y-110475151D01*
X170944142Y-110614417D01*
X171029069Y-110773305D01*
X171081367Y-110945706D01*
X171099025Y-111125000D01*
X171081367Y-111304294D01*
X171029069Y-111476695D01*
X170944142Y-111635583D01*
X170829849Y-111774849D01*
X170690583Y-111889142D01*
X170531695Y-111974069D01*
X170359294Y-112026367D01*
X170224931Y-112039600D01*
X170135069Y-112039600D01*
X170000706Y-112026367D01*
X169828305Y-111974069D01*
X169669417Y-111889142D01*
X169530151Y-111774849D01*
X169415858Y-111635583D01*
X169330931Y-111476695D01*
X169278633Y-111304294D01*
X169260975Y-111125000D01*
X169278633Y-110945706D01*
X169330931Y-110773305D01*
X169415858Y-110614417D01*
X169530151Y-110475151D01*
X169669417Y-110360858D01*
X169828305Y-110275931D01*
X170000706Y-110223633D01*
X170135069Y-110210400D01*
X170224931Y-110210400D01*
X170359294Y-110223633D01*
X170359294Y-110223633D01*
G37*
G36*
X124091000Y-111391000D02*
G01*
X122289000Y-111391000D01*
X122289000Y-109589000D01*
X124091000Y-109589000D01*
X124091000Y-111391000D01*
X124091000Y-111391000D01*
G37*
G36*
X112661000Y-111391000D02*
G01*
X110859000Y-111391000D01*
X110859000Y-109589000D01*
X112661000Y-109589000D01*
X112661000Y-111391000D01*
X112661000Y-111391000D01*
G37*
G36*
X109330442Y-109595518D02*
G01*
X109396627Y-109602037D01*
X109566466Y-109653557D01*
X109722991Y-109737222D01*
X109758729Y-109766552D01*
X109860186Y-109849814D01*
X109943448Y-109951271D01*
X109972778Y-109987009D01*
X110056443Y-110143534D01*
X110107963Y-110313373D01*
X110125359Y-110490000D01*
X110107963Y-110666627D01*
X110056443Y-110836466D01*
X109972778Y-110992991D01*
X109943448Y-111028729D01*
X109860186Y-111130186D01*
X109758729Y-111213448D01*
X109722991Y-111242778D01*
X109566466Y-111326443D01*
X109396627Y-111377963D01*
X109330443Y-111384481D01*
X109264260Y-111391000D01*
X109175740Y-111391000D01*
X109109557Y-111384481D01*
X109043373Y-111377963D01*
X108873534Y-111326443D01*
X108717009Y-111242778D01*
X108681271Y-111213448D01*
X108579814Y-111130186D01*
X108496552Y-111028729D01*
X108467222Y-110992991D01*
X108383557Y-110836466D01*
X108332037Y-110666627D01*
X108314641Y-110490000D01*
X108332037Y-110313373D01*
X108383557Y-110143534D01*
X108467222Y-109987009D01*
X108496552Y-109951271D01*
X108579814Y-109849814D01*
X108681271Y-109766552D01*
X108717009Y-109737222D01*
X108873534Y-109653557D01*
X109043373Y-109602037D01*
X109109558Y-109595518D01*
X109175740Y-109589000D01*
X109264260Y-109589000D01*
X109330442Y-109595518D01*
X109330442Y-109595518D01*
G37*
G36*
X177979294Y-108953633D02*
G01*
X178151695Y-109005931D01*
X178310583Y-109090858D01*
X178449849Y-109205151D01*
X178564142Y-109344417D01*
X178649069Y-109503305D01*
X178701367Y-109675706D01*
X178719025Y-109855000D01*
X178701367Y-110034294D01*
X178649069Y-110206695D01*
X178564142Y-110365583D01*
X178449849Y-110504849D01*
X178310583Y-110619142D01*
X178151695Y-110704069D01*
X177979294Y-110756367D01*
X177844931Y-110769600D01*
X177755069Y-110769600D01*
X177620706Y-110756367D01*
X177448305Y-110704069D01*
X177289417Y-110619142D01*
X177150151Y-110504849D01*
X177035858Y-110365583D01*
X176950931Y-110206695D01*
X176898633Y-110034294D01*
X176880975Y-109855000D01*
X176898633Y-109675706D01*
X176950931Y-109503305D01*
X177035858Y-109344417D01*
X177150151Y-109205151D01*
X177289417Y-109090858D01*
X177448305Y-109005931D01*
X177620706Y-108953633D01*
X177755069Y-108940400D01*
X177844931Y-108940400D01*
X177979294Y-108953633D01*
X177979294Y-108953633D01*
G37*
G36*
X172899294Y-108953633D02*
G01*
X173071695Y-109005931D01*
X173230583Y-109090858D01*
X173369849Y-109205151D01*
X173484142Y-109344417D01*
X173569069Y-109503305D01*
X173621367Y-109675706D01*
X173639025Y-109855000D01*
X173621367Y-110034294D01*
X173569069Y-110206695D01*
X173484142Y-110365583D01*
X173369849Y-110504849D01*
X173230583Y-110619142D01*
X173071695Y-110704069D01*
X172899294Y-110756367D01*
X172764931Y-110769600D01*
X172675069Y-110769600D01*
X172540706Y-110756367D01*
X172368305Y-110704069D01*
X172209417Y-110619142D01*
X172070151Y-110504849D01*
X171955858Y-110365583D01*
X171870931Y-110206695D01*
X171818633Y-110034294D01*
X171800975Y-109855000D01*
X171818633Y-109675706D01*
X171870931Y-109503305D01*
X171955858Y-109344417D01*
X172070151Y-109205151D01*
X172209417Y-109090858D01*
X172368305Y-109005931D01*
X172540706Y-108953633D01*
X172675069Y-108940400D01*
X172764931Y-108940400D01*
X172899294Y-108953633D01*
X172899294Y-108953633D01*
G37*
G36*
X175439294Y-107683633D02*
G01*
X175611695Y-107735931D01*
X175770583Y-107820858D01*
X175909849Y-107935151D01*
X176024142Y-108074417D01*
X176109069Y-108233305D01*
X176161367Y-108405706D01*
X176179025Y-108585000D01*
X176161367Y-108764294D01*
X176109069Y-108936695D01*
X176024142Y-109095583D01*
X175909849Y-109234849D01*
X175770583Y-109349142D01*
X175611695Y-109434069D01*
X175439294Y-109486367D01*
X175304931Y-109499600D01*
X175215069Y-109499600D01*
X175080706Y-109486367D01*
X174908305Y-109434069D01*
X174749417Y-109349142D01*
X174610151Y-109234849D01*
X174495858Y-109095583D01*
X174410931Y-108936695D01*
X174358633Y-108764294D01*
X174340975Y-108585000D01*
X174358633Y-108405706D01*
X174410931Y-108233305D01*
X174495858Y-108074417D01*
X174610151Y-107935151D01*
X174749417Y-107820858D01*
X174908305Y-107735931D01*
X175080706Y-107683633D01*
X175215069Y-107670400D01*
X175304931Y-107670400D01*
X175439294Y-107683633D01*
X175439294Y-107683633D01*
G37*
G36*
X170359294Y-107683633D02*
G01*
X170531695Y-107735931D01*
X170690583Y-107820858D01*
X170829849Y-107935151D01*
X170944142Y-108074417D01*
X171029069Y-108233305D01*
X171081367Y-108405706D01*
X171099025Y-108585000D01*
X171081367Y-108764294D01*
X171029069Y-108936695D01*
X170944142Y-109095583D01*
X170829849Y-109234849D01*
X170690583Y-109349142D01*
X170531695Y-109434069D01*
X170359294Y-109486367D01*
X170224931Y-109499600D01*
X170135069Y-109499600D01*
X170000706Y-109486367D01*
X169828305Y-109434069D01*
X169669417Y-109349142D01*
X169530151Y-109234849D01*
X169415858Y-109095583D01*
X169330931Y-108936695D01*
X169278633Y-108764294D01*
X169260975Y-108585000D01*
X169278633Y-108405706D01*
X169330931Y-108233305D01*
X169415858Y-108074417D01*
X169530151Y-107935151D01*
X169669417Y-107820858D01*
X169828305Y-107735931D01*
X170000706Y-107683633D01*
X170135069Y-107670400D01*
X170224931Y-107670400D01*
X170359294Y-107683633D01*
X170359294Y-107683633D01*
G37*
G36*
X177979294Y-106413633D02*
G01*
X178151695Y-106465931D01*
X178310583Y-106550858D01*
X178449849Y-106665151D01*
X178564142Y-106804417D01*
X178649069Y-106963305D01*
X178701367Y-107135706D01*
X178719025Y-107315000D01*
X178701367Y-107494294D01*
X178649069Y-107666695D01*
X178564142Y-107825583D01*
X178449849Y-107964849D01*
X178310583Y-108079142D01*
X178151695Y-108164069D01*
X177979294Y-108216367D01*
X177844931Y-108229600D01*
X177755069Y-108229600D01*
X177620706Y-108216367D01*
X177448305Y-108164069D01*
X177289417Y-108079142D01*
X177150151Y-107964849D01*
X177035858Y-107825583D01*
X176950931Y-107666695D01*
X176898633Y-107494294D01*
X176880975Y-107315000D01*
X176898633Y-107135706D01*
X176950931Y-106963305D01*
X177035858Y-106804417D01*
X177150151Y-106665151D01*
X177289417Y-106550858D01*
X177448305Y-106465931D01*
X177620706Y-106413633D01*
X177755069Y-106400400D01*
X177844931Y-106400400D01*
X177979294Y-106413633D01*
X177979294Y-106413633D01*
G37*
G36*
X172899294Y-106413633D02*
G01*
X173071695Y-106465931D01*
X173230583Y-106550858D01*
X173369849Y-106665151D01*
X173484142Y-106804417D01*
X173569069Y-106963305D01*
X173621367Y-107135706D01*
X173639025Y-107315000D01*
X173621367Y-107494294D01*
X173569069Y-107666695D01*
X173484142Y-107825583D01*
X173369849Y-107964849D01*
X173230583Y-108079142D01*
X173071695Y-108164069D01*
X172899294Y-108216367D01*
X172764931Y-108229600D01*
X172675069Y-108229600D01*
X172540706Y-108216367D01*
X172368305Y-108164069D01*
X172209417Y-108079142D01*
X172070151Y-107964849D01*
X171955858Y-107825583D01*
X171870931Y-107666695D01*
X171818633Y-107494294D01*
X171800975Y-107315000D01*
X171818633Y-107135706D01*
X171870931Y-106963305D01*
X171955858Y-106804417D01*
X172070151Y-106665151D01*
X172209417Y-106550858D01*
X172368305Y-106465931D01*
X172540706Y-106413633D01*
X172675069Y-106400400D01*
X172764931Y-106400400D01*
X172899294Y-106413633D01*
X172899294Y-106413633D01*
G37*
G36*
X175439294Y-105143633D02*
G01*
X175611695Y-105195931D01*
X175770583Y-105280858D01*
X175909849Y-105395151D01*
X176024142Y-105534417D01*
X176109069Y-105693305D01*
X176161367Y-105865706D01*
X176179025Y-106045000D01*
X176161367Y-106224294D01*
X176109069Y-106396695D01*
X176024142Y-106555583D01*
X175909849Y-106694849D01*
X175770583Y-106809142D01*
X175611695Y-106894069D01*
X175439294Y-106946367D01*
X175304931Y-106959600D01*
X175215069Y-106959600D01*
X175080706Y-106946367D01*
X174908305Y-106894069D01*
X174749417Y-106809142D01*
X174610151Y-106694849D01*
X174495858Y-106555583D01*
X174410931Y-106396695D01*
X174358633Y-106224294D01*
X174340975Y-106045000D01*
X174358633Y-105865706D01*
X174410931Y-105693305D01*
X174495858Y-105534417D01*
X174610151Y-105395151D01*
X174749417Y-105280858D01*
X174908305Y-105195931D01*
X175080706Y-105143633D01*
X175215069Y-105130400D01*
X175304931Y-105130400D01*
X175439294Y-105143633D01*
X175439294Y-105143633D01*
G37*
G36*
X170359294Y-105143633D02*
G01*
X170531695Y-105195931D01*
X170690583Y-105280858D01*
X170829849Y-105395151D01*
X170944142Y-105534417D01*
X171029069Y-105693305D01*
X171081367Y-105865706D01*
X171099025Y-106045000D01*
X171081367Y-106224294D01*
X171029069Y-106396695D01*
X170944142Y-106555583D01*
X170829849Y-106694849D01*
X170690583Y-106809142D01*
X170531695Y-106894069D01*
X170359294Y-106946367D01*
X170224931Y-106959600D01*
X170135069Y-106959600D01*
X170000706Y-106946367D01*
X169828305Y-106894069D01*
X169669417Y-106809142D01*
X169530151Y-106694849D01*
X169415858Y-106555583D01*
X169330931Y-106396695D01*
X169278633Y-106224294D01*
X169260975Y-106045000D01*
X169278633Y-105865706D01*
X169330931Y-105693305D01*
X169415858Y-105534417D01*
X169530151Y-105395151D01*
X169669417Y-105280858D01*
X169828305Y-105195931D01*
X170000706Y-105143633D01*
X170135069Y-105130400D01*
X170224931Y-105130400D01*
X170359294Y-105143633D01*
X170359294Y-105143633D01*
G37*
G36*
X172899294Y-103873633D02*
G01*
X173071695Y-103925931D01*
X173230583Y-104010858D01*
X173369849Y-104125151D01*
X173484142Y-104264417D01*
X173569069Y-104423305D01*
X173621367Y-104595706D01*
X173639025Y-104775000D01*
X173621367Y-104954294D01*
X173569069Y-105126695D01*
X173484142Y-105285583D01*
X173369849Y-105424849D01*
X173230583Y-105539142D01*
X173071695Y-105624069D01*
X172899294Y-105676367D01*
X172764931Y-105689600D01*
X172675069Y-105689600D01*
X172540706Y-105676367D01*
X172368305Y-105624069D01*
X172209417Y-105539142D01*
X172070151Y-105424849D01*
X171955858Y-105285583D01*
X171870931Y-105126695D01*
X171818633Y-104954294D01*
X171800975Y-104775000D01*
X171818633Y-104595706D01*
X171870931Y-104423305D01*
X171955858Y-104264417D01*
X172070151Y-104125151D01*
X172209417Y-104010858D01*
X172368305Y-103925931D01*
X172540706Y-103873633D01*
X172675069Y-103860400D01*
X172764931Y-103860400D01*
X172899294Y-103873633D01*
X172899294Y-103873633D01*
G37*
G36*
X177979294Y-103873633D02*
G01*
X178151695Y-103925931D01*
X178310583Y-104010858D01*
X178449849Y-104125151D01*
X178564142Y-104264417D01*
X178649069Y-104423305D01*
X178701367Y-104595706D01*
X178719025Y-104775000D01*
X178701367Y-104954294D01*
X178649069Y-105126695D01*
X178564142Y-105285583D01*
X178449849Y-105424849D01*
X178310583Y-105539142D01*
X178151695Y-105624069D01*
X177979294Y-105676367D01*
X177844931Y-105689600D01*
X177755069Y-105689600D01*
X177620706Y-105676367D01*
X177448305Y-105624069D01*
X177289417Y-105539142D01*
X177150151Y-105424849D01*
X177035858Y-105285583D01*
X176950931Y-105126695D01*
X176898633Y-104954294D01*
X176880975Y-104775000D01*
X176898633Y-104595706D01*
X176950931Y-104423305D01*
X177035858Y-104264417D01*
X177150151Y-104125151D01*
X177289417Y-104010858D01*
X177448305Y-103925931D01*
X177620706Y-103873633D01*
X177755069Y-103860400D01*
X177844931Y-103860400D01*
X177979294Y-103873633D01*
X177979294Y-103873633D01*
G37*
G36*
X170359294Y-102603633D02*
G01*
X170531695Y-102655931D01*
X170690583Y-102740858D01*
X170829849Y-102855151D01*
X170944142Y-102994417D01*
X171029069Y-103153305D01*
X171081367Y-103325706D01*
X171099025Y-103505000D01*
X171081367Y-103684294D01*
X171029069Y-103856695D01*
X170944142Y-104015583D01*
X170829849Y-104154849D01*
X170690583Y-104269142D01*
X170531695Y-104354069D01*
X170359294Y-104406367D01*
X170224931Y-104419600D01*
X170135069Y-104419600D01*
X170000706Y-104406367D01*
X169828305Y-104354069D01*
X169669417Y-104269142D01*
X169530151Y-104154849D01*
X169415858Y-104015583D01*
X169330931Y-103856695D01*
X169278633Y-103684294D01*
X169260975Y-103505000D01*
X169278633Y-103325706D01*
X169330931Y-103153305D01*
X169415858Y-102994417D01*
X169530151Y-102855151D01*
X169669417Y-102740858D01*
X169828305Y-102655931D01*
X170000706Y-102603633D01*
X170135069Y-102590400D01*
X170224931Y-102590400D01*
X170359294Y-102603633D01*
X170359294Y-102603633D01*
G37*
G36*
X175439294Y-102603633D02*
G01*
X175611695Y-102655931D01*
X175770583Y-102740858D01*
X175909849Y-102855151D01*
X176024142Y-102994417D01*
X176109069Y-103153305D01*
X176161367Y-103325706D01*
X176179025Y-103505000D01*
X176161367Y-103684294D01*
X176109069Y-103856695D01*
X176024142Y-104015583D01*
X175909849Y-104154849D01*
X175770583Y-104269142D01*
X175611695Y-104354069D01*
X175439294Y-104406367D01*
X175304931Y-104419600D01*
X175215069Y-104419600D01*
X175080706Y-104406367D01*
X174908305Y-104354069D01*
X174749417Y-104269142D01*
X174610151Y-104154849D01*
X174495858Y-104015583D01*
X174410931Y-103856695D01*
X174358633Y-103684294D01*
X174340975Y-103505000D01*
X174358633Y-103325706D01*
X174410931Y-103153305D01*
X174495858Y-102994417D01*
X174610151Y-102855151D01*
X174749417Y-102740858D01*
X174908305Y-102655931D01*
X175080706Y-102603633D01*
X175215069Y-102590400D01*
X175304931Y-102590400D01*
X175439294Y-102603633D01*
X175439294Y-102603633D01*
G37*
G36*
X150026823Y-102031313D02*
G01*
X150187242Y-102079976D01*
X150319906Y-102150886D01*
X150335078Y-102158996D01*
X150464659Y-102265341D01*
X150571004Y-102394922D01*
X150571005Y-102394924D01*
X150650024Y-102542758D01*
X150698687Y-102703177D01*
X150715117Y-102870000D01*
X150698687Y-103036823D01*
X150650024Y-103197242D01*
X150581358Y-103325706D01*
X150571004Y-103345078D01*
X150464659Y-103474659D01*
X150335078Y-103581004D01*
X150335076Y-103581005D01*
X150187242Y-103660024D01*
X150026823Y-103708687D01*
X149901804Y-103721000D01*
X149818196Y-103721000D01*
X149693177Y-103708687D01*
X149532758Y-103660024D01*
X149384924Y-103581005D01*
X149384922Y-103581004D01*
X149255341Y-103474659D01*
X149148996Y-103345078D01*
X149138642Y-103325706D01*
X149069976Y-103197242D01*
X149021313Y-103036823D01*
X149004883Y-102870000D01*
X149021313Y-102703177D01*
X149069976Y-102542758D01*
X149148995Y-102394924D01*
X149148996Y-102394922D01*
X149255341Y-102265341D01*
X149384922Y-102158996D01*
X149400094Y-102150886D01*
X149532758Y-102079976D01*
X149693177Y-102031313D01*
X149818196Y-102019000D01*
X149901804Y-102019000D01*
X150026823Y-102031313D01*
X150026823Y-102031313D01*
G37*
G36*
X147486823Y-102031313D02*
G01*
X147647242Y-102079976D01*
X147779906Y-102150886D01*
X147795078Y-102158996D01*
X147924659Y-102265341D01*
X148031004Y-102394922D01*
X148031005Y-102394924D01*
X148110024Y-102542758D01*
X148158687Y-102703177D01*
X148175117Y-102870000D01*
X148158687Y-103036823D01*
X148110024Y-103197242D01*
X148041358Y-103325706D01*
X148031004Y-103345078D01*
X147924659Y-103474659D01*
X147795078Y-103581004D01*
X147795076Y-103581005D01*
X147647242Y-103660024D01*
X147486823Y-103708687D01*
X147361804Y-103721000D01*
X147278196Y-103721000D01*
X147153177Y-103708687D01*
X146992758Y-103660024D01*
X146844924Y-103581005D01*
X146844922Y-103581004D01*
X146715341Y-103474659D01*
X146608996Y-103345078D01*
X146598642Y-103325706D01*
X146529976Y-103197242D01*
X146481313Y-103036823D01*
X146464883Y-102870000D01*
X146481313Y-102703177D01*
X146529976Y-102542758D01*
X146608995Y-102394924D01*
X146608996Y-102394922D01*
X146715341Y-102265341D01*
X146844922Y-102158996D01*
X146860094Y-102150886D01*
X146992758Y-102079976D01*
X147153177Y-102031313D01*
X147278196Y-102019000D01*
X147361804Y-102019000D01*
X147486823Y-102031313D01*
X147486823Y-102031313D01*
G37*
G36*
X144946823Y-102031313D02*
G01*
X145107242Y-102079976D01*
X145239906Y-102150886D01*
X145255078Y-102158996D01*
X145384659Y-102265341D01*
X145491004Y-102394922D01*
X145491005Y-102394924D01*
X145570024Y-102542758D01*
X145618687Y-102703177D01*
X145635117Y-102870000D01*
X145618687Y-103036823D01*
X145570024Y-103197242D01*
X145501358Y-103325706D01*
X145491004Y-103345078D01*
X145384659Y-103474659D01*
X145255078Y-103581004D01*
X145255076Y-103581005D01*
X145107242Y-103660024D01*
X144946823Y-103708687D01*
X144821804Y-103721000D01*
X144738196Y-103721000D01*
X144613177Y-103708687D01*
X144452758Y-103660024D01*
X144304924Y-103581005D01*
X144304922Y-103581004D01*
X144175341Y-103474659D01*
X144068996Y-103345078D01*
X144058642Y-103325706D01*
X143989976Y-103197242D01*
X143941313Y-103036823D01*
X143924883Y-102870000D01*
X143941313Y-102703177D01*
X143989976Y-102542758D01*
X144068995Y-102394924D01*
X144068996Y-102394922D01*
X144175341Y-102265341D01*
X144304922Y-102158996D01*
X144320094Y-102150886D01*
X144452758Y-102079976D01*
X144613177Y-102031313D01*
X144738196Y-102019000D01*
X144821804Y-102019000D01*
X144946823Y-102031313D01*
X144946823Y-102031313D01*
G37*
G36*
X142406823Y-102031313D02*
G01*
X142567242Y-102079976D01*
X142699906Y-102150886D01*
X142715078Y-102158996D01*
X142844659Y-102265341D01*
X142951004Y-102394922D01*
X142951005Y-102394924D01*
X143030024Y-102542758D01*
X143078687Y-102703177D01*
X143095117Y-102870000D01*
X143078687Y-103036823D01*
X143030024Y-103197242D01*
X142961358Y-103325706D01*
X142951004Y-103345078D01*
X142844659Y-103474659D01*
X142715078Y-103581004D01*
X142715076Y-103581005D01*
X142567242Y-103660024D01*
X142406823Y-103708687D01*
X142281804Y-103721000D01*
X142198196Y-103721000D01*
X142073177Y-103708687D01*
X141912758Y-103660024D01*
X141764924Y-103581005D01*
X141764922Y-103581004D01*
X141635341Y-103474659D01*
X141528996Y-103345078D01*
X141518642Y-103325706D01*
X141449976Y-103197242D01*
X141401313Y-103036823D01*
X141384883Y-102870000D01*
X141401313Y-102703177D01*
X141449976Y-102542758D01*
X141528995Y-102394924D01*
X141528996Y-102394922D01*
X141635341Y-102265341D01*
X141764922Y-102158996D01*
X141780094Y-102150886D01*
X141912758Y-102079976D01*
X142073177Y-102031313D01*
X142198196Y-102019000D01*
X142281804Y-102019000D01*
X142406823Y-102031313D01*
X142406823Y-102031313D01*
G37*
G36*
X139866823Y-102031313D02*
G01*
X140027242Y-102079976D01*
X140159906Y-102150886D01*
X140175078Y-102158996D01*
X140304659Y-102265341D01*
X140411004Y-102394922D01*
X140411005Y-102394924D01*
X140490024Y-102542758D01*
X140538687Y-102703177D01*
X140555117Y-102870000D01*
X140538687Y-103036823D01*
X140490024Y-103197242D01*
X140421358Y-103325706D01*
X140411004Y-103345078D01*
X140304659Y-103474659D01*
X140175078Y-103581004D01*
X140175076Y-103581005D01*
X140027242Y-103660024D01*
X139866823Y-103708687D01*
X139741804Y-103721000D01*
X139658196Y-103721000D01*
X139533177Y-103708687D01*
X139372758Y-103660024D01*
X139224924Y-103581005D01*
X139224922Y-103581004D01*
X139095341Y-103474659D01*
X138988996Y-103345078D01*
X138978642Y-103325706D01*
X138909976Y-103197242D01*
X138861313Y-103036823D01*
X138844883Y-102870000D01*
X138861313Y-102703177D01*
X138909976Y-102542758D01*
X138988995Y-102394924D01*
X138988996Y-102394922D01*
X139095341Y-102265341D01*
X139224922Y-102158996D01*
X139240094Y-102150886D01*
X139372758Y-102079976D01*
X139533177Y-102031313D01*
X139658196Y-102019000D01*
X139741804Y-102019000D01*
X139866823Y-102031313D01*
X139866823Y-102031313D01*
G37*
G36*
X137326823Y-102031313D02*
G01*
X137487242Y-102079976D01*
X137619906Y-102150886D01*
X137635078Y-102158996D01*
X137764659Y-102265341D01*
X137871004Y-102394922D01*
X137871005Y-102394924D01*
X137950024Y-102542758D01*
X137998687Y-102703177D01*
X138015117Y-102870000D01*
X137998687Y-103036823D01*
X137950024Y-103197242D01*
X137881358Y-103325706D01*
X137871004Y-103345078D01*
X137764659Y-103474659D01*
X137635078Y-103581004D01*
X137635076Y-103581005D01*
X137487242Y-103660024D01*
X137326823Y-103708687D01*
X137201804Y-103721000D01*
X137118196Y-103721000D01*
X136993177Y-103708687D01*
X136832758Y-103660024D01*
X136684924Y-103581005D01*
X136684922Y-103581004D01*
X136555341Y-103474659D01*
X136448996Y-103345078D01*
X136438642Y-103325706D01*
X136369976Y-103197242D01*
X136321313Y-103036823D01*
X136304883Y-102870000D01*
X136321313Y-102703177D01*
X136369976Y-102542758D01*
X136448995Y-102394924D01*
X136448996Y-102394922D01*
X136555341Y-102265341D01*
X136684922Y-102158996D01*
X136700094Y-102150886D01*
X136832758Y-102079976D01*
X136993177Y-102031313D01*
X137118196Y-102019000D01*
X137201804Y-102019000D01*
X137326823Y-102031313D01*
X137326823Y-102031313D01*
G37*
G36*
X134786823Y-102031313D02*
G01*
X134947242Y-102079976D01*
X135079906Y-102150886D01*
X135095078Y-102158996D01*
X135224659Y-102265341D01*
X135331004Y-102394922D01*
X135331005Y-102394924D01*
X135410024Y-102542758D01*
X135458687Y-102703177D01*
X135475117Y-102870000D01*
X135458687Y-103036823D01*
X135410024Y-103197242D01*
X135341358Y-103325706D01*
X135331004Y-103345078D01*
X135224659Y-103474659D01*
X135095078Y-103581004D01*
X135095076Y-103581005D01*
X134947242Y-103660024D01*
X134786823Y-103708687D01*
X134661804Y-103721000D01*
X134578196Y-103721000D01*
X134453177Y-103708687D01*
X134292758Y-103660024D01*
X134144924Y-103581005D01*
X134144922Y-103581004D01*
X134015341Y-103474659D01*
X133908996Y-103345078D01*
X133898642Y-103325706D01*
X133829976Y-103197242D01*
X133781313Y-103036823D01*
X133764883Y-102870000D01*
X133781313Y-102703177D01*
X133829976Y-102542758D01*
X133908995Y-102394924D01*
X133908996Y-102394922D01*
X134015341Y-102265341D01*
X134144922Y-102158996D01*
X134160094Y-102150886D01*
X134292758Y-102079976D01*
X134453177Y-102031313D01*
X134578196Y-102019000D01*
X134661804Y-102019000D01*
X134786823Y-102031313D01*
X134786823Y-102031313D01*
G37*
G36*
X127166823Y-102031313D02*
G01*
X127327242Y-102079976D01*
X127459906Y-102150886D01*
X127475078Y-102158996D01*
X127604659Y-102265341D01*
X127711004Y-102394922D01*
X127711005Y-102394924D01*
X127790024Y-102542758D01*
X127838687Y-102703177D01*
X127855117Y-102870000D01*
X127838687Y-103036823D01*
X127790024Y-103197242D01*
X127721358Y-103325706D01*
X127711004Y-103345078D01*
X127604659Y-103474659D01*
X127475078Y-103581004D01*
X127475076Y-103581005D01*
X127327242Y-103660024D01*
X127166823Y-103708687D01*
X127041804Y-103721000D01*
X126958196Y-103721000D01*
X126833177Y-103708687D01*
X126672758Y-103660024D01*
X126524924Y-103581005D01*
X126524922Y-103581004D01*
X126395341Y-103474659D01*
X126288996Y-103345078D01*
X126278642Y-103325706D01*
X126209976Y-103197242D01*
X126161313Y-103036823D01*
X126144883Y-102870000D01*
X126161313Y-102703177D01*
X126209976Y-102542758D01*
X126288995Y-102394924D01*
X126288996Y-102394922D01*
X126395341Y-102265341D01*
X126524922Y-102158996D01*
X126540094Y-102150886D01*
X126672758Y-102079976D01*
X126833177Y-102031313D01*
X126958196Y-102019000D01*
X127041804Y-102019000D01*
X127166823Y-102031313D01*
X127166823Y-102031313D01*
G37*
G36*
X124626823Y-102031313D02*
G01*
X124787242Y-102079976D01*
X124919906Y-102150886D01*
X124935078Y-102158996D01*
X125064659Y-102265341D01*
X125171004Y-102394922D01*
X125171005Y-102394924D01*
X125250024Y-102542758D01*
X125298687Y-102703177D01*
X125315117Y-102870000D01*
X125298687Y-103036823D01*
X125250024Y-103197242D01*
X125181358Y-103325706D01*
X125171004Y-103345078D01*
X125064659Y-103474659D01*
X124935078Y-103581004D01*
X124935076Y-103581005D01*
X124787242Y-103660024D01*
X124626823Y-103708687D01*
X124501804Y-103721000D01*
X124418196Y-103721000D01*
X124293177Y-103708687D01*
X124132758Y-103660024D01*
X123984924Y-103581005D01*
X123984922Y-103581004D01*
X123855341Y-103474659D01*
X123748996Y-103345078D01*
X123738642Y-103325706D01*
X123669976Y-103197242D01*
X123621313Y-103036823D01*
X123604883Y-102870000D01*
X123621313Y-102703177D01*
X123669976Y-102542758D01*
X123748995Y-102394924D01*
X123748996Y-102394922D01*
X123855341Y-102265341D01*
X123984922Y-102158996D01*
X124000094Y-102150886D01*
X124132758Y-102079976D01*
X124293177Y-102031313D01*
X124418196Y-102019000D01*
X124501804Y-102019000D01*
X124626823Y-102031313D01*
X124626823Y-102031313D01*
G37*
G36*
X122086823Y-102031313D02*
G01*
X122247242Y-102079976D01*
X122379906Y-102150886D01*
X122395078Y-102158996D01*
X122524659Y-102265341D01*
X122631004Y-102394922D01*
X122631005Y-102394924D01*
X122710024Y-102542758D01*
X122758687Y-102703177D01*
X122775117Y-102870000D01*
X122758687Y-103036823D01*
X122710024Y-103197242D01*
X122641358Y-103325706D01*
X122631004Y-103345078D01*
X122524659Y-103474659D01*
X122395078Y-103581004D01*
X122395076Y-103581005D01*
X122247242Y-103660024D01*
X122086823Y-103708687D01*
X121961804Y-103721000D01*
X121878196Y-103721000D01*
X121753177Y-103708687D01*
X121592758Y-103660024D01*
X121444924Y-103581005D01*
X121444922Y-103581004D01*
X121315341Y-103474659D01*
X121208996Y-103345078D01*
X121198642Y-103325706D01*
X121129976Y-103197242D01*
X121081313Y-103036823D01*
X121064883Y-102870000D01*
X121081313Y-102703177D01*
X121129976Y-102542758D01*
X121208995Y-102394924D01*
X121208996Y-102394922D01*
X121315341Y-102265341D01*
X121444922Y-102158996D01*
X121460094Y-102150886D01*
X121592758Y-102079976D01*
X121753177Y-102031313D01*
X121878196Y-102019000D01*
X121961804Y-102019000D01*
X122086823Y-102031313D01*
X122086823Y-102031313D01*
G37*
G36*
X119546823Y-102031313D02*
G01*
X119707242Y-102079976D01*
X119839906Y-102150886D01*
X119855078Y-102158996D01*
X119984659Y-102265341D01*
X120091004Y-102394922D01*
X120091005Y-102394924D01*
X120170024Y-102542758D01*
X120218687Y-102703177D01*
X120235117Y-102870000D01*
X120218687Y-103036823D01*
X120170024Y-103197242D01*
X120101358Y-103325706D01*
X120091004Y-103345078D01*
X119984659Y-103474659D01*
X119855078Y-103581004D01*
X119855076Y-103581005D01*
X119707242Y-103660024D01*
X119546823Y-103708687D01*
X119421804Y-103721000D01*
X119338196Y-103721000D01*
X119213177Y-103708687D01*
X119052758Y-103660024D01*
X118904924Y-103581005D01*
X118904922Y-103581004D01*
X118775341Y-103474659D01*
X118668996Y-103345078D01*
X118658642Y-103325706D01*
X118589976Y-103197242D01*
X118541313Y-103036823D01*
X118524883Y-102870000D01*
X118541313Y-102703177D01*
X118589976Y-102542758D01*
X118668995Y-102394924D01*
X118668996Y-102394922D01*
X118775341Y-102265341D01*
X118904922Y-102158996D01*
X118920094Y-102150886D01*
X119052758Y-102079976D01*
X119213177Y-102031313D01*
X119338196Y-102019000D01*
X119421804Y-102019000D01*
X119546823Y-102031313D01*
X119546823Y-102031313D01*
G37*
G36*
X114466823Y-102031313D02*
G01*
X114627242Y-102079976D01*
X114759906Y-102150886D01*
X114775078Y-102158996D01*
X114904659Y-102265341D01*
X115011004Y-102394922D01*
X115011005Y-102394924D01*
X115090024Y-102542758D01*
X115138687Y-102703177D01*
X115155117Y-102870000D01*
X115138687Y-103036823D01*
X115090024Y-103197242D01*
X115021358Y-103325706D01*
X115011004Y-103345078D01*
X114904659Y-103474659D01*
X114775078Y-103581004D01*
X114775076Y-103581005D01*
X114627242Y-103660024D01*
X114466823Y-103708687D01*
X114341804Y-103721000D01*
X114258196Y-103721000D01*
X114133177Y-103708687D01*
X113972758Y-103660024D01*
X113824924Y-103581005D01*
X113824922Y-103581004D01*
X113695341Y-103474659D01*
X113588996Y-103345078D01*
X113578642Y-103325706D01*
X113509976Y-103197242D01*
X113461313Y-103036823D01*
X113444883Y-102870000D01*
X113461313Y-102703177D01*
X113509976Y-102542758D01*
X113588995Y-102394924D01*
X113588996Y-102394922D01*
X113695341Y-102265341D01*
X113824922Y-102158996D01*
X113840094Y-102150886D01*
X113972758Y-102079976D01*
X114133177Y-102031313D01*
X114258196Y-102019000D01*
X114341804Y-102019000D01*
X114466823Y-102031313D01*
X114466823Y-102031313D01*
G37*
G36*
X132246823Y-102031313D02*
G01*
X132407242Y-102079976D01*
X132539906Y-102150886D01*
X132555078Y-102158996D01*
X132684659Y-102265341D01*
X132791004Y-102394922D01*
X132791005Y-102394924D01*
X132870024Y-102542758D01*
X132918687Y-102703177D01*
X132935117Y-102870000D01*
X132918687Y-103036823D01*
X132870024Y-103197242D01*
X132801358Y-103325706D01*
X132791004Y-103345078D01*
X132684659Y-103474659D01*
X132555078Y-103581004D01*
X132555076Y-103581005D01*
X132407242Y-103660024D01*
X132246823Y-103708687D01*
X132121804Y-103721000D01*
X132038196Y-103721000D01*
X131913177Y-103708687D01*
X131752758Y-103660024D01*
X131604924Y-103581005D01*
X131604922Y-103581004D01*
X131475341Y-103474659D01*
X131368996Y-103345078D01*
X131358642Y-103325706D01*
X131289976Y-103197242D01*
X131241313Y-103036823D01*
X131224883Y-102870000D01*
X131241313Y-102703177D01*
X131289976Y-102542758D01*
X131368995Y-102394924D01*
X131368996Y-102394922D01*
X131475341Y-102265341D01*
X131604922Y-102158996D01*
X131620094Y-102150886D01*
X131752758Y-102079976D01*
X131913177Y-102031313D01*
X132038196Y-102019000D01*
X132121804Y-102019000D01*
X132246823Y-102031313D01*
X132246823Y-102031313D01*
G37*
G36*
X117006823Y-102031313D02*
G01*
X117167242Y-102079976D01*
X117299906Y-102150886D01*
X117315078Y-102158996D01*
X117444659Y-102265341D01*
X117551004Y-102394922D01*
X117551005Y-102394924D01*
X117630024Y-102542758D01*
X117678687Y-102703177D01*
X117695117Y-102870000D01*
X117678687Y-103036823D01*
X117630024Y-103197242D01*
X117561358Y-103325706D01*
X117551004Y-103345078D01*
X117444659Y-103474659D01*
X117315078Y-103581004D01*
X117315076Y-103581005D01*
X117167242Y-103660024D01*
X117006823Y-103708687D01*
X116881804Y-103721000D01*
X116798196Y-103721000D01*
X116673177Y-103708687D01*
X116512758Y-103660024D01*
X116364924Y-103581005D01*
X116364922Y-103581004D01*
X116235341Y-103474659D01*
X116128996Y-103345078D01*
X116118642Y-103325706D01*
X116049976Y-103197242D01*
X116001313Y-103036823D01*
X115984883Y-102870000D01*
X116001313Y-102703177D01*
X116049976Y-102542758D01*
X116128995Y-102394924D01*
X116128996Y-102394922D01*
X116235341Y-102265341D01*
X116364922Y-102158996D01*
X116380094Y-102150886D01*
X116512758Y-102079976D01*
X116673177Y-102031313D01*
X116798196Y-102019000D01*
X116881804Y-102019000D01*
X117006823Y-102031313D01*
X117006823Y-102031313D01*
G37*
G36*
X129706823Y-102031313D02*
G01*
X129867242Y-102079976D01*
X129999906Y-102150886D01*
X130015078Y-102158996D01*
X130144659Y-102265341D01*
X130251004Y-102394922D01*
X130251005Y-102394924D01*
X130330024Y-102542758D01*
X130378687Y-102703177D01*
X130395117Y-102870000D01*
X130378687Y-103036823D01*
X130330024Y-103197242D01*
X130261358Y-103325706D01*
X130251004Y-103345078D01*
X130144659Y-103474659D01*
X130015078Y-103581004D01*
X130015076Y-103581005D01*
X129867242Y-103660024D01*
X129706823Y-103708687D01*
X129581804Y-103721000D01*
X129498196Y-103721000D01*
X129373177Y-103708687D01*
X129212758Y-103660024D01*
X129064924Y-103581005D01*
X129064922Y-103581004D01*
X128935341Y-103474659D01*
X128828996Y-103345078D01*
X128818642Y-103325706D01*
X128749976Y-103197242D01*
X128701313Y-103036823D01*
X128684883Y-102870000D01*
X128701313Y-102703177D01*
X128749976Y-102542758D01*
X128828995Y-102394924D01*
X128828996Y-102394922D01*
X128935341Y-102265341D01*
X129064922Y-102158996D01*
X129080094Y-102150886D01*
X129212758Y-102079976D01*
X129373177Y-102031313D01*
X129498196Y-102019000D01*
X129581804Y-102019000D01*
X129706823Y-102031313D01*
X129706823Y-102031313D01*
G37*
G36*
X177979294Y-101333633D02*
G01*
X178151695Y-101385931D01*
X178310583Y-101470858D01*
X178449849Y-101585151D01*
X178564142Y-101724417D01*
X178649069Y-101883305D01*
X178701367Y-102055706D01*
X178719025Y-102235000D01*
X178701367Y-102414294D01*
X178649069Y-102586695D01*
X178564142Y-102745583D01*
X178449849Y-102884849D01*
X178310583Y-102999142D01*
X178151695Y-103084069D01*
X177979294Y-103136367D01*
X177844931Y-103149600D01*
X177755069Y-103149600D01*
X177620706Y-103136367D01*
X177448305Y-103084069D01*
X177289417Y-102999142D01*
X177150151Y-102884849D01*
X177035858Y-102745583D01*
X176950931Y-102586695D01*
X176898633Y-102414294D01*
X176880975Y-102235000D01*
X176898633Y-102055706D01*
X176950931Y-101883305D01*
X177035858Y-101724417D01*
X177150151Y-101585151D01*
X177289417Y-101470858D01*
X177448305Y-101385931D01*
X177620706Y-101333633D01*
X177755069Y-101320400D01*
X177844931Y-101320400D01*
X177979294Y-101333633D01*
X177979294Y-101333633D01*
G37*
G36*
X172899294Y-101333633D02*
G01*
X173071695Y-101385931D01*
X173230583Y-101470858D01*
X173369849Y-101585151D01*
X173484142Y-101724417D01*
X173569069Y-101883305D01*
X173621367Y-102055706D01*
X173639025Y-102235000D01*
X173621367Y-102414294D01*
X173569069Y-102586695D01*
X173484142Y-102745583D01*
X173369849Y-102884849D01*
X173230583Y-102999142D01*
X173071695Y-103084069D01*
X172899294Y-103136367D01*
X172764931Y-103149600D01*
X172675069Y-103149600D01*
X172540706Y-103136367D01*
X172368305Y-103084069D01*
X172209417Y-102999142D01*
X172070151Y-102884849D01*
X171955858Y-102745583D01*
X171870931Y-102586695D01*
X171818633Y-102414294D01*
X171800975Y-102235000D01*
X171818633Y-102055706D01*
X171870931Y-101883305D01*
X171955858Y-101724417D01*
X172070151Y-101585151D01*
X172209417Y-101470858D01*
X172368305Y-101385931D01*
X172540706Y-101333633D01*
X172675069Y-101320400D01*
X172764931Y-101320400D01*
X172899294Y-101333633D01*
X172899294Y-101333633D01*
G37*
G36*
X170359294Y-100063633D02*
G01*
X170531695Y-100115931D01*
X170690583Y-100200858D01*
X170829849Y-100315151D01*
X170944142Y-100454417D01*
X171029069Y-100613305D01*
X171081367Y-100785706D01*
X171099025Y-100965000D01*
X171081367Y-101144294D01*
X171029069Y-101316695D01*
X170944142Y-101475583D01*
X170829849Y-101614849D01*
X170690583Y-101729142D01*
X170531695Y-101814069D01*
X170359294Y-101866367D01*
X170224931Y-101879600D01*
X170135069Y-101879600D01*
X170000706Y-101866367D01*
X169828305Y-101814069D01*
X169669417Y-101729142D01*
X169530151Y-101614849D01*
X169415858Y-101475583D01*
X169330931Y-101316695D01*
X169278633Y-101144294D01*
X169260975Y-100965000D01*
X169278633Y-100785706D01*
X169330931Y-100613305D01*
X169415858Y-100454417D01*
X169530151Y-100315151D01*
X169669417Y-100200858D01*
X169828305Y-100115931D01*
X170000706Y-100063633D01*
X170135069Y-100050400D01*
X170224931Y-100050400D01*
X170359294Y-100063633D01*
X170359294Y-100063633D01*
G37*
G36*
X175439294Y-100063633D02*
G01*
X175611695Y-100115931D01*
X175770583Y-100200858D01*
X175909849Y-100315151D01*
X176024142Y-100454417D01*
X176109069Y-100613305D01*
X176161367Y-100785706D01*
X176179025Y-100965000D01*
X176161367Y-101144294D01*
X176109069Y-101316695D01*
X176024142Y-101475583D01*
X175909849Y-101614849D01*
X175770583Y-101729142D01*
X175611695Y-101814069D01*
X175439294Y-101866367D01*
X175304931Y-101879600D01*
X175215069Y-101879600D01*
X175080706Y-101866367D01*
X174908305Y-101814069D01*
X174749417Y-101729142D01*
X174610151Y-101614849D01*
X174495858Y-101475583D01*
X174410931Y-101316695D01*
X174358633Y-101144294D01*
X174340975Y-100965000D01*
X174358633Y-100785706D01*
X174410931Y-100613305D01*
X174495858Y-100454417D01*
X174610151Y-100315151D01*
X174749417Y-100200858D01*
X174908305Y-100115931D01*
X175080706Y-100063633D01*
X175215069Y-100050400D01*
X175304931Y-100050400D01*
X175439294Y-100063633D01*
X175439294Y-100063633D01*
G37*
G36*
X177979294Y-98793633D02*
G01*
X178151695Y-98845931D01*
X178310583Y-98930858D01*
X178449849Y-99045151D01*
X178564142Y-99184417D01*
X178649069Y-99343305D01*
X178701367Y-99515706D01*
X178719025Y-99695000D01*
X178701367Y-99874294D01*
X178649069Y-100046695D01*
X178564142Y-100205583D01*
X178449849Y-100344849D01*
X178310583Y-100459142D01*
X178151695Y-100544069D01*
X177979294Y-100596367D01*
X177844931Y-100609600D01*
X177755069Y-100609600D01*
X177620706Y-100596367D01*
X177448305Y-100544069D01*
X177289417Y-100459142D01*
X177150151Y-100344849D01*
X177035858Y-100205583D01*
X176950931Y-100046695D01*
X176898633Y-99874294D01*
X176880975Y-99695000D01*
X176898633Y-99515706D01*
X176950931Y-99343305D01*
X177035858Y-99184417D01*
X177150151Y-99045151D01*
X177289417Y-98930858D01*
X177448305Y-98845931D01*
X177620706Y-98793633D01*
X177755069Y-98780400D01*
X177844931Y-98780400D01*
X177979294Y-98793633D01*
X177979294Y-98793633D01*
G37*
G36*
X172899294Y-98793633D02*
G01*
X173071695Y-98845931D01*
X173230583Y-98930858D01*
X173369849Y-99045151D01*
X173484142Y-99184417D01*
X173569069Y-99343305D01*
X173621367Y-99515706D01*
X173639025Y-99695000D01*
X173621367Y-99874294D01*
X173569069Y-100046695D01*
X173484142Y-100205583D01*
X173369849Y-100344849D01*
X173230583Y-100459142D01*
X173071695Y-100544069D01*
X172899294Y-100596367D01*
X172764931Y-100609600D01*
X172675069Y-100609600D01*
X172540706Y-100596367D01*
X172368305Y-100544069D01*
X172209417Y-100459142D01*
X172070151Y-100344849D01*
X171955858Y-100205583D01*
X171870931Y-100046695D01*
X171818633Y-99874294D01*
X171800975Y-99695000D01*
X171818633Y-99515706D01*
X171870931Y-99343305D01*
X171955858Y-99184417D01*
X172070151Y-99045151D01*
X172209417Y-98930858D01*
X172368305Y-98845931D01*
X172540706Y-98793633D01*
X172675069Y-98780400D01*
X172764931Y-98780400D01*
X172899294Y-98793633D01*
X172899294Y-98793633D01*
G37*
G36*
X170359294Y-97523633D02*
G01*
X170531695Y-97575931D01*
X170690583Y-97660858D01*
X170829849Y-97775151D01*
X170944142Y-97914417D01*
X171029069Y-98073305D01*
X171081367Y-98245706D01*
X171099025Y-98425000D01*
X171081367Y-98604294D01*
X171029069Y-98776695D01*
X170944142Y-98935583D01*
X170829849Y-99074849D01*
X170690583Y-99189142D01*
X170531695Y-99274069D01*
X170359294Y-99326367D01*
X170224931Y-99339600D01*
X170135069Y-99339600D01*
X170000706Y-99326367D01*
X169828305Y-99274069D01*
X169669417Y-99189142D01*
X169530151Y-99074849D01*
X169415858Y-98935583D01*
X169330931Y-98776695D01*
X169278633Y-98604294D01*
X169260975Y-98425000D01*
X169278633Y-98245706D01*
X169330931Y-98073305D01*
X169415858Y-97914417D01*
X169530151Y-97775151D01*
X169669417Y-97660858D01*
X169828305Y-97575931D01*
X170000706Y-97523633D01*
X170135069Y-97510400D01*
X170224931Y-97510400D01*
X170359294Y-97523633D01*
X170359294Y-97523633D01*
G37*
G36*
X175439294Y-97523633D02*
G01*
X175611695Y-97575931D01*
X175770583Y-97660858D01*
X175909849Y-97775151D01*
X176024142Y-97914417D01*
X176109069Y-98073305D01*
X176161367Y-98245706D01*
X176179025Y-98425000D01*
X176161367Y-98604294D01*
X176109069Y-98776695D01*
X176024142Y-98935583D01*
X175909849Y-99074849D01*
X175770583Y-99189142D01*
X175611695Y-99274069D01*
X175439294Y-99326367D01*
X175304931Y-99339600D01*
X175215069Y-99339600D01*
X175080706Y-99326367D01*
X174908305Y-99274069D01*
X174749417Y-99189142D01*
X174610151Y-99074849D01*
X174495858Y-98935583D01*
X174410931Y-98776695D01*
X174358633Y-98604294D01*
X174340975Y-98425000D01*
X174358633Y-98245706D01*
X174410931Y-98073305D01*
X174495858Y-97914417D01*
X174610151Y-97775151D01*
X174749417Y-97660858D01*
X174908305Y-97575931D01*
X175080706Y-97523633D01*
X175215069Y-97510400D01*
X175304931Y-97510400D01*
X175439294Y-97523633D01*
X175439294Y-97523633D01*
G37*
G36*
X172899294Y-96253633D02*
G01*
X173071695Y-96305931D01*
X173230583Y-96390858D01*
X173369849Y-96505151D01*
X173484142Y-96644417D01*
X173569069Y-96803305D01*
X173621367Y-96975706D01*
X173639025Y-97155000D01*
X173621367Y-97334294D01*
X173569069Y-97506695D01*
X173484142Y-97665583D01*
X173369849Y-97804849D01*
X173230583Y-97919142D01*
X173071695Y-98004069D01*
X172899294Y-98056367D01*
X172764931Y-98069600D01*
X172675069Y-98069600D01*
X172540706Y-98056367D01*
X172368305Y-98004069D01*
X172209417Y-97919142D01*
X172070151Y-97804849D01*
X171955858Y-97665583D01*
X171870931Y-97506695D01*
X171818633Y-97334294D01*
X171800975Y-97155000D01*
X171818633Y-96975706D01*
X171870931Y-96803305D01*
X171955858Y-96644417D01*
X172070151Y-96505151D01*
X172209417Y-96390858D01*
X172368305Y-96305931D01*
X172540706Y-96253633D01*
X172675069Y-96240400D01*
X172764931Y-96240400D01*
X172899294Y-96253633D01*
X172899294Y-96253633D01*
G37*
G36*
X177979294Y-96253633D02*
G01*
X178151695Y-96305931D01*
X178310583Y-96390858D01*
X178449849Y-96505151D01*
X178564142Y-96644417D01*
X178649069Y-96803305D01*
X178701367Y-96975706D01*
X178719025Y-97155000D01*
X178701367Y-97334294D01*
X178649069Y-97506695D01*
X178564142Y-97665583D01*
X178449849Y-97804849D01*
X178310583Y-97919142D01*
X178151695Y-98004069D01*
X177979294Y-98056367D01*
X177844931Y-98069600D01*
X177755069Y-98069600D01*
X177620706Y-98056367D01*
X177448305Y-98004069D01*
X177289417Y-97919142D01*
X177150151Y-97804849D01*
X177035858Y-97665583D01*
X176950931Y-97506695D01*
X176898633Y-97334294D01*
X176880975Y-97155000D01*
X176898633Y-96975706D01*
X176950931Y-96803305D01*
X177035858Y-96644417D01*
X177150151Y-96505151D01*
X177289417Y-96390858D01*
X177448305Y-96305931D01*
X177620706Y-96253633D01*
X177755069Y-96240400D01*
X177844931Y-96240400D01*
X177979294Y-96253633D01*
X177979294Y-96253633D01*
G37*
G36*
X170359294Y-94983633D02*
G01*
X170531695Y-95035931D01*
X170690583Y-95120858D01*
X170829849Y-95235151D01*
X170944142Y-95374417D01*
X171029069Y-95533305D01*
X171081367Y-95705706D01*
X171099025Y-95885000D01*
X171081367Y-96064294D01*
X171029069Y-96236695D01*
X170944142Y-96395583D01*
X170829849Y-96534849D01*
X170690583Y-96649142D01*
X170531695Y-96734069D01*
X170359294Y-96786367D01*
X170224931Y-96799600D01*
X170135069Y-96799600D01*
X170000706Y-96786367D01*
X169828305Y-96734069D01*
X169669417Y-96649142D01*
X169530151Y-96534849D01*
X169415858Y-96395583D01*
X169330931Y-96236695D01*
X169278633Y-96064294D01*
X169260975Y-95885000D01*
X169278633Y-95705706D01*
X169330931Y-95533305D01*
X169415858Y-95374417D01*
X169530151Y-95235151D01*
X169669417Y-95120858D01*
X169828305Y-95035931D01*
X170000706Y-94983633D01*
X170135069Y-94970400D01*
X170224931Y-94970400D01*
X170359294Y-94983633D01*
X170359294Y-94983633D01*
G37*
G36*
X175439294Y-94983633D02*
G01*
X175611695Y-95035931D01*
X175770583Y-95120858D01*
X175909849Y-95235151D01*
X176024142Y-95374417D01*
X176109069Y-95533305D01*
X176161367Y-95705706D01*
X176179025Y-95885000D01*
X176161367Y-96064294D01*
X176109069Y-96236695D01*
X176024142Y-96395583D01*
X175909849Y-96534849D01*
X175770583Y-96649142D01*
X175611695Y-96734069D01*
X175439294Y-96786367D01*
X175304931Y-96799600D01*
X175215069Y-96799600D01*
X175080706Y-96786367D01*
X174908305Y-96734069D01*
X174749417Y-96649142D01*
X174610151Y-96534849D01*
X174495858Y-96395583D01*
X174410931Y-96236695D01*
X174358633Y-96064294D01*
X174340975Y-95885000D01*
X174358633Y-95705706D01*
X174410931Y-95533305D01*
X174495858Y-95374417D01*
X174610151Y-95235151D01*
X174749417Y-95120858D01*
X174908305Y-95035931D01*
X175080706Y-94983633D01*
X175215069Y-94970400D01*
X175304931Y-94970400D01*
X175439294Y-94983633D01*
X175439294Y-94983633D01*
G37*
G36*
X177979294Y-93713633D02*
G01*
X178151695Y-93765931D01*
X178310583Y-93850858D01*
X178449849Y-93965151D01*
X178564142Y-94104417D01*
X178649069Y-94263305D01*
X178701367Y-94435706D01*
X178719025Y-94615000D01*
X178701367Y-94794294D01*
X178649069Y-94966695D01*
X178564142Y-95125583D01*
X178449849Y-95264849D01*
X178310583Y-95379142D01*
X178151695Y-95464069D01*
X177979294Y-95516367D01*
X177844931Y-95529600D01*
X177755069Y-95529600D01*
X177620706Y-95516367D01*
X177448305Y-95464069D01*
X177289417Y-95379142D01*
X177150151Y-95264849D01*
X177035858Y-95125583D01*
X176950931Y-94966695D01*
X176898633Y-94794294D01*
X176880975Y-94615000D01*
X176898633Y-94435706D01*
X176950931Y-94263305D01*
X177035858Y-94104417D01*
X177150151Y-93965151D01*
X177289417Y-93850858D01*
X177448305Y-93765931D01*
X177620706Y-93713633D01*
X177755069Y-93700400D01*
X177844931Y-93700400D01*
X177979294Y-93713633D01*
X177979294Y-93713633D01*
G37*
G36*
X172899294Y-93713633D02*
G01*
X173071695Y-93765931D01*
X173230583Y-93850858D01*
X173369849Y-93965151D01*
X173484142Y-94104417D01*
X173569069Y-94263305D01*
X173621367Y-94435706D01*
X173639025Y-94615000D01*
X173621367Y-94794294D01*
X173569069Y-94966695D01*
X173484142Y-95125583D01*
X173369849Y-95264849D01*
X173230583Y-95379142D01*
X173071695Y-95464069D01*
X172899294Y-95516367D01*
X172764931Y-95529600D01*
X172675069Y-95529600D01*
X172540706Y-95516367D01*
X172368305Y-95464069D01*
X172209417Y-95379142D01*
X172070151Y-95264849D01*
X171955858Y-95125583D01*
X171870931Y-94966695D01*
X171818633Y-94794294D01*
X171800975Y-94615000D01*
X171818633Y-94435706D01*
X171870931Y-94263305D01*
X171955858Y-94104417D01*
X172070151Y-93965151D01*
X172209417Y-93850858D01*
X172368305Y-93765931D01*
X172540706Y-93713633D01*
X172675069Y-93700400D01*
X172764931Y-93700400D01*
X172899294Y-93713633D01*
X172899294Y-93713633D01*
G37*
G36*
X175439294Y-92443633D02*
G01*
X175611695Y-92495931D01*
X175770583Y-92580858D01*
X175909849Y-92695151D01*
X176024142Y-92834417D01*
X176109069Y-92993305D01*
X176161367Y-93165706D01*
X176179025Y-93345000D01*
X176161367Y-93524294D01*
X176109069Y-93696695D01*
X176024142Y-93855583D01*
X175909849Y-93994849D01*
X175770583Y-94109142D01*
X175611695Y-94194069D01*
X175439294Y-94246367D01*
X175304931Y-94259600D01*
X175215069Y-94259600D01*
X175080706Y-94246367D01*
X174908305Y-94194069D01*
X174749417Y-94109142D01*
X174610151Y-93994849D01*
X174495858Y-93855583D01*
X174410931Y-93696695D01*
X174358633Y-93524294D01*
X174340975Y-93345000D01*
X174358633Y-93165706D01*
X174410931Y-92993305D01*
X174495858Y-92834417D01*
X174610151Y-92695151D01*
X174749417Y-92580858D01*
X174908305Y-92495931D01*
X175080706Y-92443633D01*
X175215069Y-92430400D01*
X175304931Y-92430400D01*
X175439294Y-92443633D01*
X175439294Y-92443633D01*
G37*
G36*
X170359294Y-92443633D02*
G01*
X170531695Y-92495931D01*
X170690583Y-92580858D01*
X170829849Y-92695151D01*
X170944142Y-92834417D01*
X171029069Y-92993305D01*
X171081367Y-93165706D01*
X171099025Y-93345000D01*
X171081367Y-93524294D01*
X171029069Y-93696695D01*
X170944142Y-93855583D01*
X170829849Y-93994849D01*
X170690583Y-94109142D01*
X170531695Y-94194069D01*
X170359294Y-94246367D01*
X170224931Y-94259600D01*
X170135069Y-94259600D01*
X170000706Y-94246367D01*
X169828305Y-94194069D01*
X169669417Y-94109142D01*
X169530151Y-93994849D01*
X169415858Y-93855583D01*
X169330931Y-93696695D01*
X169278633Y-93524294D01*
X169260975Y-93345000D01*
X169278633Y-93165706D01*
X169330931Y-92993305D01*
X169415858Y-92834417D01*
X169530151Y-92695151D01*
X169669417Y-92580858D01*
X169828305Y-92495931D01*
X170000706Y-92443633D01*
X170135069Y-92430400D01*
X170224931Y-92430400D01*
X170359294Y-92443633D01*
X170359294Y-92443633D01*
G37*
G36*
X172899294Y-91173633D02*
G01*
X173071695Y-91225931D01*
X173230583Y-91310858D01*
X173369849Y-91425151D01*
X173484142Y-91564417D01*
X173569069Y-91723305D01*
X173621367Y-91895706D01*
X173639025Y-92075000D01*
X173621367Y-92254294D01*
X173569069Y-92426695D01*
X173484142Y-92585583D01*
X173369849Y-92724849D01*
X173230583Y-92839142D01*
X173071695Y-92924069D01*
X172899294Y-92976367D01*
X172764931Y-92989600D01*
X172675069Y-92989600D01*
X172540706Y-92976367D01*
X172368305Y-92924069D01*
X172209417Y-92839142D01*
X172070151Y-92724849D01*
X171955858Y-92585583D01*
X171870931Y-92426695D01*
X171818633Y-92254294D01*
X171800975Y-92075000D01*
X171818633Y-91895706D01*
X171870931Y-91723305D01*
X171955858Y-91564417D01*
X172070151Y-91425151D01*
X172209417Y-91310858D01*
X172368305Y-91225931D01*
X172540706Y-91173633D01*
X172675069Y-91160400D01*
X172764931Y-91160400D01*
X172899294Y-91173633D01*
X172899294Y-91173633D01*
G37*
G36*
X177979294Y-91173633D02*
G01*
X178151695Y-91225931D01*
X178310583Y-91310858D01*
X178449849Y-91425151D01*
X178564142Y-91564417D01*
X178649069Y-91723305D01*
X178701367Y-91895706D01*
X178719025Y-92075000D01*
X178701367Y-92254294D01*
X178649069Y-92426695D01*
X178564142Y-92585583D01*
X178449849Y-92724849D01*
X178310583Y-92839142D01*
X178151695Y-92924069D01*
X177979294Y-92976367D01*
X177844931Y-92989600D01*
X177755069Y-92989600D01*
X177620706Y-92976367D01*
X177448305Y-92924069D01*
X177289417Y-92839142D01*
X177150151Y-92724849D01*
X177035858Y-92585583D01*
X176950931Y-92426695D01*
X176898633Y-92254294D01*
X176880975Y-92075000D01*
X176898633Y-91895706D01*
X176950931Y-91723305D01*
X177035858Y-91564417D01*
X177150151Y-91425151D01*
X177289417Y-91310858D01*
X177448305Y-91225931D01*
X177620706Y-91173633D01*
X177755069Y-91160400D01*
X177844931Y-91160400D01*
X177979294Y-91173633D01*
X177979294Y-91173633D01*
G37*
G36*
X170359294Y-89903633D02*
G01*
X170531695Y-89955931D01*
X170690583Y-90040858D01*
X170829849Y-90155151D01*
X170944142Y-90294417D01*
X171029069Y-90453305D01*
X171081367Y-90625706D01*
X171099025Y-90805000D01*
X171081367Y-90984294D01*
X171029069Y-91156695D01*
X170944142Y-91315583D01*
X170829849Y-91454849D01*
X170690583Y-91569142D01*
X170531695Y-91654069D01*
X170359294Y-91706367D01*
X170224931Y-91719600D01*
X170135069Y-91719600D01*
X170000706Y-91706367D01*
X169828305Y-91654069D01*
X169669417Y-91569142D01*
X169530151Y-91454849D01*
X169415858Y-91315583D01*
X169330931Y-91156695D01*
X169278633Y-90984294D01*
X169260975Y-90805000D01*
X169278633Y-90625706D01*
X169330931Y-90453305D01*
X169415858Y-90294417D01*
X169530151Y-90155151D01*
X169669417Y-90040858D01*
X169828305Y-89955931D01*
X170000706Y-89903633D01*
X170135069Y-89890400D01*
X170224931Y-89890400D01*
X170359294Y-89903633D01*
X170359294Y-89903633D01*
G37*
G36*
X175439294Y-89903633D02*
G01*
X175611695Y-89955931D01*
X175770583Y-90040858D01*
X175909849Y-90155151D01*
X176024142Y-90294417D01*
X176109069Y-90453305D01*
X176161367Y-90625706D01*
X176179025Y-90805000D01*
X176161367Y-90984294D01*
X176109069Y-91156695D01*
X176024142Y-91315583D01*
X175909849Y-91454849D01*
X175770583Y-91569142D01*
X175611695Y-91654069D01*
X175439294Y-91706367D01*
X175304931Y-91719600D01*
X175215069Y-91719600D01*
X175080706Y-91706367D01*
X174908305Y-91654069D01*
X174749417Y-91569142D01*
X174610151Y-91454849D01*
X174495858Y-91315583D01*
X174410931Y-91156695D01*
X174358633Y-90984294D01*
X174340975Y-90805000D01*
X174358633Y-90625706D01*
X174410931Y-90453305D01*
X174495858Y-90294417D01*
X174610151Y-90155151D01*
X174749417Y-90040858D01*
X174908305Y-89955931D01*
X175080706Y-89903633D01*
X175215069Y-89890400D01*
X175304931Y-89890400D01*
X175439294Y-89903633D01*
X175439294Y-89903633D01*
G37*
G36*
X172899294Y-88633633D02*
G01*
X173071695Y-88685931D01*
X173230583Y-88770858D01*
X173369849Y-88885151D01*
X173484142Y-89024417D01*
X173569069Y-89183305D01*
X173621367Y-89355706D01*
X173639025Y-89535000D01*
X173621367Y-89714294D01*
X173569069Y-89886695D01*
X173484142Y-90045583D01*
X173369849Y-90184849D01*
X173230583Y-90299142D01*
X173071695Y-90384069D01*
X172899294Y-90436367D01*
X172764931Y-90449600D01*
X172675069Y-90449600D01*
X172540706Y-90436367D01*
X172368305Y-90384069D01*
X172209417Y-90299142D01*
X172070151Y-90184849D01*
X171955858Y-90045583D01*
X171870931Y-89886695D01*
X171818633Y-89714294D01*
X171800975Y-89535000D01*
X171818633Y-89355706D01*
X171870931Y-89183305D01*
X171955858Y-89024417D01*
X172070151Y-88885151D01*
X172209417Y-88770858D01*
X172368305Y-88685931D01*
X172540706Y-88633633D01*
X172675069Y-88620400D01*
X172764931Y-88620400D01*
X172899294Y-88633633D01*
X172899294Y-88633633D01*
G37*
G36*
X177979294Y-88633633D02*
G01*
X178151695Y-88685931D01*
X178310583Y-88770858D01*
X178449849Y-88885151D01*
X178564142Y-89024417D01*
X178649069Y-89183305D01*
X178701367Y-89355706D01*
X178719025Y-89535000D01*
X178701367Y-89714294D01*
X178649069Y-89886695D01*
X178564142Y-90045583D01*
X178449849Y-90184849D01*
X178310583Y-90299142D01*
X178151695Y-90384069D01*
X177979294Y-90436367D01*
X177844931Y-90449600D01*
X177755069Y-90449600D01*
X177620706Y-90436367D01*
X177448305Y-90384069D01*
X177289417Y-90299142D01*
X177150151Y-90184849D01*
X177035858Y-90045583D01*
X176950931Y-89886695D01*
X176898633Y-89714294D01*
X176880975Y-89535000D01*
X176898633Y-89355706D01*
X176950931Y-89183305D01*
X177035858Y-89024417D01*
X177150151Y-88885151D01*
X177289417Y-88770858D01*
X177448305Y-88685931D01*
X177620706Y-88633633D01*
X177755069Y-88620400D01*
X177844931Y-88620400D01*
X177979294Y-88633633D01*
X177979294Y-88633633D01*
G37*
G36*
X175439294Y-87363633D02*
G01*
X175611695Y-87415931D01*
X175770583Y-87500858D01*
X175909849Y-87615151D01*
X176024142Y-87754417D01*
X176109069Y-87913305D01*
X176161367Y-88085706D01*
X176179025Y-88265000D01*
X176161367Y-88444294D01*
X176109069Y-88616695D01*
X176024142Y-88775583D01*
X175909849Y-88914849D01*
X175770583Y-89029142D01*
X175611695Y-89114069D01*
X175439294Y-89166367D01*
X175304931Y-89179600D01*
X175215069Y-89179600D01*
X175080706Y-89166367D01*
X174908305Y-89114069D01*
X174749417Y-89029142D01*
X174610151Y-88914849D01*
X174495858Y-88775583D01*
X174410931Y-88616695D01*
X174358633Y-88444294D01*
X174340975Y-88265000D01*
X174358633Y-88085706D01*
X174410931Y-87913305D01*
X174495858Y-87754417D01*
X174610151Y-87615151D01*
X174749417Y-87500858D01*
X174908305Y-87415931D01*
X175080706Y-87363633D01*
X175215069Y-87350400D01*
X175304931Y-87350400D01*
X175439294Y-87363633D01*
X175439294Y-87363633D01*
G37*
G36*
X170359294Y-87363633D02*
G01*
X170531695Y-87415931D01*
X170690583Y-87500858D01*
X170829849Y-87615151D01*
X170944142Y-87754417D01*
X171029069Y-87913305D01*
X171081367Y-88085706D01*
X171099025Y-88265000D01*
X171081367Y-88444294D01*
X171029069Y-88616695D01*
X170944142Y-88775583D01*
X170829849Y-88914849D01*
X170690583Y-89029142D01*
X170531695Y-89114069D01*
X170359294Y-89166367D01*
X170224931Y-89179600D01*
X170135069Y-89179600D01*
X170000706Y-89166367D01*
X169828305Y-89114069D01*
X169669417Y-89029142D01*
X169530151Y-88914849D01*
X169415858Y-88775583D01*
X169330931Y-88616695D01*
X169278633Y-88444294D01*
X169260975Y-88265000D01*
X169278633Y-88085706D01*
X169330931Y-87913305D01*
X169415858Y-87754417D01*
X169530151Y-87615151D01*
X169669417Y-87500858D01*
X169828305Y-87415931D01*
X170000706Y-87363633D01*
X170135069Y-87350400D01*
X170224931Y-87350400D01*
X170359294Y-87363633D01*
X170359294Y-87363633D01*
G37*
G36*
X127166823Y-86791313D02*
G01*
X127327242Y-86839976D01*
X127459906Y-86910886D01*
X127475078Y-86918996D01*
X127604659Y-87025341D01*
X127711004Y-87154922D01*
X127711005Y-87154924D01*
X127790024Y-87302758D01*
X127838687Y-87463177D01*
X127855117Y-87630000D01*
X127838687Y-87796823D01*
X127790024Y-87957242D01*
X127721358Y-88085706D01*
X127711004Y-88105078D01*
X127604659Y-88234659D01*
X127475078Y-88341004D01*
X127475076Y-88341005D01*
X127327242Y-88420024D01*
X127166823Y-88468687D01*
X127041804Y-88481000D01*
X126958196Y-88481000D01*
X126833177Y-88468687D01*
X126672758Y-88420024D01*
X126524924Y-88341005D01*
X126524922Y-88341004D01*
X126395341Y-88234659D01*
X126288996Y-88105078D01*
X126278642Y-88085706D01*
X126209976Y-87957242D01*
X126161313Y-87796823D01*
X126144883Y-87630000D01*
X126161313Y-87463177D01*
X126209976Y-87302758D01*
X126288995Y-87154924D01*
X126288996Y-87154922D01*
X126395341Y-87025341D01*
X126524922Y-86918996D01*
X126540094Y-86910886D01*
X126672758Y-86839976D01*
X126833177Y-86791313D01*
X126958196Y-86779000D01*
X127041804Y-86779000D01*
X127166823Y-86791313D01*
X127166823Y-86791313D01*
G37*
G36*
X137326823Y-86791313D02*
G01*
X137487242Y-86839976D01*
X137619906Y-86910886D01*
X137635078Y-86918996D01*
X137764659Y-87025341D01*
X137871004Y-87154922D01*
X137871005Y-87154924D01*
X137950024Y-87302758D01*
X137998687Y-87463177D01*
X138015117Y-87630000D01*
X137998687Y-87796823D01*
X137950024Y-87957242D01*
X137881358Y-88085706D01*
X137871004Y-88105078D01*
X137764659Y-88234659D01*
X137635078Y-88341004D01*
X137635076Y-88341005D01*
X137487242Y-88420024D01*
X137326823Y-88468687D01*
X137201804Y-88481000D01*
X137118196Y-88481000D01*
X136993177Y-88468687D01*
X136832758Y-88420024D01*
X136684924Y-88341005D01*
X136684922Y-88341004D01*
X136555341Y-88234659D01*
X136448996Y-88105078D01*
X136438642Y-88085706D01*
X136369976Y-87957242D01*
X136321313Y-87796823D01*
X136304883Y-87630000D01*
X136321313Y-87463177D01*
X136369976Y-87302758D01*
X136448995Y-87154924D01*
X136448996Y-87154922D01*
X136555341Y-87025341D01*
X136684922Y-86918996D01*
X136700094Y-86910886D01*
X136832758Y-86839976D01*
X136993177Y-86791313D01*
X137118196Y-86779000D01*
X137201804Y-86779000D01*
X137326823Y-86791313D01*
X137326823Y-86791313D01*
G37*
G36*
X139866823Y-86791313D02*
G01*
X140027242Y-86839976D01*
X140159906Y-86910886D01*
X140175078Y-86918996D01*
X140304659Y-87025341D01*
X140411004Y-87154922D01*
X140411005Y-87154924D01*
X140490024Y-87302758D01*
X140538687Y-87463177D01*
X140555117Y-87630000D01*
X140538687Y-87796823D01*
X140490024Y-87957242D01*
X140421358Y-88085706D01*
X140411004Y-88105078D01*
X140304659Y-88234659D01*
X140175078Y-88341004D01*
X140175076Y-88341005D01*
X140027242Y-88420024D01*
X139866823Y-88468687D01*
X139741804Y-88481000D01*
X139658196Y-88481000D01*
X139533177Y-88468687D01*
X139372758Y-88420024D01*
X139224924Y-88341005D01*
X139224922Y-88341004D01*
X139095341Y-88234659D01*
X138988996Y-88105078D01*
X138978642Y-88085706D01*
X138909976Y-87957242D01*
X138861313Y-87796823D01*
X138844883Y-87630000D01*
X138861313Y-87463177D01*
X138909976Y-87302758D01*
X138988995Y-87154924D01*
X138988996Y-87154922D01*
X139095341Y-87025341D01*
X139224922Y-86918996D01*
X139240094Y-86910886D01*
X139372758Y-86839976D01*
X139533177Y-86791313D01*
X139658196Y-86779000D01*
X139741804Y-86779000D01*
X139866823Y-86791313D01*
X139866823Y-86791313D01*
G37*
G36*
X134786823Y-86791313D02*
G01*
X134947242Y-86839976D01*
X135079906Y-86910886D01*
X135095078Y-86918996D01*
X135224659Y-87025341D01*
X135331004Y-87154922D01*
X135331005Y-87154924D01*
X135410024Y-87302758D01*
X135458687Y-87463177D01*
X135475117Y-87630000D01*
X135458687Y-87796823D01*
X135410024Y-87957242D01*
X135341358Y-88085706D01*
X135331004Y-88105078D01*
X135224659Y-88234659D01*
X135095078Y-88341004D01*
X135095076Y-88341005D01*
X134947242Y-88420024D01*
X134786823Y-88468687D01*
X134661804Y-88481000D01*
X134578196Y-88481000D01*
X134453177Y-88468687D01*
X134292758Y-88420024D01*
X134144924Y-88341005D01*
X134144922Y-88341004D01*
X134015341Y-88234659D01*
X133908996Y-88105078D01*
X133898642Y-88085706D01*
X133829976Y-87957242D01*
X133781313Y-87796823D01*
X133764883Y-87630000D01*
X133781313Y-87463177D01*
X133829976Y-87302758D01*
X133908995Y-87154924D01*
X133908996Y-87154922D01*
X134015341Y-87025341D01*
X134144922Y-86918996D01*
X134160094Y-86910886D01*
X134292758Y-86839976D01*
X134453177Y-86791313D01*
X134578196Y-86779000D01*
X134661804Y-86779000D01*
X134786823Y-86791313D01*
X134786823Y-86791313D01*
G37*
G36*
X132246823Y-86791313D02*
G01*
X132407242Y-86839976D01*
X132539906Y-86910886D01*
X132555078Y-86918996D01*
X132684659Y-87025341D01*
X132791004Y-87154922D01*
X132791005Y-87154924D01*
X132870024Y-87302758D01*
X132918687Y-87463177D01*
X132935117Y-87630000D01*
X132918687Y-87796823D01*
X132870024Y-87957242D01*
X132801358Y-88085706D01*
X132791004Y-88105078D01*
X132684659Y-88234659D01*
X132555078Y-88341004D01*
X132555076Y-88341005D01*
X132407242Y-88420024D01*
X132246823Y-88468687D01*
X132121804Y-88481000D01*
X132038196Y-88481000D01*
X131913177Y-88468687D01*
X131752758Y-88420024D01*
X131604924Y-88341005D01*
X131604922Y-88341004D01*
X131475341Y-88234659D01*
X131368996Y-88105078D01*
X131358642Y-88085706D01*
X131289976Y-87957242D01*
X131241313Y-87796823D01*
X131224883Y-87630000D01*
X131241313Y-87463177D01*
X131289976Y-87302758D01*
X131368995Y-87154924D01*
X131368996Y-87154922D01*
X131475341Y-87025341D01*
X131604922Y-86918996D01*
X131620094Y-86910886D01*
X131752758Y-86839976D01*
X131913177Y-86791313D01*
X132038196Y-86779000D01*
X132121804Y-86779000D01*
X132246823Y-86791313D01*
X132246823Y-86791313D01*
G37*
G36*
X129706823Y-86791313D02*
G01*
X129867242Y-86839976D01*
X129999906Y-86910886D01*
X130015078Y-86918996D01*
X130144659Y-87025341D01*
X130251004Y-87154922D01*
X130251005Y-87154924D01*
X130330024Y-87302758D01*
X130378687Y-87463177D01*
X130395117Y-87630000D01*
X130378687Y-87796823D01*
X130330024Y-87957242D01*
X130261358Y-88085706D01*
X130251004Y-88105078D01*
X130144659Y-88234659D01*
X130015078Y-88341004D01*
X130015076Y-88341005D01*
X129867242Y-88420024D01*
X129706823Y-88468687D01*
X129581804Y-88481000D01*
X129498196Y-88481000D01*
X129373177Y-88468687D01*
X129212758Y-88420024D01*
X129064924Y-88341005D01*
X129064922Y-88341004D01*
X128935341Y-88234659D01*
X128828996Y-88105078D01*
X128818642Y-88085706D01*
X128749976Y-87957242D01*
X128701313Y-87796823D01*
X128684883Y-87630000D01*
X128701313Y-87463177D01*
X128749976Y-87302758D01*
X128828995Y-87154924D01*
X128828996Y-87154922D01*
X128935341Y-87025341D01*
X129064922Y-86918996D01*
X129080094Y-86910886D01*
X129212758Y-86839976D01*
X129373177Y-86791313D01*
X129498196Y-86779000D01*
X129581804Y-86779000D01*
X129706823Y-86791313D01*
X129706823Y-86791313D01*
G37*
G36*
X124626823Y-86791313D02*
G01*
X124787242Y-86839976D01*
X124919906Y-86910886D01*
X124935078Y-86918996D01*
X125064659Y-87025341D01*
X125171004Y-87154922D01*
X125171005Y-87154924D01*
X125250024Y-87302758D01*
X125298687Y-87463177D01*
X125315117Y-87630000D01*
X125298687Y-87796823D01*
X125250024Y-87957242D01*
X125181358Y-88085706D01*
X125171004Y-88105078D01*
X125064659Y-88234659D01*
X124935078Y-88341004D01*
X124935076Y-88341005D01*
X124787242Y-88420024D01*
X124626823Y-88468687D01*
X124501804Y-88481000D01*
X124418196Y-88481000D01*
X124293177Y-88468687D01*
X124132758Y-88420024D01*
X123984924Y-88341005D01*
X123984922Y-88341004D01*
X123855341Y-88234659D01*
X123748996Y-88105078D01*
X123738642Y-88085706D01*
X123669976Y-87957242D01*
X123621313Y-87796823D01*
X123604883Y-87630000D01*
X123621313Y-87463177D01*
X123669976Y-87302758D01*
X123748995Y-87154924D01*
X123748996Y-87154922D01*
X123855341Y-87025341D01*
X123984922Y-86918996D01*
X124000094Y-86910886D01*
X124132758Y-86839976D01*
X124293177Y-86791313D01*
X124418196Y-86779000D01*
X124501804Y-86779000D01*
X124626823Y-86791313D01*
X124626823Y-86791313D01*
G37*
G36*
X122086823Y-86791313D02*
G01*
X122247242Y-86839976D01*
X122379906Y-86910886D01*
X122395078Y-86918996D01*
X122524659Y-87025341D01*
X122631004Y-87154922D01*
X122631005Y-87154924D01*
X122710024Y-87302758D01*
X122758687Y-87463177D01*
X122775117Y-87630000D01*
X122758687Y-87796823D01*
X122710024Y-87957242D01*
X122641358Y-88085706D01*
X122631004Y-88105078D01*
X122524659Y-88234659D01*
X122395078Y-88341004D01*
X122395076Y-88341005D01*
X122247242Y-88420024D01*
X122086823Y-88468687D01*
X121961804Y-88481000D01*
X121878196Y-88481000D01*
X121753177Y-88468687D01*
X121592758Y-88420024D01*
X121444924Y-88341005D01*
X121444922Y-88341004D01*
X121315341Y-88234659D01*
X121208996Y-88105078D01*
X121198642Y-88085706D01*
X121129976Y-87957242D01*
X121081313Y-87796823D01*
X121064883Y-87630000D01*
X121081313Y-87463177D01*
X121129976Y-87302758D01*
X121208995Y-87154924D01*
X121208996Y-87154922D01*
X121315341Y-87025341D01*
X121444922Y-86918996D01*
X121460094Y-86910886D01*
X121592758Y-86839976D01*
X121753177Y-86791313D01*
X121878196Y-86779000D01*
X121961804Y-86779000D01*
X122086823Y-86791313D01*
X122086823Y-86791313D01*
G37*
G36*
X117006823Y-86791313D02*
G01*
X117167242Y-86839976D01*
X117299906Y-86910886D01*
X117315078Y-86918996D01*
X117444659Y-87025341D01*
X117551004Y-87154922D01*
X117551005Y-87154924D01*
X117630024Y-87302758D01*
X117678687Y-87463177D01*
X117695117Y-87630000D01*
X117678687Y-87796823D01*
X117630024Y-87957242D01*
X117561358Y-88085706D01*
X117551004Y-88105078D01*
X117444659Y-88234659D01*
X117315078Y-88341004D01*
X117315076Y-88341005D01*
X117167242Y-88420024D01*
X117006823Y-88468687D01*
X116881804Y-88481000D01*
X116798196Y-88481000D01*
X116673177Y-88468687D01*
X116512758Y-88420024D01*
X116364924Y-88341005D01*
X116364922Y-88341004D01*
X116235341Y-88234659D01*
X116128996Y-88105078D01*
X116118642Y-88085706D01*
X116049976Y-87957242D01*
X116001313Y-87796823D01*
X115984883Y-87630000D01*
X116001313Y-87463177D01*
X116049976Y-87302758D01*
X116128995Y-87154924D01*
X116128996Y-87154922D01*
X116235341Y-87025341D01*
X116364922Y-86918996D01*
X116380094Y-86910886D01*
X116512758Y-86839976D01*
X116673177Y-86791313D01*
X116798196Y-86779000D01*
X116881804Y-86779000D01*
X117006823Y-86791313D01*
X117006823Y-86791313D01*
G37*
G36*
X119546823Y-86791313D02*
G01*
X119707242Y-86839976D01*
X119839906Y-86910886D01*
X119855078Y-86918996D01*
X119984659Y-87025341D01*
X120091004Y-87154922D01*
X120091005Y-87154924D01*
X120170024Y-87302758D01*
X120218687Y-87463177D01*
X120235117Y-87630000D01*
X120218687Y-87796823D01*
X120170024Y-87957242D01*
X120101358Y-88085706D01*
X120091004Y-88105078D01*
X119984659Y-88234659D01*
X119855078Y-88341004D01*
X119855076Y-88341005D01*
X119707242Y-88420024D01*
X119546823Y-88468687D01*
X119421804Y-88481000D01*
X119338196Y-88481000D01*
X119213177Y-88468687D01*
X119052758Y-88420024D01*
X118904924Y-88341005D01*
X118904922Y-88341004D01*
X118775341Y-88234659D01*
X118668996Y-88105078D01*
X118658642Y-88085706D01*
X118589976Y-87957242D01*
X118541313Y-87796823D01*
X118524883Y-87630000D01*
X118541313Y-87463177D01*
X118589976Y-87302758D01*
X118668995Y-87154924D01*
X118668996Y-87154922D01*
X118775341Y-87025341D01*
X118904922Y-86918996D01*
X118920094Y-86910886D01*
X119052758Y-86839976D01*
X119213177Y-86791313D01*
X119338196Y-86779000D01*
X119421804Y-86779000D01*
X119546823Y-86791313D01*
X119546823Y-86791313D01*
G37*
G36*
X142406823Y-86791313D02*
G01*
X142567242Y-86839976D01*
X142699906Y-86910886D01*
X142715078Y-86918996D01*
X142844659Y-87025341D01*
X142951004Y-87154922D01*
X142951005Y-87154924D01*
X143030024Y-87302758D01*
X143078687Y-87463177D01*
X143095117Y-87630000D01*
X143078687Y-87796823D01*
X143030024Y-87957242D01*
X142961358Y-88085706D01*
X142951004Y-88105078D01*
X142844659Y-88234659D01*
X142715078Y-88341004D01*
X142715076Y-88341005D01*
X142567242Y-88420024D01*
X142406823Y-88468687D01*
X142281804Y-88481000D01*
X142198196Y-88481000D01*
X142073177Y-88468687D01*
X141912758Y-88420024D01*
X141764924Y-88341005D01*
X141764922Y-88341004D01*
X141635341Y-88234659D01*
X141528996Y-88105078D01*
X141518642Y-88085706D01*
X141449976Y-87957242D01*
X141401313Y-87796823D01*
X141384883Y-87630000D01*
X141401313Y-87463177D01*
X141449976Y-87302758D01*
X141528995Y-87154924D01*
X141528996Y-87154922D01*
X141635341Y-87025341D01*
X141764922Y-86918996D01*
X141780094Y-86910886D01*
X141912758Y-86839976D01*
X142073177Y-86791313D01*
X142198196Y-86779000D01*
X142281804Y-86779000D01*
X142406823Y-86791313D01*
X142406823Y-86791313D01*
G37*
G36*
X144946823Y-86791313D02*
G01*
X145107242Y-86839976D01*
X145239906Y-86910886D01*
X145255078Y-86918996D01*
X145384659Y-87025341D01*
X145491004Y-87154922D01*
X145491005Y-87154924D01*
X145570024Y-87302758D01*
X145618687Y-87463177D01*
X145635117Y-87630000D01*
X145618687Y-87796823D01*
X145570024Y-87957242D01*
X145501358Y-88085706D01*
X145491004Y-88105078D01*
X145384659Y-88234659D01*
X145255078Y-88341004D01*
X145255076Y-88341005D01*
X145107242Y-88420024D01*
X144946823Y-88468687D01*
X144821804Y-88481000D01*
X144738196Y-88481000D01*
X144613177Y-88468687D01*
X144452758Y-88420024D01*
X144304924Y-88341005D01*
X144304922Y-88341004D01*
X144175341Y-88234659D01*
X144068996Y-88105078D01*
X144058642Y-88085706D01*
X143989976Y-87957242D01*
X143941313Y-87796823D01*
X143924883Y-87630000D01*
X143941313Y-87463177D01*
X143989976Y-87302758D01*
X144068995Y-87154924D01*
X144068996Y-87154922D01*
X144175341Y-87025341D01*
X144304922Y-86918996D01*
X144320094Y-86910886D01*
X144452758Y-86839976D01*
X144613177Y-86791313D01*
X144738196Y-86779000D01*
X144821804Y-86779000D01*
X144946823Y-86791313D01*
X144946823Y-86791313D01*
G37*
G36*
X147486823Y-86791313D02*
G01*
X147647242Y-86839976D01*
X147779906Y-86910886D01*
X147795078Y-86918996D01*
X147924659Y-87025341D01*
X148031004Y-87154922D01*
X148031005Y-87154924D01*
X148110024Y-87302758D01*
X148158687Y-87463177D01*
X148175117Y-87630000D01*
X148158687Y-87796823D01*
X148110024Y-87957242D01*
X148041358Y-88085706D01*
X148031004Y-88105078D01*
X147924659Y-88234659D01*
X147795078Y-88341004D01*
X147795076Y-88341005D01*
X147647242Y-88420024D01*
X147486823Y-88468687D01*
X147361804Y-88481000D01*
X147278196Y-88481000D01*
X147153177Y-88468687D01*
X146992758Y-88420024D01*
X146844924Y-88341005D01*
X146844922Y-88341004D01*
X146715341Y-88234659D01*
X146608996Y-88105078D01*
X146598642Y-88085706D01*
X146529976Y-87957242D01*
X146481313Y-87796823D01*
X146464883Y-87630000D01*
X146481313Y-87463177D01*
X146529976Y-87302758D01*
X146608995Y-87154924D01*
X146608996Y-87154922D01*
X146715341Y-87025341D01*
X146844922Y-86918996D01*
X146860094Y-86910886D01*
X146992758Y-86839976D01*
X147153177Y-86791313D01*
X147278196Y-86779000D01*
X147361804Y-86779000D01*
X147486823Y-86791313D01*
X147486823Y-86791313D01*
G37*
G36*
X150711000Y-88481000D02*
G01*
X149009000Y-88481000D01*
X149009000Y-86779000D01*
X150711000Y-86779000D01*
X150711000Y-88481000D01*
X150711000Y-88481000D01*
G37*
G36*
X114466823Y-86791313D02*
G01*
X114627242Y-86839976D01*
X114759906Y-86910886D01*
X114775078Y-86918996D01*
X114904659Y-87025341D01*
X115011004Y-87154922D01*
X115011005Y-87154924D01*
X115090024Y-87302758D01*
X115138687Y-87463177D01*
X115155117Y-87630000D01*
X115138687Y-87796823D01*
X115090024Y-87957242D01*
X115021358Y-88085706D01*
X115011004Y-88105078D01*
X114904659Y-88234659D01*
X114775078Y-88341004D01*
X114775076Y-88341005D01*
X114627242Y-88420024D01*
X114466823Y-88468687D01*
X114341804Y-88481000D01*
X114258196Y-88481000D01*
X114133177Y-88468687D01*
X113972758Y-88420024D01*
X113824924Y-88341005D01*
X113824922Y-88341004D01*
X113695341Y-88234659D01*
X113588996Y-88105078D01*
X113578642Y-88085706D01*
X113509976Y-87957242D01*
X113461313Y-87796823D01*
X113444883Y-87630000D01*
X113461313Y-87463177D01*
X113509976Y-87302758D01*
X113588995Y-87154924D01*
X113588996Y-87154922D01*
X113695341Y-87025341D01*
X113824922Y-86918996D01*
X113840094Y-86910886D01*
X113972758Y-86839976D01*
X114133177Y-86791313D01*
X114258196Y-86779000D01*
X114341804Y-86779000D01*
X114466823Y-86791313D01*
X114466823Y-86791313D01*
G37*
G36*
X172899294Y-86093633D02*
G01*
X173071695Y-86145931D01*
X173230583Y-86230858D01*
X173369849Y-86345151D01*
X173484142Y-86484417D01*
X173569069Y-86643305D01*
X173621367Y-86815706D01*
X173639025Y-86995000D01*
X173621367Y-87174294D01*
X173569069Y-87346695D01*
X173484142Y-87505583D01*
X173369849Y-87644849D01*
X173230583Y-87759142D01*
X173071695Y-87844069D01*
X172899294Y-87896367D01*
X172764931Y-87909600D01*
X172675069Y-87909600D01*
X172540706Y-87896367D01*
X172368305Y-87844069D01*
X172209417Y-87759142D01*
X172070151Y-87644849D01*
X171955858Y-87505583D01*
X171870931Y-87346695D01*
X171818633Y-87174294D01*
X171800975Y-86995000D01*
X171818633Y-86815706D01*
X171870931Y-86643305D01*
X171955858Y-86484417D01*
X172070151Y-86345151D01*
X172209417Y-86230858D01*
X172368305Y-86145931D01*
X172540706Y-86093633D01*
X172675069Y-86080400D01*
X172764931Y-86080400D01*
X172899294Y-86093633D01*
X172899294Y-86093633D01*
G37*
G36*
X177979294Y-86093633D02*
G01*
X178151695Y-86145931D01*
X178310583Y-86230858D01*
X178449849Y-86345151D01*
X178564142Y-86484417D01*
X178649069Y-86643305D01*
X178701367Y-86815706D01*
X178719025Y-86995000D01*
X178701367Y-87174294D01*
X178649069Y-87346695D01*
X178564142Y-87505583D01*
X178449849Y-87644849D01*
X178310583Y-87759142D01*
X178151695Y-87844069D01*
X177979294Y-87896367D01*
X177844931Y-87909600D01*
X177755069Y-87909600D01*
X177620706Y-87896367D01*
X177448305Y-87844069D01*
X177289417Y-87759142D01*
X177150151Y-87644849D01*
X177035858Y-87505583D01*
X176950931Y-87346695D01*
X176898633Y-87174294D01*
X176880975Y-86995000D01*
X176898633Y-86815706D01*
X176950931Y-86643305D01*
X177035858Y-86484417D01*
X177150151Y-86345151D01*
X177289417Y-86230858D01*
X177448305Y-86145931D01*
X177620706Y-86093633D01*
X177755069Y-86080400D01*
X177844931Y-86080400D01*
X177979294Y-86093633D01*
X177979294Y-86093633D01*
G37*
G36*
X170359294Y-84823633D02*
G01*
X170531695Y-84875931D01*
X170690583Y-84960858D01*
X170829849Y-85075151D01*
X170944142Y-85214417D01*
X171029069Y-85373305D01*
X171081367Y-85545706D01*
X171099025Y-85725000D01*
X171081367Y-85904294D01*
X171029069Y-86076695D01*
X170944142Y-86235583D01*
X170829849Y-86374849D01*
X170690583Y-86489142D01*
X170531695Y-86574069D01*
X170359294Y-86626367D01*
X170224931Y-86639600D01*
X170135069Y-86639600D01*
X170000706Y-86626367D01*
X169828305Y-86574069D01*
X169669417Y-86489142D01*
X169530151Y-86374849D01*
X169415858Y-86235583D01*
X169330931Y-86076695D01*
X169278633Y-85904294D01*
X169260975Y-85725000D01*
X169278633Y-85545706D01*
X169330931Y-85373305D01*
X169415858Y-85214417D01*
X169530151Y-85075151D01*
X169669417Y-84960858D01*
X169828305Y-84875931D01*
X170000706Y-84823633D01*
X170135069Y-84810400D01*
X170224931Y-84810400D01*
X170359294Y-84823633D01*
X170359294Y-84823633D01*
G37*
G36*
X175439294Y-84823633D02*
G01*
X175611695Y-84875931D01*
X175770583Y-84960858D01*
X175909849Y-85075151D01*
X176024142Y-85214417D01*
X176109069Y-85373305D01*
X176161367Y-85545706D01*
X176179025Y-85725000D01*
X176161367Y-85904294D01*
X176109069Y-86076695D01*
X176024142Y-86235583D01*
X175909849Y-86374849D01*
X175770583Y-86489142D01*
X175611695Y-86574069D01*
X175439294Y-86626367D01*
X175304931Y-86639600D01*
X175215069Y-86639600D01*
X175080706Y-86626367D01*
X174908305Y-86574069D01*
X174749417Y-86489142D01*
X174610151Y-86374849D01*
X174495858Y-86235583D01*
X174410931Y-86076695D01*
X174358633Y-85904294D01*
X174340975Y-85725000D01*
X174358633Y-85545706D01*
X174410931Y-85373305D01*
X174495858Y-85214417D01*
X174610151Y-85075151D01*
X174749417Y-84960858D01*
X174908305Y-84875931D01*
X175080706Y-84823633D01*
X175215069Y-84810400D01*
X175304931Y-84810400D01*
X175439294Y-84823633D01*
X175439294Y-84823633D01*
G37*
G36*
X172899294Y-83553633D02*
G01*
X173071695Y-83605931D01*
X173230583Y-83690858D01*
X173369849Y-83805151D01*
X173484142Y-83944417D01*
X173569069Y-84103305D01*
X173621367Y-84275706D01*
X173639025Y-84455000D01*
X173621367Y-84634294D01*
X173569069Y-84806695D01*
X173484142Y-84965583D01*
X173369849Y-85104849D01*
X173230583Y-85219142D01*
X173071695Y-85304069D01*
X172899294Y-85356367D01*
X172764931Y-85369600D01*
X172675069Y-85369600D01*
X172540706Y-85356367D01*
X172368305Y-85304069D01*
X172209417Y-85219142D01*
X172070151Y-85104849D01*
X171955858Y-84965583D01*
X171870931Y-84806695D01*
X171818633Y-84634294D01*
X171800975Y-84455000D01*
X171818633Y-84275706D01*
X171870931Y-84103305D01*
X171955858Y-83944417D01*
X172070151Y-83805151D01*
X172209417Y-83690858D01*
X172368305Y-83605931D01*
X172540706Y-83553633D01*
X172675069Y-83540400D01*
X172764931Y-83540400D01*
X172899294Y-83553633D01*
X172899294Y-83553633D01*
G37*
G36*
X177979294Y-83553633D02*
G01*
X178151695Y-83605931D01*
X178310583Y-83690858D01*
X178449849Y-83805151D01*
X178564142Y-83944417D01*
X178649069Y-84103305D01*
X178701367Y-84275706D01*
X178719025Y-84455000D01*
X178701367Y-84634294D01*
X178649069Y-84806695D01*
X178564142Y-84965583D01*
X178449849Y-85104849D01*
X178310583Y-85219142D01*
X178151695Y-85304069D01*
X177979294Y-85356367D01*
X177844931Y-85369600D01*
X177755069Y-85369600D01*
X177620706Y-85356367D01*
X177448305Y-85304069D01*
X177289417Y-85219142D01*
X177150151Y-85104849D01*
X177035858Y-84965583D01*
X176950931Y-84806695D01*
X176898633Y-84634294D01*
X176880975Y-84455000D01*
X176898633Y-84275706D01*
X176950931Y-84103305D01*
X177035858Y-83944417D01*
X177150151Y-83805151D01*
X177289417Y-83690858D01*
X177448305Y-83605931D01*
X177620706Y-83553633D01*
X177755069Y-83540400D01*
X177844931Y-83540400D01*
X177979294Y-83553633D01*
X177979294Y-83553633D01*
G37*
G36*
X170359294Y-82283633D02*
G01*
X170531695Y-82335931D01*
X170690583Y-82420858D01*
X170829849Y-82535151D01*
X170944142Y-82674417D01*
X171029069Y-82833305D01*
X171081367Y-83005706D01*
X171099025Y-83185000D01*
X171081367Y-83364294D01*
X171029069Y-83536695D01*
X170944142Y-83695583D01*
X170829849Y-83834849D01*
X170690583Y-83949142D01*
X170531695Y-84034069D01*
X170359294Y-84086367D01*
X170224931Y-84099600D01*
X170135069Y-84099600D01*
X170000706Y-84086367D01*
X169828305Y-84034069D01*
X169669417Y-83949142D01*
X169530151Y-83834849D01*
X169415858Y-83695583D01*
X169330931Y-83536695D01*
X169278633Y-83364294D01*
X169260975Y-83185000D01*
X169278633Y-83005706D01*
X169330931Y-82833305D01*
X169415858Y-82674417D01*
X169530151Y-82535151D01*
X169669417Y-82420858D01*
X169828305Y-82335931D01*
X170000706Y-82283633D01*
X170135069Y-82270400D01*
X170224931Y-82270400D01*
X170359294Y-82283633D01*
X170359294Y-82283633D01*
G37*
G36*
X175439294Y-82283633D02*
G01*
X175611695Y-82335931D01*
X175770583Y-82420858D01*
X175909849Y-82535151D01*
X176024142Y-82674417D01*
X176109069Y-82833305D01*
X176161367Y-83005706D01*
X176179025Y-83185000D01*
X176161367Y-83364294D01*
X176109069Y-83536695D01*
X176024142Y-83695583D01*
X175909849Y-83834849D01*
X175770583Y-83949142D01*
X175611695Y-84034069D01*
X175439294Y-84086367D01*
X175304931Y-84099600D01*
X175215069Y-84099600D01*
X175080706Y-84086367D01*
X174908305Y-84034069D01*
X174749417Y-83949142D01*
X174610151Y-83834849D01*
X174495858Y-83695583D01*
X174410931Y-83536695D01*
X174358633Y-83364294D01*
X174340975Y-83185000D01*
X174358633Y-83005706D01*
X174410931Y-82833305D01*
X174495858Y-82674417D01*
X174610151Y-82535151D01*
X174749417Y-82420858D01*
X174908305Y-82335931D01*
X175080706Y-82283633D01*
X175215069Y-82270400D01*
X175304931Y-82270400D01*
X175439294Y-82283633D01*
X175439294Y-82283633D01*
G37*
G36*
X177979294Y-81013633D02*
G01*
X178151695Y-81065931D01*
X178310583Y-81150858D01*
X178449849Y-81265151D01*
X178564142Y-81404417D01*
X178649069Y-81563305D01*
X178701367Y-81735706D01*
X178719025Y-81915000D01*
X178701367Y-82094294D01*
X178649069Y-82266695D01*
X178564142Y-82425583D01*
X178449849Y-82564849D01*
X178310583Y-82679142D01*
X178151695Y-82764069D01*
X177979294Y-82816367D01*
X177844931Y-82829600D01*
X177755069Y-82829600D01*
X177620706Y-82816367D01*
X177448305Y-82764069D01*
X177289417Y-82679142D01*
X177150151Y-82564849D01*
X177035858Y-82425583D01*
X176950931Y-82266695D01*
X176898633Y-82094294D01*
X176880975Y-81915000D01*
X176898633Y-81735706D01*
X176950931Y-81563305D01*
X177035858Y-81404417D01*
X177150151Y-81265151D01*
X177289417Y-81150858D01*
X177448305Y-81065931D01*
X177620706Y-81013633D01*
X177755069Y-81000400D01*
X177844931Y-81000400D01*
X177979294Y-81013633D01*
X177979294Y-81013633D01*
G37*
G36*
X172899294Y-81013633D02*
G01*
X173071695Y-81065931D01*
X173230583Y-81150858D01*
X173369849Y-81265151D01*
X173484142Y-81404417D01*
X173569069Y-81563305D01*
X173621367Y-81735706D01*
X173639025Y-81915000D01*
X173621367Y-82094294D01*
X173569069Y-82266695D01*
X173484142Y-82425583D01*
X173369849Y-82564849D01*
X173230583Y-82679142D01*
X173071695Y-82764069D01*
X172899294Y-82816367D01*
X172764931Y-82829600D01*
X172675069Y-82829600D01*
X172540706Y-82816367D01*
X172368305Y-82764069D01*
X172209417Y-82679142D01*
X172070151Y-82564849D01*
X171955858Y-82425583D01*
X171870931Y-82266695D01*
X171818633Y-82094294D01*
X171800975Y-81915000D01*
X171818633Y-81735706D01*
X171870931Y-81563305D01*
X171955858Y-81404417D01*
X172070151Y-81265151D01*
X172209417Y-81150858D01*
X172368305Y-81065931D01*
X172540706Y-81013633D01*
X172675069Y-81000400D01*
X172764931Y-81000400D01*
X172899294Y-81013633D01*
X172899294Y-81013633D01*
G37*
G36*
X175439294Y-79743633D02*
G01*
X175611695Y-79795931D01*
X175770583Y-79880858D01*
X175909849Y-79995151D01*
X176024142Y-80134417D01*
X176109069Y-80293305D01*
X176161367Y-80465706D01*
X176179025Y-80645000D01*
X176161367Y-80824294D01*
X176109069Y-80996695D01*
X176024142Y-81155583D01*
X175909849Y-81294849D01*
X175770583Y-81409142D01*
X175611695Y-81494069D01*
X175439294Y-81546367D01*
X175304931Y-81559600D01*
X175215069Y-81559600D01*
X175080706Y-81546367D01*
X174908305Y-81494069D01*
X174749417Y-81409142D01*
X174610151Y-81294849D01*
X174495858Y-81155583D01*
X174410931Y-80996695D01*
X174358633Y-80824294D01*
X174340975Y-80645000D01*
X174358633Y-80465706D01*
X174410931Y-80293305D01*
X174495858Y-80134417D01*
X174610151Y-79995151D01*
X174749417Y-79880858D01*
X174908305Y-79795931D01*
X175080706Y-79743633D01*
X175215069Y-79730400D01*
X175304931Y-79730400D01*
X175439294Y-79743633D01*
X175439294Y-79743633D01*
G37*
G36*
X170359294Y-79743633D02*
G01*
X170531695Y-79795931D01*
X170690583Y-79880858D01*
X170829849Y-79995151D01*
X170944142Y-80134417D01*
X171029069Y-80293305D01*
X171081367Y-80465706D01*
X171099025Y-80645000D01*
X171081367Y-80824294D01*
X171029069Y-80996695D01*
X170944142Y-81155583D01*
X170829849Y-81294849D01*
X170690583Y-81409142D01*
X170531695Y-81494069D01*
X170359294Y-81546367D01*
X170224931Y-81559600D01*
X170135069Y-81559600D01*
X170000706Y-81546367D01*
X169828305Y-81494069D01*
X169669417Y-81409142D01*
X169530151Y-81294849D01*
X169415858Y-81155583D01*
X169330931Y-80996695D01*
X169278633Y-80824294D01*
X169260975Y-80645000D01*
X169278633Y-80465706D01*
X169330931Y-80293305D01*
X169415858Y-80134417D01*
X169530151Y-79995151D01*
X169669417Y-79880858D01*
X169828305Y-79795931D01*
X170000706Y-79743633D01*
X170135069Y-79730400D01*
X170224931Y-79730400D01*
X170359294Y-79743633D01*
X170359294Y-79743633D01*
G37*
G36*
X177979294Y-78473633D02*
G01*
X178151695Y-78525931D01*
X178310583Y-78610858D01*
X178449849Y-78725151D01*
X178564142Y-78864417D01*
X178649069Y-79023305D01*
X178701367Y-79195706D01*
X178719025Y-79375000D01*
X178701367Y-79554294D01*
X178649069Y-79726695D01*
X178564142Y-79885583D01*
X178449849Y-80024849D01*
X178310583Y-80139142D01*
X178151695Y-80224069D01*
X177979294Y-80276367D01*
X177844931Y-80289600D01*
X177755069Y-80289600D01*
X177620706Y-80276367D01*
X177448305Y-80224069D01*
X177289417Y-80139142D01*
X177150151Y-80024849D01*
X177035858Y-79885583D01*
X176950931Y-79726695D01*
X176898633Y-79554294D01*
X176880975Y-79375000D01*
X176898633Y-79195706D01*
X176950931Y-79023305D01*
X177035858Y-78864417D01*
X177150151Y-78725151D01*
X177289417Y-78610858D01*
X177448305Y-78525931D01*
X177620706Y-78473633D01*
X177755069Y-78460400D01*
X177844931Y-78460400D01*
X177979294Y-78473633D01*
X177979294Y-78473633D01*
G37*
G36*
X172899294Y-78473633D02*
G01*
X173071695Y-78525931D01*
X173230583Y-78610858D01*
X173369849Y-78725151D01*
X173484142Y-78864417D01*
X173569069Y-79023305D01*
X173621367Y-79195706D01*
X173639025Y-79375000D01*
X173621367Y-79554294D01*
X173569069Y-79726695D01*
X173484142Y-79885583D01*
X173369849Y-80024849D01*
X173230583Y-80139142D01*
X173071695Y-80224069D01*
X172899294Y-80276367D01*
X172764931Y-80289600D01*
X172675069Y-80289600D01*
X172540706Y-80276367D01*
X172368305Y-80224069D01*
X172209417Y-80139142D01*
X172070151Y-80024849D01*
X171955858Y-79885583D01*
X171870931Y-79726695D01*
X171818633Y-79554294D01*
X171800975Y-79375000D01*
X171818633Y-79195706D01*
X171870931Y-79023305D01*
X171955858Y-78864417D01*
X172070151Y-78725151D01*
X172209417Y-78610858D01*
X172368305Y-78525931D01*
X172540706Y-78473633D01*
X172675069Y-78460400D01*
X172764931Y-78460400D01*
X172899294Y-78473633D01*
X172899294Y-78473633D01*
G37*
G36*
X175439294Y-77203633D02*
G01*
X175611695Y-77255931D01*
X175770583Y-77340858D01*
X175909849Y-77455151D01*
X176024142Y-77594417D01*
X176109069Y-77753305D01*
X176161367Y-77925706D01*
X176179025Y-78105000D01*
X176161367Y-78284294D01*
X176109069Y-78456695D01*
X176024142Y-78615583D01*
X175909849Y-78754849D01*
X175770583Y-78869142D01*
X175611695Y-78954069D01*
X175439294Y-79006367D01*
X175304931Y-79019600D01*
X175215069Y-79019600D01*
X175080706Y-79006367D01*
X174908305Y-78954069D01*
X174749417Y-78869142D01*
X174610151Y-78754849D01*
X174495858Y-78615583D01*
X174410931Y-78456695D01*
X174358633Y-78284294D01*
X174340975Y-78105000D01*
X174358633Y-77925706D01*
X174410931Y-77753305D01*
X174495858Y-77594417D01*
X174610151Y-77455151D01*
X174749417Y-77340858D01*
X174908305Y-77255931D01*
X175080706Y-77203633D01*
X175215069Y-77190400D01*
X175304931Y-77190400D01*
X175439294Y-77203633D01*
X175439294Y-77203633D01*
G37*
G36*
X170359294Y-77203633D02*
G01*
X170531695Y-77255931D01*
X170690583Y-77340858D01*
X170829849Y-77455151D01*
X170944142Y-77594417D01*
X171029069Y-77753305D01*
X171081367Y-77925706D01*
X171099025Y-78105000D01*
X171081367Y-78284294D01*
X171029069Y-78456695D01*
X170944142Y-78615583D01*
X170829849Y-78754849D01*
X170690583Y-78869142D01*
X170531695Y-78954069D01*
X170359294Y-79006367D01*
X170224931Y-79019600D01*
X170135069Y-79019600D01*
X170000706Y-79006367D01*
X169828305Y-78954069D01*
X169669417Y-78869142D01*
X169530151Y-78754849D01*
X169415858Y-78615583D01*
X169330931Y-78456695D01*
X169278633Y-78284294D01*
X169260975Y-78105000D01*
X169278633Y-77925706D01*
X169330931Y-77753305D01*
X169415858Y-77594417D01*
X169530151Y-77455151D01*
X169669417Y-77340858D01*
X169828305Y-77255931D01*
X170000706Y-77203633D01*
X170135069Y-77190400D01*
X170224931Y-77190400D01*
X170359294Y-77203633D01*
X170359294Y-77203633D01*
G37*
G36*
X177979294Y-75933633D02*
G01*
X178151695Y-75985931D01*
X178310583Y-76070858D01*
X178449849Y-76185151D01*
X178564142Y-76324417D01*
X178649069Y-76483305D01*
X178701367Y-76655706D01*
X178719025Y-76835000D01*
X178701367Y-77014294D01*
X178649069Y-77186695D01*
X178564142Y-77345583D01*
X178449849Y-77484849D01*
X178310583Y-77599142D01*
X178151695Y-77684069D01*
X177979294Y-77736367D01*
X177844931Y-77749600D01*
X177755069Y-77749600D01*
X177620706Y-77736367D01*
X177448305Y-77684069D01*
X177289417Y-77599142D01*
X177150151Y-77484849D01*
X177035858Y-77345583D01*
X176950931Y-77186695D01*
X176898633Y-77014294D01*
X176880975Y-76835000D01*
X176898633Y-76655706D01*
X176950931Y-76483305D01*
X177035858Y-76324417D01*
X177150151Y-76185151D01*
X177289417Y-76070858D01*
X177448305Y-75985931D01*
X177620706Y-75933633D01*
X177755069Y-75920400D01*
X177844931Y-75920400D01*
X177979294Y-75933633D01*
X177979294Y-75933633D01*
G37*
G36*
X172899294Y-75933633D02*
G01*
X173071695Y-75985931D01*
X173230583Y-76070858D01*
X173369849Y-76185151D01*
X173484142Y-76324417D01*
X173569069Y-76483305D01*
X173621367Y-76655706D01*
X173639025Y-76835000D01*
X173621367Y-77014294D01*
X173569069Y-77186695D01*
X173484142Y-77345583D01*
X173369849Y-77484849D01*
X173230583Y-77599142D01*
X173071695Y-77684069D01*
X172899294Y-77736367D01*
X172764931Y-77749600D01*
X172675069Y-77749600D01*
X172540706Y-77736367D01*
X172368305Y-77684069D01*
X172209417Y-77599142D01*
X172070151Y-77484849D01*
X171955858Y-77345583D01*
X171870931Y-77186695D01*
X171818633Y-77014294D01*
X171800975Y-76835000D01*
X171818633Y-76655706D01*
X171870931Y-76483305D01*
X171955858Y-76324417D01*
X172070151Y-76185151D01*
X172209417Y-76070858D01*
X172368305Y-75985931D01*
X172540706Y-75933633D01*
X172675069Y-75920400D01*
X172764931Y-75920400D01*
X172899294Y-75933633D01*
X172899294Y-75933633D01*
G37*
G36*
X113775442Y-75940518D02*
G01*
X113841627Y-75947037D01*
X114011466Y-75998557D01*
X114167991Y-76082222D01*
X114203729Y-76111552D01*
X114305186Y-76194814D01*
X114388448Y-76296271D01*
X114417778Y-76332009D01*
X114417779Y-76332011D01*
X114498648Y-76483304D01*
X114501443Y-76488534D01*
X114552963Y-76658373D01*
X114570359Y-76835000D01*
X114552963Y-77011627D01*
X114501443Y-77181466D01*
X114501442Y-77181468D01*
X114496668Y-77190400D01*
X114417778Y-77337991D01*
X114415425Y-77340858D01*
X114305186Y-77475186D01*
X114203729Y-77558448D01*
X114167991Y-77587778D01*
X114011466Y-77671443D01*
X113841627Y-77722963D01*
X113775443Y-77729481D01*
X113709260Y-77736000D01*
X113620740Y-77736000D01*
X113554557Y-77729481D01*
X113488373Y-77722963D01*
X113318534Y-77671443D01*
X113162009Y-77587778D01*
X113126271Y-77558448D01*
X113024814Y-77475186D01*
X112914575Y-77340858D01*
X112912222Y-77337991D01*
X112833332Y-77190400D01*
X112828558Y-77181468D01*
X112828557Y-77181466D01*
X112777037Y-77011627D01*
X112759641Y-76835000D01*
X112777037Y-76658373D01*
X112828557Y-76488534D01*
X112831353Y-76483304D01*
X112912221Y-76332011D01*
X112912222Y-76332009D01*
X112941552Y-76296271D01*
X113024814Y-76194814D01*
X113126271Y-76111552D01*
X113162009Y-76082222D01*
X113318534Y-75998557D01*
X113488373Y-75947037D01*
X113554558Y-75940518D01*
X113620740Y-75934000D01*
X113709260Y-75934000D01*
X113775442Y-75940518D01*
X113775442Y-75940518D01*
G37*
G36*
X118220442Y-75940518D02*
G01*
X118286627Y-75947037D01*
X118456466Y-75998557D01*
X118612991Y-76082222D01*
X118648729Y-76111552D01*
X118750186Y-76194814D01*
X118833448Y-76296271D01*
X118862778Y-76332009D01*
X118862779Y-76332011D01*
X118943648Y-76483304D01*
X118946443Y-76488534D01*
X118997963Y-76658373D01*
X119015359Y-76835000D01*
X118997963Y-77011627D01*
X118946443Y-77181466D01*
X118946442Y-77181468D01*
X118941668Y-77190400D01*
X118862778Y-77337991D01*
X118860425Y-77340858D01*
X118750186Y-77475186D01*
X118648729Y-77558448D01*
X118612991Y-77587778D01*
X118456466Y-77671443D01*
X118286627Y-77722963D01*
X118220443Y-77729481D01*
X118154260Y-77736000D01*
X118065740Y-77736000D01*
X117999557Y-77729481D01*
X117933373Y-77722963D01*
X117763534Y-77671443D01*
X117607009Y-77587778D01*
X117571271Y-77558448D01*
X117469814Y-77475186D01*
X117359575Y-77340858D01*
X117357222Y-77337991D01*
X117278332Y-77190400D01*
X117273558Y-77181468D01*
X117273557Y-77181466D01*
X117222037Y-77011627D01*
X117204641Y-76835000D01*
X117222037Y-76658373D01*
X117273557Y-76488534D01*
X117276353Y-76483304D01*
X117357221Y-76332011D01*
X117357222Y-76332009D01*
X117386552Y-76296271D01*
X117469814Y-76194814D01*
X117571271Y-76111552D01*
X117607009Y-76082222D01*
X117763534Y-75998557D01*
X117933373Y-75947037D01*
X117999558Y-75940518D01*
X118065740Y-75934000D01*
X118154260Y-75934000D01*
X118220442Y-75940518D01*
X118220442Y-75940518D01*
G37*
G36*
X175439294Y-74663633D02*
G01*
X175611695Y-74715931D01*
X175770583Y-74800858D01*
X175909849Y-74915151D01*
X176024142Y-75054417D01*
X176109069Y-75213305D01*
X176161367Y-75385706D01*
X176179025Y-75565000D01*
X176161367Y-75744294D01*
X176109069Y-75916695D01*
X176024142Y-76075583D01*
X175909849Y-76214849D01*
X175770583Y-76329142D01*
X175611695Y-76414069D01*
X175439294Y-76466367D01*
X175304931Y-76479600D01*
X175215069Y-76479600D01*
X175080706Y-76466367D01*
X174908305Y-76414069D01*
X174749417Y-76329142D01*
X174610151Y-76214849D01*
X174495858Y-76075583D01*
X174410931Y-75916695D01*
X174358633Y-75744294D01*
X174340975Y-75565000D01*
X174358633Y-75385706D01*
X174410931Y-75213305D01*
X174495858Y-75054417D01*
X174610151Y-74915151D01*
X174749417Y-74800858D01*
X174908305Y-74715931D01*
X175080706Y-74663633D01*
X175215069Y-74650400D01*
X175304931Y-74650400D01*
X175439294Y-74663633D01*
X175439294Y-74663633D01*
G37*
G36*
X170359294Y-74663633D02*
G01*
X170531695Y-74715931D01*
X170690583Y-74800858D01*
X170829849Y-74915151D01*
X170944142Y-75054417D01*
X171029069Y-75213305D01*
X171081367Y-75385706D01*
X171099025Y-75565000D01*
X171081367Y-75744294D01*
X171029069Y-75916695D01*
X170944142Y-76075583D01*
X170829849Y-76214849D01*
X170690583Y-76329142D01*
X170531695Y-76414069D01*
X170359294Y-76466367D01*
X170224931Y-76479600D01*
X170135069Y-76479600D01*
X170000706Y-76466367D01*
X169828305Y-76414069D01*
X169669417Y-76329142D01*
X169530151Y-76214849D01*
X169415858Y-76075583D01*
X169330931Y-75916695D01*
X169278633Y-75744294D01*
X169260975Y-75565000D01*
X169278633Y-75385706D01*
X169330931Y-75213305D01*
X169415858Y-75054417D01*
X169530151Y-74915151D01*
X169669417Y-74800858D01*
X169828305Y-74715931D01*
X170000706Y-74663633D01*
X170135069Y-74650400D01*
X170224931Y-74650400D01*
X170359294Y-74663633D01*
X170359294Y-74663633D01*
G37*
G36*
X172899294Y-73393633D02*
G01*
X173071695Y-73445931D01*
X173230583Y-73530858D01*
X173369849Y-73645151D01*
X173484142Y-73784417D01*
X173569069Y-73943305D01*
X173621367Y-74115706D01*
X173639025Y-74295000D01*
X173621367Y-74474294D01*
X173569069Y-74646695D01*
X173484142Y-74805583D01*
X173369849Y-74944849D01*
X173230583Y-75059142D01*
X173071695Y-75144069D01*
X172899294Y-75196367D01*
X172764931Y-75209600D01*
X172675069Y-75209600D01*
X172540706Y-75196367D01*
X172368305Y-75144069D01*
X172209417Y-75059142D01*
X172070151Y-74944849D01*
X171955858Y-74805583D01*
X171870931Y-74646695D01*
X171818633Y-74474294D01*
X171800975Y-74295000D01*
X171818633Y-74115706D01*
X171870931Y-73943305D01*
X171955858Y-73784417D01*
X172070151Y-73645151D01*
X172209417Y-73530858D01*
X172368305Y-73445931D01*
X172540706Y-73393633D01*
X172675069Y-73380400D01*
X172764931Y-73380400D01*
X172899294Y-73393633D01*
X172899294Y-73393633D01*
G37*
G36*
X177979294Y-73393633D02*
G01*
X178151695Y-73445931D01*
X178310583Y-73530858D01*
X178449849Y-73645151D01*
X178564142Y-73784417D01*
X178649069Y-73943305D01*
X178701367Y-74115706D01*
X178719025Y-74295000D01*
X178701367Y-74474294D01*
X178649069Y-74646695D01*
X178564142Y-74805583D01*
X178449849Y-74944849D01*
X178310583Y-75059142D01*
X178151695Y-75144069D01*
X177979294Y-75196367D01*
X177844931Y-75209600D01*
X177755069Y-75209600D01*
X177620706Y-75196367D01*
X177448305Y-75144069D01*
X177289417Y-75059142D01*
X177150151Y-74944849D01*
X177035858Y-74805583D01*
X176950931Y-74646695D01*
X176898633Y-74474294D01*
X176880975Y-74295000D01*
X176898633Y-74115706D01*
X176950931Y-73943305D01*
X177035858Y-73784417D01*
X177150151Y-73645151D01*
X177289417Y-73530858D01*
X177448305Y-73445931D01*
X177620706Y-73393633D01*
X177755069Y-73380400D01*
X177844931Y-73380400D01*
X177979294Y-73393633D01*
X177979294Y-73393633D01*
G37*
G36*
X118220443Y-73400519D02*
G01*
X118286627Y-73407037D01*
X118456466Y-73458557D01*
X118612991Y-73542222D01*
X118648729Y-73571552D01*
X118750186Y-73654814D01*
X118833448Y-73756271D01*
X118862778Y-73792009D01*
X118862779Y-73792011D01*
X118943648Y-73943304D01*
X118946443Y-73948534D01*
X118997963Y-74118373D01*
X119015359Y-74295000D01*
X118997963Y-74471627D01*
X118946443Y-74641466D01*
X118946442Y-74641468D01*
X118941668Y-74650400D01*
X118862778Y-74797991D01*
X118860425Y-74800858D01*
X118750186Y-74935186D01*
X118648729Y-75018448D01*
X118612991Y-75047778D01*
X118456466Y-75131443D01*
X118286627Y-75182963D01*
X118220442Y-75189482D01*
X118154260Y-75196000D01*
X118065740Y-75196000D01*
X117999558Y-75189482D01*
X117933373Y-75182963D01*
X117763534Y-75131443D01*
X117607009Y-75047778D01*
X117571271Y-75018448D01*
X117469814Y-74935186D01*
X117359575Y-74800858D01*
X117357222Y-74797991D01*
X117278332Y-74650400D01*
X117273558Y-74641468D01*
X117273557Y-74641466D01*
X117222037Y-74471627D01*
X117204641Y-74295000D01*
X117222037Y-74118373D01*
X117273557Y-73948534D01*
X117276353Y-73943304D01*
X117357221Y-73792011D01*
X117357222Y-73792009D01*
X117386552Y-73756271D01*
X117469814Y-73654814D01*
X117571271Y-73571552D01*
X117607009Y-73542222D01*
X117763534Y-73458557D01*
X117933373Y-73407037D01*
X117999557Y-73400519D01*
X118065740Y-73394000D01*
X118154260Y-73394000D01*
X118220443Y-73400519D01*
X118220443Y-73400519D01*
G37*
G36*
X113775443Y-73400519D02*
G01*
X113841627Y-73407037D01*
X114011466Y-73458557D01*
X114167991Y-73542222D01*
X114203729Y-73571552D01*
X114305186Y-73654814D01*
X114388448Y-73756271D01*
X114417778Y-73792009D01*
X114417779Y-73792011D01*
X114498648Y-73943304D01*
X114501443Y-73948534D01*
X114552963Y-74118373D01*
X114570359Y-74295000D01*
X114552963Y-74471627D01*
X114501443Y-74641466D01*
X114501442Y-74641468D01*
X114496668Y-74650400D01*
X114417778Y-74797991D01*
X114415425Y-74800858D01*
X114305186Y-74935186D01*
X114203729Y-75018448D01*
X114167991Y-75047778D01*
X114011466Y-75131443D01*
X113841627Y-75182963D01*
X113775442Y-75189482D01*
X113709260Y-75196000D01*
X113620740Y-75196000D01*
X113554558Y-75189482D01*
X113488373Y-75182963D01*
X113318534Y-75131443D01*
X113162009Y-75047778D01*
X113126271Y-75018448D01*
X113024814Y-74935186D01*
X112914575Y-74800858D01*
X112912222Y-74797991D01*
X112833332Y-74650400D01*
X112828558Y-74641468D01*
X112828557Y-74641466D01*
X112777037Y-74471627D01*
X112759641Y-74295000D01*
X112777037Y-74118373D01*
X112828557Y-73948534D01*
X112831353Y-73943304D01*
X112912221Y-73792011D01*
X112912222Y-73792009D01*
X112941552Y-73756271D01*
X113024814Y-73654814D01*
X113126271Y-73571552D01*
X113162009Y-73542222D01*
X113318534Y-73458557D01*
X113488373Y-73407037D01*
X113554557Y-73400519D01*
X113620740Y-73394000D01*
X113709260Y-73394000D01*
X113775443Y-73400519D01*
X113775443Y-73400519D01*
G37*
G36*
X109330443Y-73400519D02*
G01*
X109396627Y-73407037D01*
X109566466Y-73458557D01*
X109722991Y-73542222D01*
X109758729Y-73571552D01*
X109860186Y-73654814D01*
X109943448Y-73756271D01*
X109972778Y-73792009D01*
X109972779Y-73792011D01*
X110053648Y-73943304D01*
X110056443Y-73948534D01*
X110107963Y-74118373D01*
X110125359Y-74295000D01*
X110107963Y-74471627D01*
X110056443Y-74641466D01*
X110056442Y-74641468D01*
X110051668Y-74650400D01*
X109972778Y-74797991D01*
X109970425Y-74800858D01*
X109860186Y-74935186D01*
X109758729Y-75018448D01*
X109722991Y-75047778D01*
X109566466Y-75131443D01*
X109396627Y-75182963D01*
X109330442Y-75189482D01*
X109264260Y-75196000D01*
X109175740Y-75196000D01*
X109109558Y-75189482D01*
X109043373Y-75182963D01*
X108873534Y-75131443D01*
X108717009Y-75047778D01*
X108681271Y-75018448D01*
X108579814Y-74935186D01*
X108469575Y-74800858D01*
X108467222Y-74797991D01*
X108388332Y-74650400D01*
X108383558Y-74641468D01*
X108383557Y-74641466D01*
X108332037Y-74471627D01*
X108314641Y-74295000D01*
X108332037Y-74118373D01*
X108383557Y-73948534D01*
X108386353Y-73943304D01*
X108467221Y-73792011D01*
X108467222Y-73792009D01*
X108496552Y-73756271D01*
X108579814Y-73654814D01*
X108681271Y-73571552D01*
X108717009Y-73542222D01*
X108873534Y-73458557D01*
X109043373Y-73407037D01*
X109109557Y-73400519D01*
X109175740Y-73394000D01*
X109264260Y-73394000D01*
X109330443Y-73400519D01*
X109330443Y-73400519D01*
G37*
G36*
X170359294Y-72123633D02*
G01*
X170531695Y-72175931D01*
X170690583Y-72260858D01*
X170829849Y-72375151D01*
X170944142Y-72514417D01*
X171029069Y-72673305D01*
X171081367Y-72845706D01*
X171099025Y-73025000D01*
X171081367Y-73204294D01*
X171029069Y-73376695D01*
X170944142Y-73535583D01*
X170829849Y-73674849D01*
X170690583Y-73789142D01*
X170531695Y-73874069D01*
X170359294Y-73926367D01*
X170224931Y-73939600D01*
X170135069Y-73939600D01*
X170000706Y-73926367D01*
X169828305Y-73874069D01*
X169669417Y-73789142D01*
X169530151Y-73674849D01*
X169415858Y-73535583D01*
X169330931Y-73376695D01*
X169278633Y-73204294D01*
X169260975Y-73025000D01*
X169278633Y-72845706D01*
X169330931Y-72673305D01*
X169415858Y-72514417D01*
X169530151Y-72375151D01*
X169669417Y-72260858D01*
X169828305Y-72175931D01*
X170000706Y-72123633D01*
X170135069Y-72110400D01*
X170224931Y-72110400D01*
X170359294Y-72123633D01*
X170359294Y-72123633D01*
G37*
G36*
X175439294Y-72123633D02*
G01*
X175611695Y-72175931D01*
X175770583Y-72260858D01*
X175909849Y-72375151D01*
X176024142Y-72514417D01*
X176109069Y-72673305D01*
X176161367Y-72845706D01*
X176179025Y-73025000D01*
X176161367Y-73204294D01*
X176109069Y-73376695D01*
X176024142Y-73535583D01*
X175909849Y-73674849D01*
X175770583Y-73789142D01*
X175611695Y-73874069D01*
X175439294Y-73926367D01*
X175304931Y-73939600D01*
X175215069Y-73939600D01*
X175080706Y-73926367D01*
X174908305Y-73874069D01*
X174749417Y-73789142D01*
X174610151Y-73674849D01*
X174495858Y-73535583D01*
X174410931Y-73376695D01*
X174358633Y-73204294D01*
X174340975Y-73025000D01*
X174358633Y-72845706D01*
X174410931Y-72673305D01*
X174495858Y-72514417D01*
X174610151Y-72375151D01*
X174749417Y-72260858D01*
X174908305Y-72175931D01*
X175080706Y-72123633D01*
X175215069Y-72110400D01*
X175304931Y-72110400D01*
X175439294Y-72123633D01*
X175439294Y-72123633D01*
G37*
G36*
X136841000Y-73341000D02*
G01*
X134939000Y-73341000D01*
X134939000Y-71439000D01*
X136841000Y-71439000D01*
X136841000Y-73341000D01*
X136841000Y-73341000D01*
G37*
G36*
X138616425Y-71452760D02*
G01*
X138616428Y-71452761D01*
X138616429Y-71452761D01*
X138795693Y-71507140D01*
X138795696Y-71507142D01*
X138795697Y-71507142D01*
X138960903Y-71595446D01*
X139105712Y-71714288D01*
X139224554Y-71859097D01*
X139264747Y-71934294D01*
X139312860Y-72024307D01*
X139358855Y-72175932D01*
X139367240Y-72203575D01*
X139385601Y-72390000D01*
X139367240Y-72576425D01*
X139367239Y-72576428D01*
X139367239Y-72576429D01*
X139312860Y-72755693D01*
X139312858Y-72755696D01*
X139312858Y-72755697D01*
X139224554Y-72920903D01*
X139105712Y-73065712D01*
X138960903Y-73184554D01*
X138795697Y-73272858D01*
X138795693Y-73272860D01*
X138616429Y-73327239D01*
X138616428Y-73327239D01*
X138616425Y-73327240D01*
X138476718Y-73341000D01*
X138383282Y-73341000D01*
X138243575Y-73327240D01*
X138243572Y-73327239D01*
X138243571Y-73327239D01*
X138064307Y-73272860D01*
X138064303Y-73272858D01*
X137899097Y-73184554D01*
X137754288Y-73065712D01*
X137635446Y-72920903D01*
X137547142Y-72755697D01*
X137547142Y-72755696D01*
X137547140Y-72755693D01*
X137492761Y-72576429D01*
X137492761Y-72576428D01*
X137492760Y-72576425D01*
X137474399Y-72390000D01*
X137492760Y-72203575D01*
X137501145Y-72175932D01*
X137547140Y-72024307D01*
X137595253Y-71934294D01*
X137635446Y-71859097D01*
X137754288Y-71714288D01*
X137899097Y-71595446D01*
X138064303Y-71507142D01*
X138064304Y-71507142D01*
X138064307Y-71507140D01*
X138243571Y-71452761D01*
X138243572Y-71452761D01*
X138243575Y-71452760D01*
X138383282Y-71439000D01*
X138476718Y-71439000D01*
X138616425Y-71452760D01*
X138616425Y-71452760D01*
G37*
G36*
X141156425Y-71452760D02*
G01*
X141156428Y-71452761D01*
X141156429Y-71452761D01*
X141335693Y-71507140D01*
X141335696Y-71507142D01*
X141335697Y-71507142D01*
X141500903Y-71595446D01*
X141645712Y-71714288D01*
X141764554Y-71859097D01*
X141804747Y-71934294D01*
X141852860Y-72024307D01*
X141898855Y-72175932D01*
X141907240Y-72203575D01*
X141925601Y-72390000D01*
X141907240Y-72576425D01*
X141907239Y-72576428D01*
X141907239Y-72576429D01*
X141852860Y-72755693D01*
X141852858Y-72755696D01*
X141852858Y-72755697D01*
X141764554Y-72920903D01*
X141645712Y-73065712D01*
X141500903Y-73184554D01*
X141335697Y-73272858D01*
X141335693Y-73272860D01*
X141156429Y-73327239D01*
X141156428Y-73327239D01*
X141156425Y-73327240D01*
X141016718Y-73341000D01*
X140923282Y-73341000D01*
X140783575Y-73327240D01*
X140783572Y-73327239D01*
X140783571Y-73327239D01*
X140604307Y-73272860D01*
X140604303Y-73272858D01*
X140439097Y-73184554D01*
X140294288Y-73065712D01*
X140175446Y-72920903D01*
X140087142Y-72755697D01*
X140087142Y-72755696D01*
X140087140Y-72755693D01*
X140032761Y-72576429D01*
X140032761Y-72576428D01*
X140032760Y-72576425D01*
X140014399Y-72390000D01*
X140032760Y-72203575D01*
X140041145Y-72175932D01*
X140087140Y-72024307D01*
X140135253Y-71934294D01*
X140175446Y-71859097D01*
X140294288Y-71714288D01*
X140439097Y-71595446D01*
X140604303Y-71507142D01*
X140604304Y-71507142D01*
X140604307Y-71507140D01*
X140783571Y-71452761D01*
X140783572Y-71452761D01*
X140783575Y-71452760D01*
X140923282Y-71439000D01*
X141016718Y-71439000D01*
X141156425Y-71452760D01*
X141156425Y-71452760D01*
G37*
G36*
X148776425Y-71452760D02*
G01*
X148776428Y-71452761D01*
X148776429Y-71452761D01*
X148955693Y-71507140D01*
X148955696Y-71507142D01*
X148955697Y-71507142D01*
X149120903Y-71595446D01*
X149265712Y-71714288D01*
X149384554Y-71859097D01*
X149424747Y-71934294D01*
X149472860Y-72024307D01*
X149518855Y-72175932D01*
X149527240Y-72203575D01*
X149545601Y-72390000D01*
X149527240Y-72576425D01*
X149527239Y-72576428D01*
X149527239Y-72576429D01*
X149472860Y-72755693D01*
X149472858Y-72755696D01*
X149472858Y-72755697D01*
X149384554Y-72920903D01*
X149265712Y-73065712D01*
X149120903Y-73184554D01*
X148955697Y-73272858D01*
X148955693Y-73272860D01*
X148776429Y-73327239D01*
X148776428Y-73327239D01*
X148776425Y-73327240D01*
X148636718Y-73341000D01*
X148543282Y-73341000D01*
X148403575Y-73327240D01*
X148403572Y-73327239D01*
X148403571Y-73327239D01*
X148224307Y-73272860D01*
X148224303Y-73272858D01*
X148059097Y-73184554D01*
X147914288Y-73065712D01*
X147795446Y-72920903D01*
X147707142Y-72755697D01*
X147707142Y-72755696D01*
X147707140Y-72755693D01*
X147652761Y-72576429D01*
X147652761Y-72576428D01*
X147652760Y-72576425D01*
X147634399Y-72390000D01*
X147652760Y-72203575D01*
X147661145Y-72175932D01*
X147707140Y-72024307D01*
X147755253Y-71934294D01*
X147795446Y-71859097D01*
X147914288Y-71714288D01*
X148059097Y-71595446D01*
X148224303Y-71507142D01*
X148224304Y-71507142D01*
X148224307Y-71507140D01*
X148403571Y-71452761D01*
X148403572Y-71452761D01*
X148403575Y-71452760D01*
X148543282Y-71439000D01*
X148636718Y-71439000D01*
X148776425Y-71452760D01*
X148776425Y-71452760D01*
G37*
G36*
X151316425Y-71452760D02*
G01*
X151316428Y-71452761D01*
X151316429Y-71452761D01*
X151495693Y-71507140D01*
X151495696Y-71507142D01*
X151495697Y-71507142D01*
X151660903Y-71595446D01*
X151805712Y-71714288D01*
X151924554Y-71859097D01*
X151964747Y-71934294D01*
X152012860Y-72024307D01*
X152058855Y-72175932D01*
X152067240Y-72203575D01*
X152085601Y-72390000D01*
X152067240Y-72576425D01*
X152067239Y-72576428D01*
X152067239Y-72576429D01*
X152012860Y-72755693D01*
X152012858Y-72755696D01*
X152012858Y-72755697D01*
X151924554Y-72920903D01*
X151805712Y-73065712D01*
X151660903Y-73184554D01*
X151495697Y-73272858D01*
X151495693Y-73272860D01*
X151316429Y-73327239D01*
X151316428Y-73327239D01*
X151316425Y-73327240D01*
X151176718Y-73341000D01*
X151083282Y-73341000D01*
X150943575Y-73327240D01*
X150943572Y-73327239D01*
X150943571Y-73327239D01*
X150764307Y-73272860D01*
X150764303Y-73272858D01*
X150599097Y-73184554D01*
X150454288Y-73065712D01*
X150335446Y-72920903D01*
X150247142Y-72755697D01*
X150247142Y-72755696D01*
X150247140Y-72755693D01*
X150192761Y-72576429D01*
X150192761Y-72576428D01*
X150192760Y-72576425D01*
X150174399Y-72390000D01*
X150192760Y-72203575D01*
X150201145Y-72175932D01*
X150247140Y-72024307D01*
X150295253Y-71934294D01*
X150335446Y-71859097D01*
X150454288Y-71714288D01*
X150599097Y-71595446D01*
X150764303Y-71507142D01*
X150764304Y-71507142D01*
X150764307Y-71507140D01*
X150943571Y-71452761D01*
X150943572Y-71452761D01*
X150943575Y-71452760D01*
X151083282Y-71439000D01*
X151176718Y-71439000D01*
X151316425Y-71452760D01*
X151316425Y-71452760D01*
G37*
G36*
X146236425Y-71452760D02*
G01*
X146236428Y-71452761D01*
X146236429Y-71452761D01*
X146415693Y-71507140D01*
X146415696Y-71507142D01*
X146415697Y-71507142D01*
X146580903Y-71595446D01*
X146725712Y-71714288D01*
X146844554Y-71859097D01*
X146884747Y-71934294D01*
X146932860Y-72024307D01*
X146978855Y-72175932D01*
X146987240Y-72203575D01*
X147005601Y-72390000D01*
X146987240Y-72576425D01*
X146987239Y-72576428D01*
X146987239Y-72576429D01*
X146932860Y-72755693D01*
X146932858Y-72755696D01*
X146932858Y-72755697D01*
X146844554Y-72920903D01*
X146725712Y-73065712D01*
X146580903Y-73184554D01*
X146415697Y-73272858D01*
X146415693Y-73272860D01*
X146236429Y-73327239D01*
X146236428Y-73327239D01*
X146236425Y-73327240D01*
X146096718Y-73341000D01*
X146003282Y-73341000D01*
X145863575Y-73327240D01*
X145863572Y-73327239D01*
X145863571Y-73327239D01*
X145684307Y-73272860D01*
X145684303Y-73272858D01*
X145519097Y-73184554D01*
X145374288Y-73065712D01*
X145255446Y-72920903D01*
X145167142Y-72755697D01*
X145167142Y-72755696D01*
X145167140Y-72755693D01*
X145112761Y-72576429D01*
X145112761Y-72576428D01*
X145112760Y-72576425D01*
X145094399Y-72390000D01*
X145112760Y-72203575D01*
X145121145Y-72175932D01*
X145167140Y-72024307D01*
X145215253Y-71934294D01*
X145255446Y-71859097D01*
X145374288Y-71714288D01*
X145519097Y-71595446D01*
X145684303Y-71507142D01*
X145684304Y-71507142D01*
X145684307Y-71507140D01*
X145863571Y-71452761D01*
X145863572Y-71452761D01*
X145863575Y-71452760D01*
X146003282Y-71439000D01*
X146096718Y-71439000D01*
X146236425Y-71452760D01*
X146236425Y-71452760D01*
G37*
G36*
X143696425Y-71452760D02*
G01*
X143696428Y-71452761D01*
X143696429Y-71452761D01*
X143875693Y-71507140D01*
X143875696Y-71507142D01*
X143875697Y-71507142D01*
X144040903Y-71595446D01*
X144185712Y-71714288D01*
X144304554Y-71859097D01*
X144344747Y-71934294D01*
X144392860Y-72024307D01*
X144438855Y-72175932D01*
X144447240Y-72203575D01*
X144465601Y-72390000D01*
X144447240Y-72576425D01*
X144447239Y-72576428D01*
X144447239Y-72576429D01*
X144392860Y-72755693D01*
X144392858Y-72755696D01*
X144392858Y-72755697D01*
X144304554Y-72920903D01*
X144185712Y-73065712D01*
X144040903Y-73184554D01*
X143875697Y-73272858D01*
X143875693Y-73272860D01*
X143696429Y-73327239D01*
X143696428Y-73327239D01*
X143696425Y-73327240D01*
X143556718Y-73341000D01*
X143463282Y-73341000D01*
X143323575Y-73327240D01*
X143323572Y-73327239D01*
X143323571Y-73327239D01*
X143144307Y-73272860D01*
X143144303Y-73272858D01*
X142979097Y-73184554D01*
X142834288Y-73065712D01*
X142715446Y-72920903D01*
X142627142Y-72755697D01*
X142627142Y-72755696D01*
X142627140Y-72755693D01*
X142572761Y-72576429D01*
X142572761Y-72576428D01*
X142572760Y-72576425D01*
X142554399Y-72390000D01*
X142572760Y-72203575D01*
X142581145Y-72175932D01*
X142627140Y-72024307D01*
X142675253Y-71934294D01*
X142715446Y-71859097D01*
X142834288Y-71714288D01*
X142979097Y-71595446D01*
X143144303Y-71507142D01*
X143144304Y-71507142D01*
X143144307Y-71507140D01*
X143323571Y-71452761D01*
X143323572Y-71452761D01*
X143323575Y-71452760D01*
X143463282Y-71439000D01*
X143556718Y-71439000D01*
X143696425Y-71452760D01*
X143696425Y-71452760D01*
G37*
G36*
X153856425Y-71452760D02*
G01*
X153856428Y-71452761D01*
X153856429Y-71452761D01*
X154035693Y-71507140D01*
X154035696Y-71507142D01*
X154035697Y-71507142D01*
X154200903Y-71595446D01*
X154345712Y-71714288D01*
X154464554Y-71859097D01*
X154504747Y-71934294D01*
X154552860Y-72024307D01*
X154598855Y-72175932D01*
X154607240Y-72203575D01*
X154625601Y-72390000D01*
X154607240Y-72576425D01*
X154607239Y-72576428D01*
X154607239Y-72576429D01*
X154552860Y-72755693D01*
X154552858Y-72755696D01*
X154552858Y-72755697D01*
X154464554Y-72920903D01*
X154345712Y-73065712D01*
X154200903Y-73184554D01*
X154035697Y-73272858D01*
X154035693Y-73272860D01*
X153856429Y-73327239D01*
X153856428Y-73327239D01*
X153856425Y-73327240D01*
X153716718Y-73341000D01*
X153623282Y-73341000D01*
X153483575Y-73327240D01*
X153483572Y-73327239D01*
X153483571Y-73327239D01*
X153304307Y-73272860D01*
X153304303Y-73272858D01*
X153139097Y-73184554D01*
X152994288Y-73065712D01*
X152875446Y-72920903D01*
X152787142Y-72755697D01*
X152787142Y-72755696D01*
X152787140Y-72755693D01*
X152732761Y-72576429D01*
X152732761Y-72576428D01*
X152732760Y-72576425D01*
X152714399Y-72390000D01*
X152732760Y-72203575D01*
X152741145Y-72175932D01*
X152787140Y-72024307D01*
X152835253Y-71934294D01*
X152875446Y-71859097D01*
X152994288Y-71714288D01*
X153139097Y-71595446D01*
X153304303Y-71507142D01*
X153304304Y-71507142D01*
X153304307Y-71507140D01*
X153483571Y-71452761D01*
X153483572Y-71452761D01*
X153483575Y-71452760D01*
X153623282Y-71439000D01*
X153716718Y-71439000D01*
X153856425Y-71452760D01*
X153856425Y-71452760D01*
G37*
G36*
X172899294Y-70853633D02*
G01*
X173071695Y-70905931D01*
X173230583Y-70990858D01*
X173369849Y-71105151D01*
X173484142Y-71244417D01*
X173569069Y-71403305D01*
X173621367Y-71575706D01*
X173639025Y-71755000D01*
X173621367Y-71934294D01*
X173569069Y-72106695D01*
X173484142Y-72265583D01*
X173369849Y-72404849D01*
X173230583Y-72519142D01*
X173071695Y-72604069D01*
X172899294Y-72656367D01*
X172764931Y-72669600D01*
X172675069Y-72669600D01*
X172540706Y-72656367D01*
X172368305Y-72604069D01*
X172209417Y-72519142D01*
X172070151Y-72404849D01*
X171955858Y-72265583D01*
X171870931Y-72106695D01*
X171818633Y-71934294D01*
X171800975Y-71755000D01*
X171818633Y-71575706D01*
X171870931Y-71403305D01*
X171955858Y-71244417D01*
X172070151Y-71105151D01*
X172209417Y-70990858D01*
X172368305Y-70905931D01*
X172540706Y-70853633D01*
X172675069Y-70840400D01*
X172764931Y-70840400D01*
X172899294Y-70853633D01*
X172899294Y-70853633D01*
G37*
G36*
X177979294Y-70853633D02*
G01*
X178151695Y-70905931D01*
X178310583Y-70990858D01*
X178449849Y-71105151D01*
X178564142Y-71244417D01*
X178649069Y-71403305D01*
X178701367Y-71575706D01*
X178719025Y-71755000D01*
X178701367Y-71934294D01*
X178649069Y-72106695D01*
X178564142Y-72265583D01*
X178449849Y-72404849D01*
X178310583Y-72519142D01*
X178151695Y-72604069D01*
X177979294Y-72656367D01*
X177844931Y-72669600D01*
X177755069Y-72669600D01*
X177620706Y-72656367D01*
X177448305Y-72604069D01*
X177289417Y-72519142D01*
X177150151Y-72404849D01*
X177035858Y-72265583D01*
X176950931Y-72106695D01*
X176898633Y-71934294D01*
X176880975Y-71755000D01*
X176898633Y-71575706D01*
X176950931Y-71403305D01*
X177035858Y-71244417D01*
X177150151Y-71105151D01*
X177289417Y-70990858D01*
X177448305Y-70905931D01*
X177620706Y-70853633D01*
X177755069Y-70840400D01*
X177844931Y-70840400D01*
X177979294Y-70853633D01*
X177979294Y-70853633D01*
G37*
G36*
X109330442Y-70860518D02*
G01*
X109396627Y-70867037D01*
X109566466Y-70918557D01*
X109722991Y-71002222D01*
X109758729Y-71031552D01*
X109860186Y-71114814D01*
X109943448Y-71216271D01*
X109972778Y-71252009D01*
X109972779Y-71252011D01*
X110053648Y-71403304D01*
X110056443Y-71408534D01*
X110107963Y-71578373D01*
X110125359Y-71755000D01*
X110107963Y-71931627D01*
X110056443Y-72101466D01*
X110056442Y-72101468D01*
X110051668Y-72110400D01*
X109972778Y-72257991D01*
X109970425Y-72260858D01*
X109860186Y-72395186D01*
X109758729Y-72478448D01*
X109722991Y-72507778D01*
X109722989Y-72507779D01*
X109594563Y-72576425D01*
X109566466Y-72591443D01*
X109396627Y-72642963D01*
X109330443Y-72649481D01*
X109264260Y-72656000D01*
X109175740Y-72656000D01*
X109109557Y-72649481D01*
X109043373Y-72642963D01*
X108873534Y-72591443D01*
X108845438Y-72576425D01*
X108717011Y-72507779D01*
X108717009Y-72507778D01*
X108681271Y-72478448D01*
X108579814Y-72395186D01*
X108469575Y-72260858D01*
X108467222Y-72257991D01*
X108388332Y-72110400D01*
X108383558Y-72101468D01*
X108383557Y-72101466D01*
X108332037Y-71931627D01*
X108314641Y-71755000D01*
X108332037Y-71578373D01*
X108383557Y-71408534D01*
X108386353Y-71403304D01*
X108467221Y-71252011D01*
X108467222Y-71252009D01*
X108496552Y-71216271D01*
X108579814Y-71114814D01*
X108681271Y-71031552D01*
X108717009Y-71002222D01*
X108873534Y-70918557D01*
X109043373Y-70867037D01*
X109109558Y-70860518D01*
X109175740Y-70854000D01*
X109264260Y-70854000D01*
X109330442Y-70860518D01*
X109330442Y-70860518D01*
G37*
G36*
X113775442Y-70860518D02*
G01*
X113841627Y-70867037D01*
X114011466Y-70918557D01*
X114167991Y-71002222D01*
X114203729Y-71031552D01*
X114305186Y-71114814D01*
X114388448Y-71216271D01*
X114417778Y-71252009D01*
X114417779Y-71252011D01*
X114498648Y-71403304D01*
X114501443Y-71408534D01*
X114552963Y-71578373D01*
X114570359Y-71755000D01*
X114552963Y-71931627D01*
X114501443Y-72101466D01*
X114501442Y-72101468D01*
X114496668Y-72110400D01*
X114417778Y-72257991D01*
X114415425Y-72260858D01*
X114305186Y-72395186D01*
X114203729Y-72478448D01*
X114167991Y-72507778D01*
X114167989Y-72507779D01*
X114039563Y-72576425D01*
X114011466Y-72591443D01*
X113841627Y-72642963D01*
X113775443Y-72649481D01*
X113709260Y-72656000D01*
X113620740Y-72656000D01*
X113554557Y-72649481D01*
X113488373Y-72642963D01*
X113318534Y-72591443D01*
X113290438Y-72576425D01*
X113162011Y-72507779D01*
X113162009Y-72507778D01*
X113126271Y-72478448D01*
X113024814Y-72395186D01*
X112914575Y-72260858D01*
X112912222Y-72257991D01*
X112833332Y-72110400D01*
X112828558Y-72101468D01*
X112828557Y-72101466D01*
X112777037Y-71931627D01*
X112759641Y-71755000D01*
X112777037Y-71578373D01*
X112828557Y-71408534D01*
X112831353Y-71403304D01*
X112912221Y-71252011D01*
X112912222Y-71252009D01*
X112941552Y-71216271D01*
X113024814Y-71114814D01*
X113126271Y-71031552D01*
X113162009Y-71002222D01*
X113318534Y-70918557D01*
X113488373Y-70867037D01*
X113554558Y-70860518D01*
X113620740Y-70854000D01*
X113709260Y-70854000D01*
X113775442Y-70860518D01*
X113775442Y-70860518D01*
G37*
G36*
X118220442Y-70860518D02*
G01*
X118286627Y-70867037D01*
X118456466Y-70918557D01*
X118612991Y-71002222D01*
X118648729Y-71031552D01*
X118750186Y-71114814D01*
X118833448Y-71216271D01*
X118862778Y-71252009D01*
X118862779Y-71252011D01*
X118943648Y-71403304D01*
X118946443Y-71408534D01*
X118997963Y-71578373D01*
X119015359Y-71755000D01*
X118997963Y-71931627D01*
X118946443Y-72101466D01*
X118946442Y-72101468D01*
X118941668Y-72110400D01*
X118862778Y-72257991D01*
X118860425Y-72260858D01*
X118750186Y-72395186D01*
X118648729Y-72478448D01*
X118612991Y-72507778D01*
X118612989Y-72507779D01*
X118484563Y-72576425D01*
X118456466Y-72591443D01*
X118286627Y-72642963D01*
X118220443Y-72649481D01*
X118154260Y-72656000D01*
X118065740Y-72656000D01*
X117999557Y-72649481D01*
X117933373Y-72642963D01*
X117763534Y-72591443D01*
X117735438Y-72576425D01*
X117607011Y-72507779D01*
X117607009Y-72507778D01*
X117571271Y-72478448D01*
X117469814Y-72395186D01*
X117359575Y-72260858D01*
X117357222Y-72257991D01*
X117278332Y-72110400D01*
X117273558Y-72101468D01*
X117273557Y-72101466D01*
X117222037Y-71931627D01*
X117204641Y-71755000D01*
X117222037Y-71578373D01*
X117273557Y-71408534D01*
X117276353Y-71403304D01*
X117357221Y-71252011D01*
X117357222Y-71252009D01*
X117386552Y-71216271D01*
X117469814Y-71114814D01*
X117571271Y-71031552D01*
X117607009Y-71002222D01*
X117763534Y-70918557D01*
X117933373Y-70867037D01*
X117999558Y-70860518D01*
X118065740Y-70854000D01*
X118154260Y-70854000D01*
X118220442Y-70860518D01*
X118220442Y-70860518D01*
G37*
G36*
X175439294Y-69583633D02*
G01*
X175611695Y-69635931D01*
X175770583Y-69720858D01*
X175909849Y-69835151D01*
X176024142Y-69974417D01*
X176109069Y-70133305D01*
X176161367Y-70305706D01*
X176179025Y-70485000D01*
X176161367Y-70664294D01*
X176109069Y-70836695D01*
X176024142Y-70995583D01*
X175909849Y-71134849D01*
X175770583Y-71249142D01*
X175611695Y-71334069D01*
X175439294Y-71386367D01*
X175304931Y-71399600D01*
X175215069Y-71399600D01*
X175080706Y-71386367D01*
X174908305Y-71334069D01*
X174749417Y-71249142D01*
X174610151Y-71134849D01*
X174495858Y-70995583D01*
X174410931Y-70836695D01*
X174358633Y-70664294D01*
X174340975Y-70485000D01*
X174358633Y-70305706D01*
X174410931Y-70133305D01*
X174495858Y-69974417D01*
X174610151Y-69835151D01*
X174749417Y-69720858D01*
X174908305Y-69635931D01*
X175080706Y-69583633D01*
X175215069Y-69570400D01*
X175304931Y-69570400D01*
X175439294Y-69583633D01*
X175439294Y-69583633D01*
G37*
G36*
X170359294Y-69583633D02*
G01*
X170531695Y-69635931D01*
X170690583Y-69720858D01*
X170829849Y-69835151D01*
X170944142Y-69974417D01*
X171029069Y-70133305D01*
X171081367Y-70305706D01*
X171099025Y-70485000D01*
X171081367Y-70664294D01*
X171029069Y-70836695D01*
X170944142Y-70995583D01*
X170829849Y-71134849D01*
X170690583Y-71249142D01*
X170531695Y-71334069D01*
X170359294Y-71386367D01*
X170224931Y-71399600D01*
X170135069Y-71399600D01*
X170000706Y-71386367D01*
X169828305Y-71334069D01*
X169669417Y-71249142D01*
X169530151Y-71134849D01*
X169415858Y-70995583D01*
X169330931Y-70836695D01*
X169278633Y-70664294D01*
X169260975Y-70485000D01*
X169278633Y-70305706D01*
X169330931Y-70133305D01*
X169415858Y-69974417D01*
X169530151Y-69835151D01*
X169669417Y-69720858D01*
X169828305Y-69635931D01*
X170000706Y-69583633D01*
X170135069Y-69570400D01*
X170224931Y-69570400D01*
X170359294Y-69583633D01*
X170359294Y-69583633D01*
G37*
G36*
X177979294Y-68313633D02*
G01*
X178151695Y-68365931D01*
X178310583Y-68450858D01*
X178449849Y-68565151D01*
X178564142Y-68704417D01*
X178649069Y-68863305D01*
X178701367Y-69035706D01*
X178719025Y-69215000D01*
X178701367Y-69394294D01*
X178649069Y-69566695D01*
X178564142Y-69725583D01*
X178449849Y-69864849D01*
X178310583Y-69979142D01*
X178151695Y-70064069D01*
X177979294Y-70116367D01*
X177844931Y-70129600D01*
X177755069Y-70129600D01*
X177620706Y-70116367D01*
X177448305Y-70064069D01*
X177289417Y-69979142D01*
X177150151Y-69864849D01*
X177035858Y-69725583D01*
X176950931Y-69566695D01*
X176898633Y-69394294D01*
X176880975Y-69215000D01*
X176898633Y-69035706D01*
X176950931Y-68863305D01*
X177035858Y-68704417D01*
X177150151Y-68565151D01*
X177289417Y-68450858D01*
X177448305Y-68365931D01*
X177620706Y-68313633D01*
X177755069Y-68300400D01*
X177844931Y-68300400D01*
X177979294Y-68313633D01*
X177979294Y-68313633D01*
G37*
G36*
X172899294Y-68313633D02*
G01*
X173071695Y-68365931D01*
X173230583Y-68450858D01*
X173369849Y-68565151D01*
X173484142Y-68704417D01*
X173569069Y-68863305D01*
X173621367Y-69035706D01*
X173639025Y-69215000D01*
X173621367Y-69394294D01*
X173569069Y-69566695D01*
X173484142Y-69725583D01*
X173369849Y-69864849D01*
X173230583Y-69979142D01*
X173071695Y-70064069D01*
X172899294Y-70116367D01*
X172764931Y-70129600D01*
X172675069Y-70129600D01*
X172540706Y-70116367D01*
X172368305Y-70064069D01*
X172209417Y-69979142D01*
X172070151Y-69864849D01*
X171955858Y-69725583D01*
X171870931Y-69566695D01*
X171818633Y-69394294D01*
X171800975Y-69215000D01*
X171818633Y-69035706D01*
X171870931Y-68863305D01*
X171955858Y-68704417D01*
X172070151Y-68565151D01*
X172209417Y-68450858D01*
X172368305Y-68365931D01*
X172540706Y-68313633D01*
X172675069Y-68300400D01*
X172764931Y-68300400D01*
X172899294Y-68313633D01*
X172899294Y-68313633D01*
G37*
G36*
X114566000Y-70116000D02*
G01*
X112764000Y-70116000D01*
X112764000Y-68314000D01*
X114566000Y-68314000D01*
X114566000Y-70116000D01*
X114566000Y-70116000D01*
G37*
G36*
X119011000Y-70116000D02*
G01*
X117209000Y-70116000D01*
X117209000Y-68314000D01*
X119011000Y-68314000D01*
X119011000Y-70116000D01*
X119011000Y-70116000D01*
G37*
G36*
X110121000Y-70116000D02*
G01*
X108319000Y-70116000D01*
X108319000Y-68314000D01*
X110121000Y-68314000D01*
X110121000Y-70116000D01*
X110121000Y-70116000D01*
G37*
G36*
X147506425Y-66372760D02*
G01*
X147506428Y-66372761D01*
X147506429Y-66372761D01*
X147685693Y-66427140D01*
X147685696Y-66427142D01*
X147685697Y-66427142D01*
X147850903Y-66515446D01*
X147995712Y-66634288D01*
X148114554Y-66779097D01*
X148202858Y-66944303D01*
X148202860Y-66944307D01*
X148257239Y-67123571D01*
X148257240Y-67123575D01*
X148275601Y-67310000D01*
X148257240Y-67496425D01*
X148257239Y-67496428D01*
X148257239Y-67496429D01*
X148202860Y-67675693D01*
X148202858Y-67675696D01*
X148202858Y-67675697D01*
X148114554Y-67840903D01*
X147995712Y-67985712D01*
X147850903Y-68104554D01*
X147685697Y-68192858D01*
X147685693Y-68192860D01*
X147506429Y-68247239D01*
X147506428Y-68247239D01*
X147506425Y-68247240D01*
X147366718Y-68261000D01*
X147273282Y-68261000D01*
X147133575Y-68247240D01*
X147133572Y-68247239D01*
X147133571Y-68247239D01*
X146954307Y-68192860D01*
X146954303Y-68192858D01*
X146789097Y-68104554D01*
X146644288Y-67985712D01*
X146525446Y-67840903D01*
X146437142Y-67675697D01*
X146437142Y-67675696D01*
X146437140Y-67675693D01*
X146382761Y-67496429D01*
X146382761Y-67496428D01*
X146382760Y-67496425D01*
X146364399Y-67310000D01*
X146382760Y-67123575D01*
X146382761Y-67123571D01*
X146437140Y-66944307D01*
X146437142Y-66944303D01*
X146525446Y-66779097D01*
X146644288Y-66634288D01*
X146789097Y-66515446D01*
X146954303Y-66427142D01*
X146954304Y-66427142D01*
X146954307Y-66427140D01*
X147133571Y-66372761D01*
X147133572Y-66372761D01*
X147133575Y-66372760D01*
X147273282Y-66359000D01*
X147366718Y-66359000D01*
X147506425Y-66372760D01*
X147506425Y-66372760D01*
G37*
G36*
X150046425Y-66372760D02*
G01*
X150046428Y-66372761D01*
X150046429Y-66372761D01*
X150225693Y-66427140D01*
X150225696Y-66427142D01*
X150225697Y-66427142D01*
X150390903Y-66515446D01*
X150535712Y-66634288D01*
X150654554Y-66779097D01*
X150742858Y-66944303D01*
X150742860Y-66944307D01*
X150797239Y-67123571D01*
X150797240Y-67123575D01*
X150815601Y-67310000D01*
X150797240Y-67496425D01*
X150797239Y-67496428D01*
X150797239Y-67496429D01*
X150742860Y-67675693D01*
X150742858Y-67675696D01*
X150742858Y-67675697D01*
X150654554Y-67840903D01*
X150535712Y-67985712D01*
X150390903Y-68104554D01*
X150225697Y-68192858D01*
X150225693Y-68192860D01*
X150046429Y-68247239D01*
X150046428Y-68247239D01*
X150046425Y-68247240D01*
X149906718Y-68261000D01*
X149813282Y-68261000D01*
X149673575Y-68247240D01*
X149673572Y-68247239D01*
X149673571Y-68247239D01*
X149494307Y-68192860D01*
X149494303Y-68192858D01*
X149329097Y-68104554D01*
X149184288Y-67985712D01*
X149065446Y-67840903D01*
X148977142Y-67675697D01*
X148977142Y-67675696D01*
X148977140Y-67675693D01*
X148922761Y-67496429D01*
X148922761Y-67496428D01*
X148922760Y-67496425D01*
X148904399Y-67310000D01*
X148922760Y-67123575D01*
X148922761Y-67123571D01*
X148977140Y-66944307D01*
X148977142Y-66944303D01*
X149065446Y-66779097D01*
X149184288Y-66634288D01*
X149329097Y-66515446D01*
X149494303Y-66427142D01*
X149494304Y-66427142D01*
X149494307Y-66427140D01*
X149673571Y-66372761D01*
X149673572Y-66372761D01*
X149673575Y-66372760D01*
X149813282Y-66359000D01*
X149906718Y-66359000D01*
X150046425Y-66372760D01*
X150046425Y-66372760D01*
G37*
G36*
X152586425Y-66372760D02*
G01*
X152586428Y-66372761D01*
X152586429Y-66372761D01*
X152765693Y-66427140D01*
X152765696Y-66427142D01*
X152765697Y-66427142D01*
X152930903Y-66515446D01*
X153075712Y-66634288D01*
X153194554Y-66779097D01*
X153282858Y-66944303D01*
X153282860Y-66944307D01*
X153337239Y-67123571D01*
X153337240Y-67123575D01*
X153355601Y-67310000D01*
X153337240Y-67496425D01*
X153337239Y-67496428D01*
X153337239Y-67496429D01*
X153282860Y-67675693D01*
X153282858Y-67675696D01*
X153282858Y-67675697D01*
X153194554Y-67840903D01*
X153075712Y-67985712D01*
X152930903Y-68104554D01*
X152765697Y-68192858D01*
X152765693Y-68192860D01*
X152586429Y-68247239D01*
X152586428Y-68247239D01*
X152586425Y-68247240D01*
X152446718Y-68261000D01*
X152353282Y-68261000D01*
X152213575Y-68247240D01*
X152213572Y-68247239D01*
X152213571Y-68247239D01*
X152034307Y-68192860D01*
X152034303Y-68192858D01*
X151869097Y-68104554D01*
X151724288Y-67985712D01*
X151605446Y-67840903D01*
X151517142Y-67675697D01*
X151517142Y-67675696D01*
X151517140Y-67675693D01*
X151462761Y-67496429D01*
X151462761Y-67496428D01*
X151462760Y-67496425D01*
X151444399Y-67310000D01*
X151462760Y-67123575D01*
X151462761Y-67123571D01*
X151517140Y-66944307D01*
X151517142Y-66944303D01*
X151605446Y-66779097D01*
X151724288Y-66634288D01*
X151869097Y-66515446D01*
X152034303Y-66427142D01*
X152034304Y-66427142D01*
X152034307Y-66427140D01*
X152213571Y-66372761D01*
X152213572Y-66372761D01*
X152213575Y-66372760D01*
X152353282Y-66359000D01*
X152446718Y-66359000D01*
X152586425Y-66372760D01*
X152586425Y-66372760D01*
G37*
G36*
X137346425Y-66372760D02*
G01*
X137346428Y-66372761D01*
X137346429Y-66372761D01*
X137525693Y-66427140D01*
X137525696Y-66427142D01*
X137525697Y-66427142D01*
X137690903Y-66515446D01*
X137835712Y-66634288D01*
X137954554Y-66779097D01*
X138042858Y-66944303D01*
X138042860Y-66944307D01*
X138097239Y-67123571D01*
X138097240Y-67123575D01*
X138115601Y-67310000D01*
X138097240Y-67496425D01*
X138097239Y-67496428D01*
X138097239Y-67496429D01*
X138042860Y-67675693D01*
X138042858Y-67675696D01*
X138042858Y-67675697D01*
X137954554Y-67840903D01*
X137835712Y-67985712D01*
X137690903Y-68104554D01*
X137525697Y-68192858D01*
X137525693Y-68192860D01*
X137346429Y-68247239D01*
X137346428Y-68247239D01*
X137346425Y-68247240D01*
X137206718Y-68261000D01*
X137113282Y-68261000D01*
X136973575Y-68247240D01*
X136973572Y-68247239D01*
X136973571Y-68247239D01*
X136794307Y-68192860D01*
X136794303Y-68192858D01*
X136629097Y-68104554D01*
X136484288Y-67985712D01*
X136365446Y-67840903D01*
X136277142Y-67675697D01*
X136277142Y-67675696D01*
X136277140Y-67675693D01*
X136222761Y-67496429D01*
X136222761Y-67496428D01*
X136222760Y-67496425D01*
X136204399Y-67310000D01*
X136222760Y-67123575D01*
X136222761Y-67123571D01*
X136277140Y-66944307D01*
X136277142Y-66944303D01*
X136365446Y-66779097D01*
X136484288Y-66634288D01*
X136629097Y-66515446D01*
X136794303Y-66427142D01*
X136794304Y-66427142D01*
X136794307Y-66427140D01*
X136973571Y-66372761D01*
X136973572Y-66372761D01*
X136973575Y-66372760D01*
X137113282Y-66359000D01*
X137206718Y-66359000D01*
X137346425Y-66372760D01*
X137346425Y-66372760D01*
G37*
G36*
X139886425Y-66372760D02*
G01*
X139886428Y-66372761D01*
X139886429Y-66372761D01*
X140065693Y-66427140D01*
X140065696Y-66427142D01*
X140065697Y-66427142D01*
X140230903Y-66515446D01*
X140375712Y-66634288D01*
X140494554Y-66779097D01*
X140582858Y-66944303D01*
X140582860Y-66944307D01*
X140637239Y-67123571D01*
X140637240Y-67123575D01*
X140655601Y-67310000D01*
X140637240Y-67496425D01*
X140637239Y-67496428D01*
X140637239Y-67496429D01*
X140582860Y-67675693D01*
X140582858Y-67675696D01*
X140582858Y-67675697D01*
X140494554Y-67840903D01*
X140375712Y-67985712D01*
X140230903Y-68104554D01*
X140065697Y-68192858D01*
X140065693Y-68192860D01*
X139886429Y-68247239D01*
X139886428Y-68247239D01*
X139886425Y-68247240D01*
X139746718Y-68261000D01*
X139653282Y-68261000D01*
X139513575Y-68247240D01*
X139513572Y-68247239D01*
X139513571Y-68247239D01*
X139334307Y-68192860D01*
X139334303Y-68192858D01*
X139169097Y-68104554D01*
X139024288Y-67985712D01*
X138905446Y-67840903D01*
X138817142Y-67675697D01*
X138817142Y-67675696D01*
X138817140Y-67675693D01*
X138762761Y-67496429D01*
X138762761Y-67496428D01*
X138762760Y-67496425D01*
X138744399Y-67310000D01*
X138762760Y-67123575D01*
X138762761Y-67123571D01*
X138817140Y-66944307D01*
X138817142Y-66944303D01*
X138905446Y-66779097D01*
X139024288Y-66634288D01*
X139169097Y-66515446D01*
X139334303Y-66427142D01*
X139334304Y-66427142D01*
X139334307Y-66427140D01*
X139513571Y-66372761D01*
X139513572Y-66372761D01*
X139513575Y-66372760D01*
X139653282Y-66359000D01*
X139746718Y-66359000D01*
X139886425Y-66372760D01*
X139886425Y-66372760D01*
G37*
G36*
X144966425Y-66372760D02*
G01*
X144966428Y-66372761D01*
X144966429Y-66372761D01*
X145145693Y-66427140D01*
X145145696Y-66427142D01*
X145145697Y-66427142D01*
X145310903Y-66515446D01*
X145455712Y-66634288D01*
X145574554Y-66779097D01*
X145662858Y-66944303D01*
X145662860Y-66944307D01*
X145717239Y-67123571D01*
X145717240Y-67123575D01*
X145735601Y-67310000D01*
X145717240Y-67496425D01*
X145717239Y-67496428D01*
X145717239Y-67496429D01*
X145662860Y-67675693D01*
X145662858Y-67675696D01*
X145662858Y-67675697D01*
X145574554Y-67840903D01*
X145455712Y-67985712D01*
X145310903Y-68104554D01*
X145145697Y-68192858D01*
X145145693Y-68192860D01*
X144966429Y-68247239D01*
X144966428Y-68247239D01*
X144966425Y-68247240D01*
X144826718Y-68261000D01*
X144733282Y-68261000D01*
X144593575Y-68247240D01*
X144593572Y-68247239D01*
X144593571Y-68247239D01*
X144414307Y-68192860D01*
X144414303Y-68192858D01*
X144249097Y-68104554D01*
X144104288Y-67985712D01*
X143985446Y-67840903D01*
X143897142Y-67675697D01*
X143897142Y-67675696D01*
X143897140Y-67675693D01*
X143842761Y-67496429D01*
X143842761Y-67496428D01*
X143842760Y-67496425D01*
X143824399Y-67310000D01*
X143842760Y-67123575D01*
X143842761Y-67123571D01*
X143897140Y-66944307D01*
X143897142Y-66944303D01*
X143985446Y-66779097D01*
X144104288Y-66634288D01*
X144249097Y-66515446D01*
X144414303Y-66427142D01*
X144414304Y-66427142D01*
X144414307Y-66427140D01*
X144593571Y-66372761D01*
X144593572Y-66372761D01*
X144593575Y-66372760D01*
X144733282Y-66359000D01*
X144826718Y-66359000D01*
X144966425Y-66372760D01*
X144966425Y-66372760D01*
G37*
G36*
X142426425Y-66372760D02*
G01*
X142426428Y-66372761D01*
X142426429Y-66372761D01*
X142605693Y-66427140D01*
X142605696Y-66427142D01*
X142605697Y-66427142D01*
X142770903Y-66515446D01*
X142915712Y-66634288D01*
X143034554Y-66779097D01*
X143122858Y-66944303D01*
X143122860Y-66944307D01*
X143177239Y-67123571D01*
X143177240Y-67123575D01*
X143195601Y-67310000D01*
X143177240Y-67496425D01*
X143177239Y-67496428D01*
X143177239Y-67496429D01*
X143122860Y-67675693D01*
X143122858Y-67675696D01*
X143122858Y-67675697D01*
X143034554Y-67840903D01*
X142915712Y-67985712D01*
X142770903Y-68104554D01*
X142605697Y-68192858D01*
X142605693Y-68192860D01*
X142426429Y-68247239D01*
X142426428Y-68247239D01*
X142426425Y-68247240D01*
X142286718Y-68261000D01*
X142193282Y-68261000D01*
X142053575Y-68247240D01*
X142053572Y-68247239D01*
X142053571Y-68247239D01*
X141874307Y-68192860D01*
X141874303Y-68192858D01*
X141709097Y-68104554D01*
X141564288Y-67985712D01*
X141445446Y-67840903D01*
X141357142Y-67675697D01*
X141357142Y-67675696D01*
X141357140Y-67675693D01*
X141302761Y-67496429D01*
X141302761Y-67496428D01*
X141302760Y-67496425D01*
X141284399Y-67310000D01*
X141302760Y-67123575D01*
X141302761Y-67123571D01*
X141357140Y-66944307D01*
X141357142Y-66944303D01*
X141445446Y-66779097D01*
X141564288Y-66634288D01*
X141709097Y-66515446D01*
X141874303Y-66427142D01*
X141874304Y-66427142D01*
X141874307Y-66427140D01*
X142053571Y-66372761D01*
X142053572Y-66372761D01*
X142053575Y-66372760D01*
X142193282Y-66359000D01*
X142286718Y-66359000D01*
X142426425Y-66372760D01*
X142426425Y-66372760D01*
G37*
G36*
X181720443Y-61335519D02*
G01*
X181786627Y-61342037D01*
X181956466Y-61393557D01*
X182112991Y-61477222D01*
X182148729Y-61506552D01*
X182250186Y-61589814D01*
X182333448Y-61691271D01*
X182362778Y-61727009D01*
X182446443Y-61883534D01*
X182497963Y-62053373D01*
X182515359Y-62230000D01*
X182497963Y-62406627D01*
X182446443Y-62576466D01*
X182362778Y-62732991D01*
X182333448Y-62768729D01*
X182250186Y-62870186D01*
X182148729Y-62953448D01*
X182112991Y-62982778D01*
X181956466Y-63066443D01*
X181786627Y-63117963D01*
X181720443Y-63124481D01*
X181654260Y-63131000D01*
X181565740Y-63131000D01*
X181499557Y-63124481D01*
X181433373Y-63117963D01*
X181263534Y-63066443D01*
X181107009Y-62982778D01*
X181071271Y-62953448D01*
X180969814Y-62870186D01*
X180886552Y-62768729D01*
X180857222Y-62732991D01*
X180773557Y-62576466D01*
X180722037Y-62406627D01*
X180704641Y-62230000D01*
X180722037Y-62053373D01*
X180773557Y-61883534D01*
X180857222Y-61727009D01*
X180886552Y-61691271D01*
X180969814Y-61589814D01*
X181071271Y-61506552D01*
X181107009Y-61477222D01*
X181263534Y-61393557D01*
X181433373Y-61342037D01*
X181499557Y-61335519D01*
X181565740Y-61329000D01*
X181654260Y-61329000D01*
X181720443Y-61335519D01*
X181720443Y-61335519D01*
G37*
G36*
X111956719Y-59288520D02*
G01*
X112138070Y-59343532D01*
X112145883Y-59345902D01*
X112238333Y-59395318D01*
X112320212Y-59439083D01*
X112473015Y-59564485D01*
X112598417Y-59717288D01*
X112691599Y-59891619D01*
X112748980Y-60080780D01*
X112748980Y-60080782D01*
X112760032Y-60192989D01*
X112763500Y-60228206D01*
X112763500Y-60421793D01*
X112748980Y-60569219D01*
X112691599Y-60758380D01*
X112691598Y-60758383D01*
X112642182Y-60850833D01*
X112598417Y-60932712D01*
X112473015Y-61085515D01*
X112320212Y-61210917D01*
X112145881Y-61304099D01*
X111956720Y-61361480D01*
X111760000Y-61380855D01*
X111563281Y-61361480D01*
X111374120Y-61304099D01*
X111199788Y-61210917D01*
X111046985Y-61085515D01*
X110921583Y-60932712D01*
X110828401Y-60758381D01*
X110771020Y-60569220D01*
X110756500Y-60421794D01*
X110756500Y-60228207D01*
X110771020Y-60080781D01*
X110828401Y-59891620D01*
X110828402Y-59891617D01*
X110877818Y-59799167D01*
X110921583Y-59717288D01*
X111046985Y-59564485D01*
X111199788Y-59439083D01*
X111374119Y-59345901D01*
X111563280Y-59288520D01*
X111760000Y-59269145D01*
X111956719Y-59288520D01*
X111956719Y-59288520D01*
G37*
G36*
X114496719Y-59288520D02*
G01*
X114678070Y-59343532D01*
X114685883Y-59345902D01*
X114778333Y-59395318D01*
X114860212Y-59439083D01*
X115013015Y-59564485D01*
X115138417Y-59717288D01*
X115231599Y-59891619D01*
X115288980Y-60080780D01*
X115288980Y-60080782D01*
X115300032Y-60192989D01*
X115303500Y-60228206D01*
X115303500Y-60421793D01*
X115288980Y-60569219D01*
X115231599Y-60758380D01*
X115231598Y-60758383D01*
X115182182Y-60850833D01*
X115138417Y-60932712D01*
X115013015Y-61085515D01*
X114860212Y-61210917D01*
X114685881Y-61304099D01*
X114496720Y-61361480D01*
X114300000Y-61380855D01*
X114103281Y-61361480D01*
X113914120Y-61304099D01*
X113739788Y-61210917D01*
X113586985Y-61085515D01*
X113461583Y-60932712D01*
X113368401Y-60758381D01*
X113311020Y-60569220D01*
X113296500Y-60421794D01*
X113296500Y-60228207D01*
X113311020Y-60080781D01*
X113368401Y-59891620D01*
X113368402Y-59891617D01*
X113417818Y-59799167D01*
X113461583Y-59717288D01*
X113586985Y-59564485D01*
X113739788Y-59439083D01*
X113914119Y-59345901D01*
X114103280Y-59288520D01*
X114300000Y-59269145D01*
X114496719Y-59288520D01*
X114496719Y-59288520D01*
G37*
G36*
X110223500Y-61376000D02*
G01*
X108216500Y-61376000D01*
X108216500Y-59274000D01*
X110223500Y-59274000D01*
X110223500Y-61376000D01*
X110223500Y-61376000D01*
G37*
G36*
X181720442Y-58795518D02*
G01*
X181786627Y-58802037D01*
X181956466Y-58853557D01*
X182112991Y-58937222D01*
X182148729Y-58966552D01*
X182250186Y-59049814D01*
X182333448Y-59151271D01*
X182362778Y-59187009D01*
X182446443Y-59343534D01*
X182497963Y-59513373D01*
X182515359Y-59690000D01*
X182497963Y-59866627D01*
X182490381Y-59891620D01*
X182446442Y-60036468D01*
X182422756Y-60080781D01*
X182362778Y-60192991D01*
X182333878Y-60228205D01*
X182250186Y-60330186D01*
X182148729Y-60413448D01*
X182112991Y-60442778D01*
X181956466Y-60526443D01*
X181786627Y-60577963D01*
X181720443Y-60584481D01*
X181654260Y-60591000D01*
X181565740Y-60591000D01*
X181499557Y-60584481D01*
X181433373Y-60577963D01*
X181263534Y-60526443D01*
X181107009Y-60442778D01*
X181071271Y-60413448D01*
X180969814Y-60330186D01*
X180886122Y-60228205D01*
X180857222Y-60192991D01*
X180797244Y-60080781D01*
X180773558Y-60036468D01*
X180729619Y-59891620D01*
X180722037Y-59866627D01*
X180704641Y-59690000D01*
X180722037Y-59513373D01*
X180773557Y-59343534D01*
X180857222Y-59187009D01*
X180886552Y-59151271D01*
X180969814Y-59049814D01*
X181071271Y-58966552D01*
X181107009Y-58937222D01*
X181263534Y-58853557D01*
X181433373Y-58802037D01*
X181499558Y-58795518D01*
X181565740Y-58789000D01*
X181654260Y-58789000D01*
X181720442Y-58795518D01*
X181720442Y-58795518D01*
G37*
G36*
X181720443Y-56255519D02*
G01*
X181786627Y-56262037D01*
X181956466Y-56313557D01*
X182112991Y-56397222D01*
X182148729Y-56426552D01*
X182250186Y-56509814D01*
X182333448Y-56611271D01*
X182362778Y-56647009D01*
X182446443Y-56803534D01*
X182497963Y-56973373D01*
X182515359Y-57150000D01*
X182497963Y-57326627D01*
X182446443Y-57496466D01*
X182362778Y-57652991D01*
X182333448Y-57688729D01*
X182250186Y-57790186D01*
X182148729Y-57873448D01*
X182112991Y-57902778D01*
X181956466Y-57986443D01*
X181786627Y-58037963D01*
X181720442Y-58044482D01*
X181654260Y-58051000D01*
X181565740Y-58051000D01*
X181499558Y-58044482D01*
X181433373Y-58037963D01*
X181263534Y-57986443D01*
X181107009Y-57902778D01*
X181071271Y-57873448D01*
X180969814Y-57790186D01*
X180886552Y-57688729D01*
X180857222Y-57652991D01*
X180773557Y-57496466D01*
X180722037Y-57326627D01*
X180704641Y-57150000D01*
X180722037Y-56973373D01*
X180773557Y-56803534D01*
X180857222Y-56647009D01*
X180886552Y-56611271D01*
X180969814Y-56509814D01*
X181071271Y-56426552D01*
X181107009Y-56397222D01*
X181263534Y-56313557D01*
X181433373Y-56262037D01*
X181499557Y-56255519D01*
X181565740Y-56249000D01*
X181654260Y-56249000D01*
X181720443Y-56255519D01*
X181720443Y-56255519D01*
G37*
G36*
X182511000Y-55511000D02*
G01*
X180709000Y-55511000D01*
X180709000Y-53709000D01*
X182511000Y-53709000D01*
X182511000Y-55511000D01*
X182511000Y-55511000D01*
G37*
G36*
X155536694Y-47301860D02*
G01*
X155802437Y-47354719D01*
X156303087Y-47562095D01*
X156483561Y-47682684D01*
X156753660Y-47863158D01*
X157136842Y-48246340D01*
X157263986Y-48436625D01*
X157437905Y-48696913D01*
X157645281Y-49197563D01*
X157751000Y-49729050D01*
X157751000Y-50270950D01*
X157645281Y-50802437D01*
X157437905Y-51303087D01*
X157317316Y-51483561D01*
X157136842Y-51753660D01*
X156753660Y-52136842D01*
X156483561Y-52317316D01*
X156303087Y-52437905D01*
X155802437Y-52645281D01*
X155536693Y-52698141D01*
X155270951Y-52751000D01*
X154729049Y-52751000D01*
X154463307Y-52698141D01*
X154197563Y-52645281D01*
X153696913Y-52437905D01*
X153516439Y-52317316D01*
X153246340Y-52136842D01*
X152863158Y-51753660D01*
X152682684Y-51483561D01*
X152562095Y-51303087D01*
X152354719Y-50802437D01*
X152249000Y-50270950D01*
X152249000Y-49729050D01*
X152354719Y-49197563D01*
X152562095Y-48696913D01*
X152736014Y-48436625D01*
X152863158Y-48246340D01*
X153246340Y-47863158D01*
X153516439Y-47682684D01*
X153696913Y-47562095D01*
X154197563Y-47354719D01*
X154463307Y-47301859D01*
X154729049Y-47249000D01*
X155270951Y-47249000D01*
X155536694Y-47301860D01*
X155536694Y-47301860D01*
G37*
G36*
X135536694Y-47301860D02*
G01*
X135802437Y-47354719D01*
X136303087Y-47562095D01*
X136483561Y-47682684D01*
X136753660Y-47863158D01*
X137136842Y-48246340D01*
X137263986Y-48436625D01*
X137437905Y-48696913D01*
X137645281Y-49197563D01*
X137751000Y-49729050D01*
X137751000Y-50270950D01*
X137645281Y-50802437D01*
X137437905Y-51303087D01*
X137317316Y-51483561D01*
X137136842Y-51753660D01*
X136753660Y-52136842D01*
X136483561Y-52317316D01*
X136303087Y-52437905D01*
X135802437Y-52645281D01*
X135536693Y-52698141D01*
X135270951Y-52751000D01*
X134729049Y-52751000D01*
X134463307Y-52698141D01*
X134197563Y-52645281D01*
X133696913Y-52437905D01*
X133516439Y-52317316D01*
X133246340Y-52136842D01*
X132863158Y-51753660D01*
X132682684Y-51483561D01*
X132562095Y-51303087D01*
X132354719Y-50802437D01*
X132249000Y-50270950D01*
X132249000Y-49729050D01*
X132354719Y-49197563D01*
X132562095Y-48696913D01*
X132736014Y-48436625D01*
X132863158Y-48246340D01*
X133246340Y-47863158D01*
X133516439Y-47682684D01*
X133696913Y-47562095D01*
X134197563Y-47354719D01*
X134463307Y-47301859D01*
X134729049Y-47249000D01*
X135270951Y-47249000D01*
X135536694Y-47301860D01*
X135536694Y-47301860D01*
G37*
G36*
X179180443Y-47365519D02*
G01*
X179246627Y-47372037D01*
X179416466Y-47423557D01*
X179572991Y-47507222D01*
X179608729Y-47536552D01*
X179710186Y-47619814D01*
X179793448Y-47721271D01*
X179822778Y-47757009D01*
X179906443Y-47913534D01*
X179957963Y-48083373D01*
X179975359Y-48260000D01*
X179957963Y-48436627D01*
X179906443Y-48606466D01*
X179822778Y-48762991D01*
X179793448Y-48798729D01*
X179710186Y-48900186D01*
X179608729Y-48983448D01*
X179572991Y-49012778D01*
X179416466Y-49096443D01*
X179246627Y-49147963D01*
X179180443Y-49154481D01*
X179114260Y-49161000D01*
X179025740Y-49161000D01*
X178959557Y-49154481D01*
X178893373Y-49147963D01*
X178723534Y-49096443D01*
X178567009Y-49012778D01*
X178531271Y-48983448D01*
X178429814Y-48900186D01*
X178346552Y-48798729D01*
X178317222Y-48762991D01*
X178233557Y-48606466D01*
X178182037Y-48436627D01*
X178164641Y-48260000D01*
X178182037Y-48083373D01*
X178233557Y-47913534D01*
X178317222Y-47757009D01*
X178346552Y-47721271D01*
X178429814Y-47619814D01*
X178531271Y-47536552D01*
X178567009Y-47507222D01*
X178723534Y-47423557D01*
X178893373Y-47372037D01*
X178959557Y-47365519D01*
X179025740Y-47359000D01*
X179114260Y-47359000D01*
X179180443Y-47365519D01*
X179180443Y-47365519D01*
G37*
G36*
X110121000Y-49161000D02*
G01*
X108319000Y-49161000D01*
X108319000Y-47359000D01*
X110121000Y-47359000D01*
X110121000Y-49161000D01*
X110121000Y-49161000D01*
G37*
G36*
X182511000Y-49161000D02*
G01*
X180709000Y-49161000D01*
X180709000Y-47359000D01*
X182511000Y-47359000D01*
X182511000Y-49161000D01*
X182511000Y-49161000D01*
G37*
G36*
X114410443Y-47365519D02*
G01*
X114476627Y-47372037D01*
X114646466Y-47423557D01*
X114802991Y-47507222D01*
X114838729Y-47536552D01*
X114940186Y-47619814D01*
X115023448Y-47721271D01*
X115052778Y-47757009D01*
X115136443Y-47913534D01*
X115187963Y-48083373D01*
X115205359Y-48260000D01*
X115187963Y-48436627D01*
X115136443Y-48606466D01*
X115052778Y-48762991D01*
X115023448Y-48798729D01*
X114940186Y-48900186D01*
X114838729Y-48983448D01*
X114802991Y-49012778D01*
X114646466Y-49096443D01*
X114476627Y-49147963D01*
X114410443Y-49154481D01*
X114344260Y-49161000D01*
X114255740Y-49161000D01*
X114189557Y-49154481D01*
X114123373Y-49147963D01*
X113953534Y-49096443D01*
X113797009Y-49012778D01*
X113761271Y-48983448D01*
X113659814Y-48900186D01*
X113576552Y-48798729D01*
X113547222Y-48762991D01*
X113463557Y-48606466D01*
X113412037Y-48436627D01*
X113394641Y-48260000D01*
X113412037Y-48083373D01*
X113463557Y-47913534D01*
X113547222Y-47757009D01*
X113576552Y-47721271D01*
X113659814Y-47619814D01*
X113761271Y-47536552D01*
X113797009Y-47507222D01*
X113953534Y-47423557D01*
X114123373Y-47372037D01*
X114189557Y-47365519D01*
X114255740Y-47359000D01*
X114344260Y-47359000D01*
X114410443Y-47365519D01*
X114410443Y-47365519D01*
G37*
G36*
X116950443Y-47365519D02*
G01*
X117016627Y-47372037D01*
X117186466Y-47423557D01*
X117342991Y-47507222D01*
X117378729Y-47536552D01*
X117480186Y-47619814D01*
X117563448Y-47721271D01*
X117592778Y-47757009D01*
X117676443Y-47913534D01*
X117727963Y-48083373D01*
X117745359Y-48260000D01*
X117727963Y-48436627D01*
X117676443Y-48606466D01*
X117592778Y-48762991D01*
X117563448Y-48798729D01*
X117480186Y-48900186D01*
X117378729Y-48983448D01*
X117342991Y-49012778D01*
X117186466Y-49096443D01*
X117016627Y-49147963D01*
X116950443Y-49154481D01*
X116884260Y-49161000D01*
X116795740Y-49161000D01*
X116729557Y-49154481D01*
X116663373Y-49147963D01*
X116493534Y-49096443D01*
X116337009Y-49012778D01*
X116301271Y-48983448D01*
X116199814Y-48900186D01*
X116116552Y-48798729D01*
X116087222Y-48762991D01*
X116003557Y-48606466D01*
X115952037Y-48436627D01*
X115934641Y-48260000D01*
X115952037Y-48083373D01*
X116003557Y-47913534D01*
X116087222Y-47757009D01*
X116116552Y-47721271D01*
X116199814Y-47619814D01*
X116301271Y-47536552D01*
X116337009Y-47507222D01*
X116493534Y-47423557D01*
X116663373Y-47372037D01*
X116729557Y-47365519D01*
X116795740Y-47359000D01*
X116884260Y-47359000D01*
X116950443Y-47365519D01*
X116950443Y-47365519D01*
G37*
G36*
X119490443Y-47365519D02*
G01*
X119556627Y-47372037D01*
X119726466Y-47423557D01*
X119882991Y-47507222D01*
X119918729Y-47536552D01*
X120020186Y-47619814D01*
X120103448Y-47721271D01*
X120132778Y-47757009D01*
X120216443Y-47913534D01*
X120267963Y-48083373D01*
X120285359Y-48260000D01*
X120267963Y-48436627D01*
X120216443Y-48606466D01*
X120132778Y-48762991D01*
X120103448Y-48798729D01*
X120020186Y-48900186D01*
X119918729Y-48983448D01*
X119882991Y-49012778D01*
X119726466Y-49096443D01*
X119556627Y-49147963D01*
X119490443Y-49154481D01*
X119424260Y-49161000D01*
X119335740Y-49161000D01*
X119269557Y-49154481D01*
X119203373Y-49147963D01*
X119033534Y-49096443D01*
X118877009Y-49012778D01*
X118841271Y-48983448D01*
X118739814Y-48900186D01*
X118656552Y-48798729D01*
X118627222Y-48762991D01*
X118543557Y-48606466D01*
X118492037Y-48436627D01*
X118474641Y-48260000D01*
X118492037Y-48083373D01*
X118543557Y-47913534D01*
X118627222Y-47757009D01*
X118656552Y-47721271D01*
X118739814Y-47619814D01*
X118841271Y-47536552D01*
X118877009Y-47507222D01*
X119033534Y-47423557D01*
X119203373Y-47372037D01*
X119269557Y-47365519D01*
X119335740Y-47359000D01*
X119424260Y-47359000D01*
X119490443Y-47365519D01*
X119490443Y-47365519D01*
G37*
G36*
X122030443Y-47365519D02*
G01*
X122096627Y-47372037D01*
X122266466Y-47423557D01*
X122422991Y-47507222D01*
X122458729Y-47536552D01*
X122560186Y-47619814D01*
X122643448Y-47721271D01*
X122672778Y-47757009D01*
X122756443Y-47913534D01*
X122807963Y-48083373D01*
X122825359Y-48260000D01*
X122807963Y-48436627D01*
X122756443Y-48606466D01*
X122672778Y-48762991D01*
X122643448Y-48798729D01*
X122560186Y-48900186D01*
X122458729Y-48983448D01*
X122422991Y-49012778D01*
X122266466Y-49096443D01*
X122096627Y-49147963D01*
X122030443Y-49154481D01*
X121964260Y-49161000D01*
X121875740Y-49161000D01*
X121809557Y-49154481D01*
X121743373Y-49147963D01*
X121573534Y-49096443D01*
X121417009Y-49012778D01*
X121381271Y-48983448D01*
X121279814Y-48900186D01*
X121196552Y-48798729D01*
X121167222Y-48762991D01*
X121083557Y-48606466D01*
X121032037Y-48436627D01*
X121014641Y-48260000D01*
X121032037Y-48083373D01*
X121083557Y-47913534D01*
X121167222Y-47757009D01*
X121196552Y-47721271D01*
X121279814Y-47619814D01*
X121381271Y-47536552D01*
X121417009Y-47507222D01*
X121573534Y-47423557D01*
X121743373Y-47372037D01*
X121809557Y-47365519D01*
X121875740Y-47359000D01*
X121964260Y-47359000D01*
X122030443Y-47365519D01*
X122030443Y-47365519D01*
G37*
G36*
X141715443Y-47365519D02*
G01*
X141781627Y-47372037D01*
X141951466Y-47423557D01*
X142107991Y-47507222D01*
X142143729Y-47536552D01*
X142245186Y-47619814D01*
X142328448Y-47721271D01*
X142357778Y-47757009D01*
X142441443Y-47913534D01*
X142492963Y-48083373D01*
X142510359Y-48260000D01*
X142492963Y-48436627D01*
X142441443Y-48606466D01*
X142357778Y-48762991D01*
X142328448Y-48798729D01*
X142245186Y-48900186D01*
X142143729Y-48983448D01*
X142107991Y-49012778D01*
X141951466Y-49096443D01*
X141781627Y-49147963D01*
X141715443Y-49154481D01*
X141649260Y-49161000D01*
X141560740Y-49161000D01*
X141494557Y-49154481D01*
X141428373Y-49147963D01*
X141258534Y-49096443D01*
X141102009Y-49012778D01*
X141066271Y-48983448D01*
X140964814Y-48900186D01*
X140881552Y-48798729D01*
X140852222Y-48762991D01*
X140768557Y-48606466D01*
X140717037Y-48436627D01*
X140699641Y-48260000D01*
X140717037Y-48083373D01*
X140768557Y-47913534D01*
X140852222Y-47757009D01*
X140881552Y-47721271D01*
X140964814Y-47619814D01*
X141066271Y-47536552D01*
X141102009Y-47507222D01*
X141258534Y-47423557D01*
X141428373Y-47372037D01*
X141494557Y-47365519D01*
X141560740Y-47359000D01*
X141649260Y-47359000D01*
X141715443Y-47365519D01*
X141715443Y-47365519D01*
G37*
G36*
X111870443Y-47365519D02*
G01*
X111936627Y-47372037D01*
X112106466Y-47423557D01*
X112262991Y-47507222D01*
X112298729Y-47536552D01*
X112400186Y-47619814D01*
X112483448Y-47721271D01*
X112512778Y-47757009D01*
X112596443Y-47913534D01*
X112647963Y-48083373D01*
X112665359Y-48260000D01*
X112647963Y-48436627D01*
X112596443Y-48606466D01*
X112512778Y-48762991D01*
X112483448Y-48798729D01*
X112400186Y-48900186D01*
X112298729Y-48983448D01*
X112262991Y-49012778D01*
X112106466Y-49096443D01*
X111936627Y-49147963D01*
X111870443Y-49154481D01*
X111804260Y-49161000D01*
X111715740Y-49161000D01*
X111649557Y-49154481D01*
X111583373Y-49147963D01*
X111413534Y-49096443D01*
X111257009Y-49012778D01*
X111221271Y-48983448D01*
X111119814Y-48900186D01*
X111036552Y-48798729D01*
X111007222Y-48762991D01*
X110923557Y-48606466D01*
X110872037Y-48436627D01*
X110854641Y-48260000D01*
X110872037Y-48083373D01*
X110923557Y-47913534D01*
X111007222Y-47757009D01*
X111036552Y-47721271D01*
X111119814Y-47619814D01*
X111221271Y-47536552D01*
X111257009Y-47507222D01*
X111413534Y-47423557D01*
X111583373Y-47372037D01*
X111649557Y-47365519D01*
X111715740Y-47359000D01*
X111804260Y-47359000D01*
X111870443Y-47365519D01*
X111870443Y-47365519D01*
G37*
G36*
X146795443Y-47365519D02*
G01*
X146861627Y-47372037D01*
X147031466Y-47423557D01*
X147187991Y-47507222D01*
X147223729Y-47536552D01*
X147325186Y-47619814D01*
X147408448Y-47721271D01*
X147437778Y-47757009D01*
X147521443Y-47913534D01*
X147572963Y-48083373D01*
X147590359Y-48260000D01*
X147572963Y-48436627D01*
X147521443Y-48606466D01*
X147437778Y-48762991D01*
X147408448Y-48798729D01*
X147325186Y-48900186D01*
X147223729Y-48983448D01*
X147187991Y-49012778D01*
X147031466Y-49096443D01*
X146861627Y-49147963D01*
X146795443Y-49154481D01*
X146729260Y-49161000D01*
X146640740Y-49161000D01*
X146574557Y-49154481D01*
X146508373Y-49147963D01*
X146338534Y-49096443D01*
X146182009Y-49012778D01*
X146146271Y-48983448D01*
X146044814Y-48900186D01*
X145961552Y-48798729D01*
X145932222Y-48762991D01*
X145848557Y-48606466D01*
X145797037Y-48436627D01*
X145779641Y-48260000D01*
X145797037Y-48083373D01*
X145848557Y-47913534D01*
X145932222Y-47757009D01*
X145961552Y-47721271D01*
X146044814Y-47619814D01*
X146146271Y-47536552D01*
X146182009Y-47507222D01*
X146338534Y-47423557D01*
X146508373Y-47372037D01*
X146574557Y-47365519D01*
X146640740Y-47359000D01*
X146729260Y-47359000D01*
X146795443Y-47365519D01*
X146795443Y-47365519D01*
G37*
G36*
X150126000Y-49161000D02*
G01*
X148324000Y-49161000D01*
X148324000Y-47359000D01*
X150126000Y-47359000D01*
X150126000Y-49161000D01*
X150126000Y-49161000D01*
G37*
G36*
X169020443Y-47365519D02*
G01*
X169086627Y-47372037D01*
X169256466Y-47423557D01*
X169412991Y-47507222D01*
X169448729Y-47536552D01*
X169550186Y-47619814D01*
X169633448Y-47721271D01*
X169662778Y-47757009D01*
X169746443Y-47913534D01*
X169797963Y-48083373D01*
X169815359Y-48260000D01*
X169797963Y-48436627D01*
X169746443Y-48606466D01*
X169662778Y-48762991D01*
X169633448Y-48798729D01*
X169550186Y-48900186D01*
X169448729Y-48983448D01*
X169412991Y-49012778D01*
X169256466Y-49096443D01*
X169086627Y-49147963D01*
X169020443Y-49154481D01*
X168954260Y-49161000D01*
X168865740Y-49161000D01*
X168799557Y-49154481D01*
X168733373Y-49147963D01*
X168563534Y-49096443D01*
X168407009Y-49012778D01*
X168371271Y-48983448D01*
X168269814Y-48900186D01*
X168186552Y-48798729D01*
X168157222Y-48762991D01*
X168073557Y-48606466D01*
X168022037Y-48436627D01*
X168004641Y-48260000D01*
X168022037Y-48083373D01*
X168073557Y-47913534D01*
X168157222Y-47757009D01*
X168186552Y-47721271D01*
X168269814Y-47619814D01*
X168371271Y-47536552D01*
X168407009Y-47507222D01*
X168563534Y-47423557D01*
X168733373Y-47372037D01*
X168799557Y-47365519D01*
X168865740Y-47359000D01*
X168954260Y-47359000D01*
X169020443Y-47365519D01*
X169020443Y-47365519D01*
G37*
G36*
X171560443Y-47365519D02*
G01*
X171626627Y-47372037D01*
X171796466Y-47423557D01*
X171952991Y-47507222D01*
X171988729Y-47536552D01*
X172090186Y-47619814D01*
X172173448Y-47721271D01*
X172202778Y-47757009D01*
X172286443Y-47913534D01*
X172337963Y-48083373D01*
X172355359Y-48260000D01*
X172337963Y-48436627D01*
X172286443Y-48606466D01*
X172202778Y-48762991D01*
X172173448Y-48798729D01*
X172090186Y-48900186D01*
X171988729Y-48983448D01*
X171952991Y-49012778D01*
X171796466Y-49096443D01*
X171626627Y-49147963D01*
X171560443Y-49154481D01*
X171494260Y-49161000D01*
X171405740Y-49161000D01*
X171339557Y-49154481D01*
X171273373Y-49147963D01*
X171103534Y-49096443D01*
X170947009Y-49012778D01*
X170911271Y-48983448D01*
X170809814Y-48900186D01*
X170726552Y-48798729D01*
X170697222Y-48762991D01*
X170613557Y-48606466D01*
X170562037Y-48436627D01*
X170544641Y-48260000D01*
X170562037Y-48083373D01*
X170613557Y-47913534D01*
X170697222Y-47757009D01*
X170726552Y-47721271D01*
X170809814Y-47619814D01*
X170911271Y-47536552D01*
X170947009Y-47507222D01*
X171103534Y-47423557D01*
X171273373Y-47372037D01*
X171339557Y-47365519D01*
X171405740Y-47359000D01*
X171494260Y-47359000D01*
X171560443Y-47365519D01*
X171560443Y-47365519D01*
G37*
G36*
X174100443Y-47365519D02*
G01*
X174166627Y-47372037D01*
X174336466Y-47423557D01*
X174492991Y-47507222D01*
X174528729Y-47536552D01*
X174630186Y-47619814D01*
X174713448Y-47721271D01*
X174742778Y-47757009D01*
X174826443Y-47913534D01*
X174877963Y-48083373D01*
X174895359Y-48260000D01*
X174877963Y-48436627D01*
X174826443Y-48606466D01*
X174742778Y-48762991D01*
X174713448Y-48798729D01*
X174630186Y-48900186D01*
X174528729Y-48983448D01*
X174492991Y-49012778D01*
X174336466Y-49096443D01*
X174166627Y-49147963D01*
X174100443Y-49154481D01*
X174034260Y-49161000D01*
X173945740Y-49161000D01*
X173879557Y-49154481D01*
X173813373Y-49147963D01*
X173643534Y-49096443D01*
X173487009Y-49012778D01*
X173451271Y-48983448D01*
X173349814Y-48900186D01*
X173266552Y-48798729D01*
X173237222Y-48762991D01*
X173153557Y-48606466D01*
X173102037Y-48436627D01*
X173084641Y-48260000D01*
X173102037Y-48083373D01*
X173153557Y-47913534D01*
X173237222Y-47757009D01*
X173266552Y-47721271D01*
X173349814Y-47619814D01*
X173451271Y-47536552D01*
X173487009Y-47507222D01*
X173643534Y-47423557D01*
X173813373Y-47372037D01*
X173879557Y-47365519D01*
X173945740Y-47359000D01*
X174034260Y-47359000D01*
X174100443Y-47365519D01*
X174100443Y-47365519D01*
G37*
G36*
X176640443Y-47365519D02*
G01*
X176706627Y-47372037D01*
X176876466Y-47423557D01*
X177032991Y-47507222D01*
X177068729Y-47536552D01*
X177170186Y-47619814D01*
X177253448Y-47721271D01*
X177282778Y-47757009D01*
X177366443Y-47913534D01*
X177417963Y-48083373D01*
X177435359Y-48260000D01*
X177417963Y-48436627D01*
X177366443Y-48606466D01*
X177282778Y-48762991D01*
X177253448Y-48798729D01*
X177170186Y-48900186D01*
X177068729Y-48983448D01*
X177032991Y-49012778D01*
X176876466Y-49096443D01*
X176706627Y-49147963D01*
X176640443Y-49154481D01*
X176574260Y-49161000D01*
X176485740Y-49161000D01*
X176419557Y-49154481D01*
X176353373Y-49147963D01*
X176183534Y-49096443D01*
X176027009Y-49012778D01*
X175991271Y-48983448D01*
X175889814Y-48900186D01*
X175806552Y-48798729D01*
X175777222Y-48762991D01*
X175693557Y-48606466D01*
X175642037Y-48436627D01*
X175624641Y-48260000D01*
X175642037Y-48083373D01*
X175693557Y-47913534D01*
X175777222Y-47757009D01*
X175806552Y-47721271D01*
X175889814Y-47619814D01*
X175991271Y-47536552D01*
X176027009Y-47507222D01*
X176183534Y-47423557D01*
X176353373Y-47372037D01*
X176419557Y-47365519D01*
X176485740Y-47359000D01*
X176574260Y-47359000D01*
X176640443Y-47365519D01*
X176640443Y-47365519D01*
G37*
G36*
X145046000Y-49161000D02*
G01*
X143244000Y-49161000D01*
X143244000Y-47359000D01*
X145046000Y-47359000D01*
X145046000Y-49161000D01*
X145046000Y-49161000D01*
G37*
M02*
