M48
; DRILL file {KiCad (5.1.4)-1} date 03/10/2019 17:38:17
; FORMAT={-:-/ absolute / inch / decimal}
; #@! TF.CreationDate,2019-10-03T17:38:17+01:00
; #@! TF.GenerationSoftware,Kicad,Pcbnew,(5.1.4)-1
; #@! TF.FileFunction,Plated,1,2,PTH
FMAT,2
INCH
T1C0.0157
T2C0.0315
T3C0.0394
T4C0.0400
T5C0.0433
T6C0.1063
%
G90
G05
T1
X4.425Y-3.275
X4.425Y-3.8
X4.55Y-2.625
X4.575Y-4.475
X4.6Y-5.05
X4.8Y-2.875
X4.825Y-3.8
X4.85Y-4.8
X4.9Y-1.975
X4.9Y-2.125
X4.95Y-3.95
X5.0Y-4.3
X5.025Y-5.05
X5.05Y-3.925
X5.1Y-2.95
X5.175Y-3.725
X5.2Y-4.275
X5.2Y-4.525
X5.2Y-4.825
X5.225Y-3.025
X5.3Y-2.325
X5.3Y-3.95
X5.4Y-3.3
X5.425Y-2.55
X5.425Y-3.75
X5.45Y-4.675
X5.5Y-4.275
X5.5Y-4.475
X5.525Y-2.05
X5.55Y-5.05
X5.6Y-2.55
X5.625Y-2.3
X5.625Y-3.075
X5.7Y-4.275
X5.75Y-2.05
X5.775Y-2.3
X5.775Y-3.75
X5.85Y-2.55
X5.9Y-3.15
X5.925Y-2.3
X6.0Y-3.425
X6.0Y-4.45
X6.025Y-4.7
X6.025Y-5.05
X6.15Y-3.75
X6.15Y-4.025
X6.175Y-2.55
X6.2Y-2.85
X6.2Y-3.125
X6.225Y-4.25
X6.25Y-3.425
X6.375Y-2.35
X6.475Y-4.325
X6.525Y-1.975
X6.55Y-2.95
X6.55Y-3.225
X6.575Y-3.65
X6.575Y-4.775
X6.85Y-2.2
X6.85Y-2.35
X6.85Y-2.5
X6.85Y-4.925
X7.075Y-4.875
X7.175Y-3.15
X7.175Y-3.775
X7.175Y-4.3
T2
X5.1835Y-2.1915
X6.188Y-2.188
X6.475Y-2.2
X4.5Y-3.45
X4.5Y-4.05
X4.6Y-3.45
X4.6Y-4.05
X4.7Y-3.45
X4.7Y-4.05
X4.8Y-3.45
X4.8Y-4.05
X4.9Y-3.45
X4.9Y-4.05
X5.0Y-3.45
X5.0Y-4.05
X5.1Y-3.45
X5.1Y-4.05
X5.2Y-3.45
X5.2Y-4.05
X5.3Y-3.45
X5.3Y-4.05
X5.4Y-3.45
X5.4Y-4.05
X5.5Y-3.45
X5.5Y-4.05
X5.6Y-3.45
X5.6Y-4.05
X5.7Y-3.45
X5.7Y-4.05
X5.8Y-3.45
X5.8Y-4.05
X5.9Y-3.45
X5.9Y-4.05
T3
X4.3Y-2.725
X4.3Y-2.825
X4.3Y-2.925
X4.3Y-1.9
X4.4Y-1.9
X4.5Y-1.9
X4.6Y-1.9
X4.7Y-1.9
X4.8Y-1.9
X6.65Y-1.9
X6.75Y-1.9
X6.85Y-1.9
X6.95Y-1.9
X7.05Y-1.9
X7.15Y-1.9
X4.475Y-2.725
X4.475Y-2.825
X4.475Y-2.925
X4.475Y-3.025
X5.775Y-1.9
X5.875Y-1.9
X6.45Y-5.15
X6.55Y-5.15
X6.65Y-5.15
X6.75Y-5.15
X4.85Y-4.35
X4.85Y-4.45
X4.85Y-4.55
X4.85Y-4.65
X5.35Y-2.85
X5.4Y-2.65
X5.45Y-2.85
X5.5Y-2.65
X5.55Y-2.85
X5.6Y-2.65
X5.65Y-2.85
X5.7Y-2.65
X5.75Y-2.85
X5.8Y-2.65
X5.85Y-2.85
X5.9Y-2.65
X5.95Y-2.85
X6.0Y-2.65
X6.05Y-2.85
X5.575Y-1.9
X5.675Y-1.9
X6.3Y-4.95
X6.4Y-4.95
X4.7Y-5.15
X4.8Y-5.15
X4.9Y-5.15
X5.0Y-5.15
X5.1Y-5.15
X5.2Y-5.15
X5.3Y-5.15
X5.4Y-5.15
X6.3Y-4.8
X6.4Y-4.8
X4.3Y-4.35
X4.3Y-4.45
X4.3Y-4.55
X4.3Y-4.65
X4.4Y-4.35
X4.4Y-4.45
X4.4Y-4.55
X4.4Y-4.65
X4.65Y-2.725
X4.65Y-2.825
X4.65Y-2.925
X4.65Y-3.025
X7.15Y-2.15
X7.15Y-2.25
X7.15Y-2.35
X7.15Y-2.45
T4
X6.7Y-2.775
X6.7Y-2.875
X6.7Y-2.975
X6.7Y-3.075
X6.7Y-3.175
X6.7Y-3.275
X6.7Y-3.375
X6.7Y-3.475
X6.7Y-3.575
X6.7Y-3.675
X6.7Y-3.775
X6.7Y-3.875
X6.7Y-3.975
X6.7Y-4.075
X6.7Y-4.175
X6.7Y-4.275
X6.7Y-4.375
X6.7Y-4.475
X6.7Y-4.575
X6.7Y-4.675
X6.8Y-2.725
X6.8Y-2.825
X6.8Y-2.925
X6.8Y-3.025
X6.8Y-3.125
X6.8Y-3.225
X6.8Y-3.325
X6.8Y-3.425
X6.8Y-3.525
X6.8Y-3.625
X6.8Y-3.725
X6.8Y-3.825
X6.8Y-3.925
X6.8Y-4.025
X6.8Y-4.125
X6.8Y-4.225
X6.8Y-4.325
X6.8Y-4.425
X6.8Y-4.525
X6.8Y-4.625
X6.9Y-2.775
X6.9Y-2.875
X6.9Y-2.975
X6.9Y-3.075
X6.9Y-3.175
X6.9Y-3.275
X6.9Y-3.375
X6.9Y-3.475
X6.9Y-3.575
X6.9Y-3.675
X6.9Y-3.775
X6.9Y-3.875
X6.9Y-3.975
X6.9Y-4.075
X6.9Y-4.175
X6.9Y-4.275
X6.9Y-4.375
X6.9Y-4.475
X6.9Y-4.575
X6.9Y-4.675
X7.0Y-2.725
X7.0Y-2.825
X7.0Y-2.925
X7.0Y-3.025
X7.0Y-3.125
X7.0Y-3.225
X7.0Y-3.325
X7.0Y-3.425
X7.0Y-3.525
X7.0Y-3.625
X7.0Y-3.725
X7.0Y-3.825
X7.0Y-3.925
X7.0Y-4.025
X7.0Y-4.125
X7.0Y-4.225
X7.0Y-4.325
X7.0Y-4.425
X7.0Y-4.525
X7.0Y-4.625
T5
X4.3Y-2.375
X4.4Y-2.375
X4.5Y-2.375
X5.825Y-4.5
X5.825Y-4.6
X5.825Y-4.7
T6
X6.1024Y-1.9685
X7.0472Y-5.1181
X4.3701Y-5.1181
X5.315Y-1.9685
T0
M30
