G04 #@! TF.GenerationSoftware,KiCad,Pcbnew,(5.1.4)-1*
G04 #@! TF.CreationDate,2020-01-03T20:36:16+00:00*
G04 #@! TF.ProjectId,M2MRover,4d324d52-6f76-4657-922e-6b696361645f,rev?*
G04 #@! TF.SameCoordinates,Original*
G04 #@! TF.FileFunction,Legend,Top*
G04 #@! TF.FilePolarity,Positive*
%FSLAX46Y46*%
G04 Gerber Fmt 4.6, Leading zero omitted, Abs format (unit mm)*
G04 Created by KiCad (PCBNEW (5.1.4)-1) date 2020-01-03 20:36:16*
%MOMM*%
%LPD*%
G04 APERTURE LIST*
%ADD10C,0.050000*%
%ADD11C,0.150000*%
%ADD12C,0.010000*%
%ADD13C,0.120000*%
G04 APERTURE END LIST*
D10*
X105000000Y-135000000D02*
X105000000Y-45000000D01*
X185000000Y-135000000D02*
X105000000Y-135000000D01*
X185000000Y-45000000D02*
X185000000Y-135000000D01*
X105000000Y-45000000D02*
X185000000Y-45000000D01*
D11*
X168910000Y-64925000D02*
X177150000Y-64925000D01*
X168910000Y-123045000D02*
X168910000Y-64925000D01*
X177150000Y-123045000D02*
X168910000Y-123045000D01*
X177150000Y-64925000D02*
X177150000Y-123045000D01*
X170180000Y-121745000D02*
X170815000Y-123015000D01*
X169545000Y-123015000D02*
X170180000Y-121745000D01*
D12*
G36*
X143462052Y-122761846D02*
G01*
X143509907Y-122898327D01*
X143510000Y-122908425D01*
X143510000Y-123092517D01*
X143705956Y-122908425D01*
X143958258Y-122748440D01*
X144219297Y-122751394D01*
X144362232Y-122811978D01*
X144469463Y-122885817D01*
X144467846Y-122976195D01*
X144386413Y-123112659D01*
X144260038Y-123253219D01*
X144159797Y-123238628D01*
X144157814Y-123236680D01*
X143971024Y-123151207D01*
X143767832Y-123210678D01*
X143641800Y-123335838D01*
X143549131Y-123587149D01*
X143511056Y-123998277D01*
X143510000Y-124097838D01*
X143506638Y-124401391D01*
X143487336Y-124573109D01*
X143438265Y-124650478D01*
X143345598Y-124670985D01*
X143298333Y-124671666D01*
X143086666Y-124671666D01*
X143086666Y-122724333D01*
X143298333Y-122724333D01*
X143462052Y-122761846D01*
X143462052Y-122761846D01*
G37*
X143462052Y-122761846D02*
X143509907Y-122898327D01*
X143510000Y-122908425D01*
X143510000Y-123092517D01*
X143705956Y-122908425D01*
X143958258Y-122748440D01*
X144219297Y-122751394D01*
X144362232Y-122811978D01*
X144469463Y-122885817D01*
X144467846Y-122976195D01*
X144386413Y-123112659D01*
X144260038Y-123253219D01*
X144159797Y-123238628D01*
X144157814Y-123236680D01*
X143971024Y-123151207D01*
X143767832Y-123210678D01*
X143641800Y-123335838D01*
X143549131Y-123587149D01*
X143511056Y-123998277D01*
X143510000Y-124097838D01*
X143506638Y-124401391D01*
X143487336Y-124573109D01*
X143438265Y-124650478D01*
X143345598Y-124670985D01*
X143298333Y-124671666D01*
X143086666Y-124671666D01*
X143086666Y-122724333D01*
X143298333Y-122724333D01*
X143462052Y-122761846D01*
G36*
X136619750Y-121804986D02*
G01*
X136714573Y-121861469D01*
X136736609Y-121993233D01*
X136736666Y-122006279D01*
X136713201Y-122158423D01*
X136608725Y-122184324D01*
X136531956Y-122168180D01*
X136345405Y-122169095D01*
X136235623Y-122288001D01*
X136152931Y-122515920D01*
X136171557Y-122673269D01*
X136271000Y-122724333D01*
X136373143Y-122797934D01*
X136398000Y-122936000D01*
X136353839Y-123106238D01*
X136271000Y-123147666D01*
X136209041Y-123177361D01*
X136170448Y-123285739D01*
X136150398Y-123501736D01*
X136144066Y-123854292D01*
X136144000Y-123909666D01*
X136142314Y-124270383D01*
X136131224Y-124494353D01*
X136101676Y-124614160D01*
X136044621Y-124662390D01*
X135951006Y-124671629D01*
X135932333Y-124671666D01*
X135832134Y-124665599D01*
X135769920Y-124625673D01*
X135736640Y-124519303D01*
X135723243Y-124313904D01*
X135720676Y-123976890D01*
X135720666Y-123909666D01*
X135715717Y-123537916D01*
X135697654Y-123306359D01*
X135661655Y-123186055D01*
X135602895Y-123148068D01*
X135593666Y-123147666D01*
X135491523Y-123074065D01*
X135466666Y-122936000D01*
X135510827Y-122765761D01*
X135593666Y-122724333D01*
X135694827Y-122649163D01*
X135720666Y-122481751D01*
X135794956Y-122157499D01*
X135996811Y-121919957D01*
X136294709Y-121800891D01*
X136404145Y-121793000D01*
X136619750Y-121804986D01*
X136619750Y-121804986D01*
G37*
X136619750Y-121804986D02*
X136714573Y-121861469D01*
X136736609Y-121993233D01*
X136736666Y-122006279D01*
X136713201Y-122158423D01*
X136608725Y-122184324D01*
X136531956Y-122168180D01*
X136345405Y-122169095D01*
X136235623Y-122288001D01*
X136152931Y-122515920D01*
X136171557Y-122673269D01*
X136271000Y-122724333D01*
X136373143Y-122797934D01*
X136398000Y-122936000D01*
X136353839Y-123106238D01*
X136271000Y-123147666D01*
X136209041Y-123177361D01*
X136170448Y-123285739D01*
X136150398Y-123501736D01*
X136144066Y-123854292D01*
X136144000Y-123909666D01*
X136142314Y-124270383D01*
X136131224Y-124494353D01*
X136101676Y-124614160D01*
X136044621Y-124662390D01*
X135951006Y-124671629D01*
X135932333Y-124671666D01*
X135832134Y-124665599D01*
X135769920Y-124625673D01*
X135736640Y-124519303D01*
X135723243Y-124313904D01*
X135720676Y-123976890D01*
X135720666Y-123909666D01*
X135715717Y-123537916D01*
X135697654Y-123306359D01*
X135661655Y-123186055D01*
X135602895Y-123148068D01*
X135593666Y-123147666D01*
X135491523Y-123074065D01*
X135466666Y-122936000D01*
X135510827Y-122765761D01*
X135593666Y-122724333D01*
X135694827Y-122649163D01*
X135720666Y-122481751D01*
X135794956Y-122157499D01*
X135996811Y-121919957D01*
X136294709Y-121800891D01*
X136404145Y-121793000D01*
X136619750Y-121804986D01*
G36*
X145792370Y-122794658D02*
G01*
X146083226Y-122979265D01*
X146296216Y-123238596D01*
X146387851Y-123533095D01*
X146388666Y-123562533D01*
X146388666Y-123825000D01*
X144928679Y-123825000D01*
X145052066Y-124010831D01*
X145235262Y-124217118D01*
X145454922Y-124310845D01*
X145741074Y-124294868D01*
X146123741Y-124172044D01*
X146240500Y-124123918D01*
X146351137Y-124109549D01*
X146387519Y-124221845D01*
X146388666Y-124272415D01*
X146352745Y-124426876D01*
X146218113Y-124542348D01*
X146048286Y-124620140D01*
X145689021Y-124731532D01*
X145390473Y-124734973D01*
X145082580Y-124630082D01*
X145050771Y-124614701D01*
X144758515Y-124391813D01*
X144586897Y-124096319D01*
X144528272Y-123762928D01*
X144574994Y-123426352D01*
X144592822Y-123388696D01*
X145043334Y-123388696D01*
X145099120Y-123455722D01*
X145288547Y-123483173D01*
X145457333Y-123486333D01*
X145722303Y-123473129D01*
X145852145Y-123426884D01*
X145880666Y-123357237D01*
X145809801Y-123216291D01*
X145635954Y-123134090D01*
X145417244Y-123117232D01*
X145211793Y-123172314D01*
X145098796Y-123268490D01*
X145043334Y-123388696D01*
X144592822Y-123388696D01*
X144719419Y-123121300D01*
X144953901Y-122882483D01*
X145270795Y-122744611D01*
X145467135Y-122724333D01*
X145792370Y-122794658D01*
X145792370Y-122794658D01*
G37*
X145792370Y-122794658D02*
X146083226Y-122979265D01*
X146296216Y-123238596D01*
X146387851Y-123533095D01*
X146388666Y-123562533D01*
X146388666Y-123825000D01*
X144928679Y-123825000D01*
X145052066Y-124010831D01*
X145235262Y-124217118D01*
X145454922Y-124310845D01*
X145741074Y-124294868D01*
X146123741Y-124172044D01*
X146240500Y-124123918D01*
X146351137Y-124109549D01*
X146387519Y-124221845D01*
X146388666Y-124272415D01*
X146352745Y-124426876D01*
X146218113Y-124542348D01*
X146048286Y-124620140D01*
X145689021Y-124731532D01*
X145390473Y-124734973D01*
X145082580Y-124630082D01*
X145050771Y-124614701D01*
X144758515Y-124391813D01*
X144586897Y-124096319D01*
X144528272Y-123762928D01*
X144574994Y-123426352D01*
X144592822Y-123388696D01*
X145043334Y-123388696D01*
X145099120Y-123455722D01*
X145288547Y-123483173D01*
X145457333Y-123486333D01*
X145722303Y-123473129D01*
X145852145Y-123426884D01*
X145880666Y-123357237D01*
X145809801Y-123216291D01*
X145635954Y-123134090D01*
X145417244Y-123117232D01*
X145211793Y-123172314D01*
X145098796Y-123268490D01*
X145043334Y-123388696D01*
X144592822Y-123388696D01*
X144719419Y-123121300D01*
X144953901Y-122882483D01*
X145270795Y-122744611D01*
X145467135Y-122724333D01*
X145792370Y-122794658D01*
G36*
X142369136Y-122824760D02*
G01*
X142519991Y-123013455D01*
X142607277Y-123330229D01*
X142644180Y-123687561D01*
X142672941Y-124027581D01*
X142709549Y-124223255D01*
X142760454Y-124299568D01*
X142801767Y-124297994D01*
X142898497Y-124322409D01*
X142917333Y-124410052D01*
X142844154Y-124558501D01*
X142670486Y-124673407D01*
X142465130Y-124725027D01*
X142296885Y-124683616D01*
X142292555Y-124680150D01*
X142128863Y-124626320D01*
X141948453Y-124669846D01*
X141697063Y-124744757D01*
X141512687Y-124728855D01*
X141327505Y-124624532D01*
X141157653Y-124427551D01*
X141135696Y-124203745D01*
X141562666Y-124203745D01*
X141632667Y-124343091D01*
X141807428Y-124401833D01*
X142021408Y-124366274D01*
X142112082Y-124265152D01*
X142153348Y-124095793D01*
X142141900Y-123927654D01*
X142074432Y-123830192D01*
X142047172Y-123825000D01*
X141877358Y-123878152D01*
X141698886Y-124002403D01*
X141579310Y-124144944D01*
X141562666Y-124203745D01*
X141135696Y-124203745D01*
X141135346Y-124200186D01*
X141247974Y-123967049D01*
X141482927Y-123752751D01*
X141827597Y-123581905D01*
X141868938Y-123567720D01*
X142083635Y-123461908D01*
X142138977Y-123335268D01*
X142138090Y-123330066D01*
X142040002Y-123210383D01*
X141838001Y-123165646D01*
X141581896Y-123199786D01*
X141398954Y-123271759D01*
X141224657Y-123354749D01*
X141153574Y-123345891D01*
X141139410Y-123232842D01*
X141139333Y-123202541D01*
X141196728Y-122982568D01*
X141379763Y-122837448D01*
X141704715Y-122755899D01*
X141799199Y-122745144D01*
X142135332Y-122742528D01*
X142369136Y-122824760D01*
X142369136Y-122824760D01*
G37*
X142369136Y-122824760D02*
X142519991Y-123013455D01*
X142607277Y-123330229D01*
X142644180Y-123687561D01*
X142672941Y-124027581D01*
X142709549Y-124223255D01*
X142760454Y-124299568D01*
X142801767Y-124297994D01*
X142898497Y-124322409D01*
X142917333Y-124410052D01*
X142844154Y-124558501D01*
X142670486Y-124673407D01*
X142465130Y-124725027D01*
X142296885Y-124683616D01*
X142292555Y-124680150D01*
X142128863Y-124626320D01*
X141948453Y-124669846D01*
X141697063Y-124744757D01*
X141512687Y-124728855D01*
X141327505Y-124624532D01*
X141157653Y-124427551D01*
X141135696Y-124203745D01*
X141562666Y-124203745D01*
X141632667Y-124343091D01*
X141807428Y-124401833D01*
X142021408Y-124366274D01*
X142112082Y-124265152D01*
X142153348Y-124095793D01*
X142141900Y-123927654D01*
X142074432Y-123830192D01*
X142047172Y-123825000D01*
X141877358Y-123878152D01*
X141698886Y-124002403D01*
X141579310Y-124144944D01*
X141562666Y-124203745D01*
X141135696Y-124203745D01*
X141135346Y-124200186D01*
X141247974Y-123967049D01*
X141482927Y-123752751D01*
X141827597Y-123581905D01*
X141868938Y-123567720D01*
X142083635Y-123461908D01*
X142138977Y-123335268D01*
X142138090Y-123330066D01*
X142040002Y-123210383D01*
X141838001Y-123165646D01*
X141581896Y-123199786D01*
X141398954Y-123271759D01*
X141224657Y-123354749D01*
X141153574Y-123345891D01*
X141139410Y-123232842D01*
X141139333Y-123202541D01*
X141196728Y-122982568D01*
X141379763Y-122837448D01*
X141704715Y-122755899D01*
X141799199Y-122745144D01*
X142135332Y-122742528D01*
X142369136Y-122824760D01*
G36*
X137233165Y-122355385D02*
G01*
X137244470Y-122448727D01*
X137244666Y-122490998D01*
X137254645Y-122615020D01*
X137310754Y-122685147D01*
X137452254Y-122720227D01*
X137718407Y-122739106D01*
X137766394Y-122741459D01*
X138288122Y-122766666D01*
X138510987Y-123292537D01*
X138630948Y-123566079D01*
X138729462Y-123773613D01*
X138784242Y-123868798D01*
X138836255Y-123820930D01*
X138928572Y-123648651D01*
X139043199Y-123386528D01*
X139069026Y-123321761D01*
X139226323Y-122962740D01*
X139361010Y-122768887D01*
X139487071Y-122740160D01*
X139618489Y-122876518D01*
X139769247Y-123177918D01*
X139827996Y-123319475D01*
X139948777Y-123593085D01*
X140052921Y-123781787D01*
X140121440Y-123852296D01*
X140129846Y-123848642D01*
X140192734Y-123740792D01*
X140295275Y-123524612D01*
X140403522Y-123274666D01*
X140533922Y-122988439D01*
X140644754Y-122827256D01*
X140766199Y-122754298D01*
X140842527Y-122739130D01*
X141001190Y-122736764D01*
X141033838Y-122809746D01*
X141012305Y-122893752D01*
X140914385Y-123162776D01*
X140777167Y-123489435D01*
X140618096Y-123838002D01*
X140454611Y-124172746D01*
X140304157Y-124457940D01*
X140184174Y-124657854D01*
X140112626Y-124736670D01*
X140017481Y-124671455D01*
X139888959Y-124454738D01*
X139746255Y-124128497D01*
X139623548Y-123840574D01*
X139517893Y-123631518D01*
X139447475Y-123536132D01*
X139436044Y-123534819D01*
X139378186Y-123626481D01*
X139280362Y-123834681D01*
X139162080Y-124117411D01*
X139142254Y-124167535D01*
X138988944Y-124514379D01*
X138863793Y-124703412D01*
X138788644Y-124738543D01*
X138710458Y-124654992D01*
X138586784Y-124445856D01*
X138434740Y-124142883D01*
X138274764Y-123785642D01*
X138121905Y-123441553D01*
X137991982Y-123179419D01*
X137898193Y-123023740D01*
X137853736Y-122999015D01*
X137852878Y-123002475D01*
X137771262Y-123110241D01*
X137563186Y-123147319D01*
X137530923Y-123147666D01*
X137236929Y-123147666D01*
X137261964Y-123719166D01*
X137287000Y-124290666D01*
X137562166Y-124278182D01*
X137753436Y-124287879D01*
X137828010Y-124362754D01*
X137837333Y-124458807D01*
X137765318Y-124631868D01*
X137578188Y-124730008D01*
X137319312Y-124737939D01*
X137160000Y-124697576D01*
X136990621Y-124592038D01*
X136884986Y-124402222D01*
X136832401Y-124098729D01*
X136821333Y-123766484D01*
X136817130Y-123446815D01*
X136798044Y-123260893D01*
X136754358Y-123173212D01*
X136676356Y-123148264D01*
X136652000Y-123147666D01*
X136524145Y-123128864D01*
X136501524Y-123060228D01*
X136591777Y-122923416D01*
X136802549Y-122700087D01*
X136863666Y-122639666D01*
X137070351Y-122440090D01*
X137184321Y-122348918D01*
X137233165Y-122355385D01*
X137233165Y-122355385D01*
G37*
X137233165Y-122355385D02*
X137244470Y-122448727D01*
X137244666Y-122490998D01*
X137254645Y-122615020D01*
X137310754Y-122685147D01*
X137452254Y-122720227D01*
X137718407Y-122739106D01*
X137766394Y-122741459D01*
X138288122Y-122766666D01*
X138510987Y-123292537D01*
X138630948Y-123566079D01*
X138729462Y-123773613D01*
X138784242Y-123868798D01*
X138836255Y-123820930D01*
X138928572Y-123648651D01*
X139043199Y-123386528D01*
X139069026Y-123321761D01*
X139226323Y-122962740D01*
X139361010Y-122768887D01*
X139487071Y-122740160D01*
X139618489Y-122876518D01*
X139769247Y-123177918D01*
X139827996Y-123319475D01*
X139948777Y-123593085D01*
X140052921Y-123781787D01*
X140121440Y-123852296D01*
X140129846Y-123848642D01*
X140192734Y-123740792D01*
X140295275Y-123524612D01*
X140403522Y-123274666D01*
X140533922Y-122988439D01*
X140644754Y-122827256D01*
X140766199Y-122754298D01*
X140842527Y-122739130D01*
X141001190Y-122736764D01*
X141033838Y-122809746D01*
X141012305Y-122893752D01*
X140914385Y-123162776D01*
X140777167Y-123489435D01*
X140618096Y-123838002D01*
X140454611Y-124172746D01*
X140304157Y-124457940D01*
X140184174Y-124657854D01*
X140112626Y-124736670D01*
X140017481Y-124671455D01*
X139888959Y-124454738D01*
X139746255Y-124128497D01*
X139623548Y-123840574D01*
X139517893Y-123631518D01*
X139447475Y-123536132D01*
X139436044Y-123534819D01*
X139378186Y-123626481D01*
X139280362Y-123834681D01*
X139162080Y-124117411D01*
X139142254Y-124167535D01*
X138988944Y-124514379D01*
X138863793Y-124703412D01*
X138788644Y-124738543D01*
X138710458Y-124654992D01*
X138586784Y-124445856D01*
X138434740Y-124142883D01*
X138274764Y-123785642D01*
X138121905Y-123441553D01*
X137991982Y-123179419D01*
X137898193Y-123023740D01*
X137853736Y-122999015D01*
X137852878Y-123002475D01*
X137771262Y-123110241D01*
X137563186Y-123147319D01*
X137530923Y-123147666D01*
X137236929Y-123147666D01*
X137261964Y-123719166D01*
X137287000Y-124290666D01*
X137562166Y-124278182D01*
X137753436Y-124287879D01*
X137828010Y-124362754D01*
X137837333Y-124458807D01*
X137765318Y-124631868D01*
X137578188Y-124730008D01*
X137319312Y-124737939D01*
X137160000Y-124697576D01*
X136990621Y-124592038D01*
X136884986Y-124402222D01*
X136832401Y-124098729D01*
X136821333Y-123766484D01*
X136817130Y-123446815D01*
X136798044Y-123260893D01*
X136754358Y-123173212D01*
X136676356Y-123148264D01*
X136652000Y-123147666D01*
X136524145Y-123128864D01*
X136501524Y-123060228D01*
X136591777Y-122923416D01*
X136802549Y-122700087D01*
X136863666Y-122639666D01*
X137070351Y-122440090D01*
X137184321Y-122348918D01*
X137233165Y-122355385D01*
G36*
X134687358Y-122797083D02*
G01*
X135009188Y-123000513D01*
X135220109Y-123312395D01*
X135297309Y-123710502D01*
X135297333Y-123718082D01*
X135222911Y-124090960D01*
X135023087Y-124397584D01*
X134733019Y-124614711D01*
X134387869Y-124719096D01*
X134022795Y-124687495D01*
X133900333Y-124641623D01*
X133574777Y-124417751D01*
X133373491Y-124124415D01*
X133290061Y-123794228D01*
X133302865Y-123641352D01*
X133741015Y-123641352D01*
X133766173Y-123907552D01*
X133918538Y-124150961D01*
X133955656Y-124184833D01*
X134217743Y-124318328D01*
X134483532Y-124283320D01*
X134678043Y-124148908D01*
X134837676Y-123903236D01*
X134860010Y-123635731D01*
X134762423Y-123390946D01*
X134562294Y-123213434D01*
X134287478Y-123147666D01*
X134015797Y-123217242D01*
X133828933Y-123396526D01*
X133741015Y-123641352D01*
X133302865Y-123641352D01*
X133318071Y-123459803D01*
X133451107Y-123153752D01*
X133682756Y-122908688D01*
X134006602Y-122757223D01*
X134277434Y-122724333D01*
X134687358Y-122797083D01*
X134687358Y-122797083D01*
G37*
X134687358Y-122797083D02*
X135009188Y-123000513D01*
X135220109Y-123312395D01*
X135297309Y-123710502D01*
X135297333Y-123718082D01*
X135222911Y-124090960D01*
X135023087Y-124397584D01*
X134733019Y-124614711D01*
X134387869Y-124719096D01*
X134022795Y-124687495D01*
X133900333Y-124641623D01*
X133574777Y-124417751D01*
X133373491Y-124124415D01*
X133290061Y-123794228D01*
X133302865Y-123641352D01*
X133741015Y-123641352D01*
X133766173Y-123907552D01*
X133918538Y-124150961D01*
X133955656Y-124184833D01*
X134217743Y-124318328D01*
X134483532Y-124283320D01*
X134678043Y-124148908D01*
X134837676Y-123903236D01*
X134860010Y-123635731D01*
X134762423Y-123390946D01*
X134562294Y-123213434D01*
X134287478Y-123147666D01*
X134015797Y-123217242D01*
X133828933Y-123396526D01*
X133741015Y-123641352D01*
X133302865Y-123641352D01*
X133318071Y-123459803D01*
X133451107Y-123153752D01*
X133682756Y-122908688D01*
X134006602Y-122757223D01*
X134277434Y-122724333D01*
X134687358Y-122797083D01*
G36*
X132645207Y-122738949D02*
G01*
X132867134Y-122838910D01*
X132995678Y-123010857D01*
X133011333Y-123111291D01*
X132993433Y-123257693D01*
X132912869Y-123266762D01*
X132847566Y-123235312D01*
X132660319Y-123173430D01*
X132443241Y-123150347D01*
X132258060Y-123166263D01*
X132166508Y-123221376D01*
X132164666Y-123233115D01*
X132231347Y-123320246D01*
X132403884Y-123457434D01*
X132583774Y-123576444D01*
X132902568Y-123824829D01*
X133066284Y-124074294D01*
X133072760Y-124311574D01*
X132919834Y-124523403D01*
X132755537Y-124630261D01*
X132519535Y-124724455D01*
X132285731Y-124738696D01*
X131981733Y-124675739D01*
X131931833Y-124661609D01*
X131739088Y-124580182D01*
X131665022Y-124450619D01*
X131656666Y-124328404D01*
X131656666Y-124074651D01*
X131916397Y-124208963D01*
X132172647Y-124301719D01*
X132382304Y-124311784D01*
X132518924Y-124256861D01*
X132556064Y-124154650D01*
X132467280Y-124022854D01*
X132331752Y-123930926D01*
X131954227Y-123686679D01*
X131741696Y-123455266D01*
X131690951Y-123229947D01*
X131798787Y-123003983D01*
X131859226Y-122937409D01*
X132097243Y-122781556D01*
X132373907Y-122717617D01*
X132645207Y-122738949D01*
X132645207Y-122738949D01*
G37*
X132645207Y-122738949D02*
X132867134Y-122838910D01*
X132995678Y-123010857D01*
X133011333Y-123111291D01*
X132993433Y-123257693D01*
X132912869Y-123266762D01*
X132847566Y-123235312D01*
X132660319Y-123173430D01*
X132443241Y-123150347D01*
X132258060Y-123166263D01*
X132166508Y-123221376D01*
X132164666Y-123233115D01*
X132231347Y-123320246D01*
X132403884Y-123457434D01*
X132583774Y-123576444D01*
X132902568Y-123824829D01*
X133066284Y-124074294D01*
X133072760Y-124311574D01*
X132919834Y-124523403D01*
X132755537Y-124630261D01*
X132519535Y-124724455D01*
X132285731Y-124738696D01*
X131981733Y-124675739D01*
X131931833Y-124661609D01*
X131739088Y-124580182D01*
X131665022Y-124450619D01*
X131656666Y-124328404D01*
X131656666Y-124074651D01*
X131916397Y-124208963D01*
X132172647Y-124301719D01*
X132382304Y-124311784D01*
X132518924Y-124256861D01*
X132556064Y-124154650D01*
X132467280Y-124022854D01*
X132331752Y-123930926D01*
X131954227Y-123686679D01*
X131741696Y-123455266D01*
X131690951Y-123229947D01*
X131798787Y-123003983D01*
X131859226Y-122937409D01*
X132097243Y-122781556D01*
X132373907Y-122717617D01*
X132645207Y-122738949D01*
G36*
X124908882Y-122725805D02*
G01*
X125305415Y-122741745D01*
X125623946Y-122767007D01*
X125829178Y-122801592D01*
X125882400Y-122825933D01*
X125951906Y-122975463D01*
X125983781Y-123201919D01*
X125984000Y-123221433D01*
X126020212Y-123465023D01*
X126107887Y-123651986D01*
X126113135Y-123658026D01*
X126198126Y-123779640D01*
X126156057Y-123870129D01*
X126113135Y-123907893D01*
X126024170Y-124064639D01*
X125984289Y-124304469D01*
X125984000Y-124326433D01*
X125957886Y-124560397D01*
X125893873Y-124725938D01*
X125882399Y-124739400D01*
X125759089Y-124779393D01*
X125501999Y-124810065D01*
X125146427Y-124831414D01*
X124727668Y-124843441D01*
X124281022Y-124846145D01*
X123841783Y-124839528D01*
X123445250Y-124823587D01*
X123126719Y-124798325D01*
X122921488Y-124763740D01*
X122868266Y-124739400D01*
X122819000Y-124605708D01*
X122785378Y-124349612D01*
X122767401Y-124017317D01*
X122765068Y-123655029D01*
X122778379Y-123308953D01*
X122807334Y-123025294D01*
X122851934Y-122850257D01*
X122868266Y-122825933D01*
X122991577Y-122785939D01*
X123248667Y-122755268D01*
X123604239Y-122733918D01*
X124022997Y-122721891D01*
X124469644Y-122719187D01*
X124908882Y-122725805D01*
X124908882Y-122725805D01*
G37*
X124908882Y-122725805D02*
X125305415Y-122741745D01*
X125623946Y-122767007D01*
X125829178Y-122801592D01*
X125882400Y-122825933D01*
X125951906Y-122975463D01*
X125983781Y-123201919D01*
X125984000Y-123221433D01*
X126020212Y-123465023D01*
X126107887Y-123651986D01*
X126113135Y-123658026D01*
X126198126Y-123779640D01*
X126156057Y-123870129D01*
X126113135Y-123907893D01*
X126024170Y-124064639D01*
X125984289Y-124304469D01*
X125984000Y-124326433D01*
X125957886Y-124560397D01*
X125893873Y-124725938D01*
X125882399Y-124739400D01*
X125759089Y-124779393D01*
X125501999Y-124810065D01*
X125146427Y-124831414D01*
X124727668Y-124843441D01*
X124281022Y-124846145D01*
X123841783Y-124839528D01*
X123445250Y-124823587D01*
X123126719Y-124798325D01*
X122921488Y-124763740D01*
X122868266Y-124739400D01*
X122819000Y-124605708D01*
X122785378Y-124349612D01*
X122767401Y-124017317D01*
X122765068Y-123655029D01*
X122778379Y-123308953D01*
X122807334Y-123025294D01*
X122851934Y-122850257D01*
X122868266Y-122825933D01*
X122991577Y-122785939D01*
X123248667Y-122755268D01*
X123604239Y-122733918D01*
X124022997Y-122721891D01*
X124469644Y-122719187D01*
X124908882Y-122725805D01*
G36*
X129396216Y-122725805D02*
G01*
X129792749Y-122741745D01*
X130111280Y-122767007D01*
X130316511Y-122801592D01*
X130369733Y-122825933D01*
X130418999Y-122959625D01*
X130452621Y-123215721D01*
X130470598Y-123548015D01*
X130472931Y-123910303D01*
X130459620Y-124256379D01*
X130430665Y-124540039D01*
X130386065Y-124715076D01*
X130369733Y-124739400D01*
X130230593Y-124794820D01*
X129970346Y-124830921D01*
X129702766Y-124841000D01*
X129338208Y-124857131D01*
X129115898Y-124908590D01*
X129032000Y-124968000D01*
X128914973Y-125074142D01*
X128862666Y-125095000D01*
X128761529Y-125037519D01*
X128693333Y-124968000D01*
X128556051Y-124889115D01*
X128293487Y-124848770D01*
X128022566Y-124841000D01*
X127699124Y-124825955D01*
X127457959Y-124785674D01*
X127355599Y-124739400D01*
X127306333Y-124605708D01*
X127272712Y-124349612D01*
X127254734Y-124017317D01*
X127252401Y-123655029D01*
X127265712Y-123308953D01*
X127294668Y-123025294D01*
X127339268Y-122850257D01*
X127355599Y-122825933D01*
X127478910Y-122785939D01*
X127736000Y-122755268D01*
X128091572Y-122733918D01*
X128510331Y-122721891D01*
X128956977Y-122719187D01*
X129396216Y-122725805D01*
X129396216Y-122725805D01*
G37*
X129396216Y-122725805D02*
X129792749Y-122741745D01*
X130111280Y-122767007D01*
X130316511Y-122801592D01*
X130369733Y-122825933D01*
X130418999Y-122959625D01*
X130452621Y-123215721D01*
X130470598Y-123548015D01*
X130472931Y-123910303D01*
X130459620Y-124256379D01*
X130430665Y-124540039D01*
X130386065Y-124715076D01*
X130369733Y-124739400D01*
X130230593Y-124794820D01*
X129970346Y-124830921D01*
X129702766Y-124841000D01*
X129338208Y-124857131D01*
X129115898Y-124908590D01*
X129032000Y-124968000D01*
X128914973Y-125074142D01*
X128862666Y-125095000D01*
X128761529Y-125037519D01*
X128693333Y-124968000D01*
X128556051Y-124889115D01*
X128293487Y-124848770D01*
X128022566Y-124841000D01*
X127699124Y-124825955D01*
X127457959Y-124785674D01*
X127355599Y-124739400D01*
X127306333Y-124605708D01*
X127272712Y-124349612D01*
X127254734Y-124017317D01*
X127252401Y-123655029D01*
X127265712Y-123308953D01*
X127294668Y-123025294D01*
X127339268Y-122850257D01*
X127355599Y-122825933D01*
X127478910Y-122785939D01*
X127736000Y-122755268D01*
X128091572Y-122733918D01*
X128510331Y-122721891D01*
X128956977Y-122719187D01*
X129396216Y-122725805D01*
G36*
X146388666Y-128143000D02*
G01*
X145880666Y-128143000D01*
X145880666Y-125095000D01*
X146388666Y-125095000D01*
X146388666Y-128143000D01*
X146388666Y-128143000D01*
G37*
X146388666Y-128143000D02*
X145880666Y-128143000D01*
X145880666Y-125095000D01*
X146388666Y-125095000D01*
X146388666Y-128143000D01*
G36*
X145457333Y-128143000D02*
G01*
X145243009Y-128143000D01*
X145065476Y-128104656D01*
X144986826Y-128033916D01*
X144974129Y-127915915D01*
X144965849Y-127659543D01*
X144962367Y-127295715D01*
X144964063Y-126855346D01*
X144968316Y-126531083D01*
X144991666Y-125137333D01*
X145224500Y-125110542D01*
X145457333Y-125083752D01*
X145457333Y-128143000D01*
X145457333Y-128143000D01*
G37*
X145457333Y-128143000D02*
X145243009Y-128143000D01*
X145065476Y-128104656D01*
X144986826Y-128033916D01*
X144974129Y-127915915D01*
X144965849Y-127659543D01*
X144962367Y-127295715D01*
X144964063Y-126855346D01*
X144968316Y-126531083D01*
X144991666Y-125137333D01*
X145224500Y-125110542D01*
X145457333Y-125083752D01*
X145457333Y-128143000D01*
G36*
X144112368Y-126150157D02*
G01*
X144325096Y-126280767D01*
X144455538Y-126522530D01*
X144516879Y-126895152D01*
X144526000Y-127189809D01*
X144531210Y-127515104D01*
X144551109Y-127700710D01*
X144592102Y-127776072D01*
X144653000Y-127773715D01*
X144756881Y-127782308D01*
X144772620Y-127883886D01*
X144695033Y-128023818D01*
X144678400Y-128041400D01*
X144516429Y-128123089D01*
X144316569Y-128137255D01*
X144164214Y-128081222D01*
X144144858Y-128058104D01*
X144032411Y-128019265D01*
X143933761Y-128058104D01*
X143645839Y-128137925D01*
X143341400Y-128110759D01*
X143097734Y-127984310D01*
X143086666Y-127973666D01*
X142960885Y-127803522D01*
X142917333Y-127670820D01*
X142967657Y-127544368D01*
X143452009Y-127544368D01*
X143460081Y-127697049D01*
X143599270Y-127784780D01*
X143742351Y-127788836D01*
X143910190Y-127739880D01*
X143984363Y-127608648D01*
X144002197Y-127486833D01*
X143985219Y-127276790D01*
X143881405Y-127211388D01*
X143693049Y-127291289D01*
X143589927Y-127367812D01*
X143452009Y-127544368D01*
X142967657Y-127544368D01*
X142988607Y-127491728D01*
X143172753Y-127288919D01*
X143425258Y-127101158D01*
X143701610Y-126967206D01*
X143739248Y-126955079D01*
X143958690Y-126871874D01*
X144043648Y-126781320D01*
X144039858Y-126693440D01*
X143933088Y-126581405D01*
X143725758Y-126533353D01*
X143474822Y-126551116D01*
X143237233Y-126636525D01*
X143190172Y-126666134D01*
X143057037Y-126746947D01*
X143008535Y-126706565D01*
X143002000Y-126552724D01*
X143071697Y-126326666D01*
X143283417Y-126181755D01*
X143641098Y-126115821D01*
X143804172Y-126111000D01*
X144112368Y-126150157D01*
X144112368Y-126150157D01*
G37*
X144112368Y-126150157D02*
X144325096Y-126280767D01*
X144455538Y-126522530D01*
X144516879Y-126895152D01*
X144526000Y-127189809D01*
X144531210Y-127515104D01*
X144551109Y-127700710D01*
X144592102Y-127776072D01*
X144653000Y-127773715D01*
X144756881Y-127782308D01*
X144772620Y-127883886D01*
X144695033Y-128023818D01*
X144678400Y-128041400D01*
X144516429Y-128123089D01*
X144316569Y-128137255D01*
X144164214Y-128081222D01*
X144144858Y-128058104D01*
X144032411Y-128019265D01*
X143933761Y-128058104D01*
X143645839Y-128137925D01*
X143341400Y-128110759D01*
X143097734Y-127984310D01*
X143086666Y-127973666D01*
X142960885Y-127803522D01*
X142917333Y-127670820D01*
X142967657Y-127544368D01*
X143452009Y-127544368D01*
X143460081Y-127697049D01*
X143599270Y-127784780D01*
X143742351Y-127788836D01*
X143910190Y-127739880D01*
X143984363Y-127608648D01*
X144002197Y-127486833D01*
X143985219Y-127276790D01*
X143881405Y-127211388D01*
X143693049Y-127291289D01*
X143589927Y-127367812D01*
X143452009Y-127544368D01*
X142967657Y-127544368D01*
X142988607Y-127491728D01*
X143172753Y-127288919D01*
X143425258Y-127101158D01*
X143701610Y-126967206D01*
X143739248Y-126955079D01*
X143958690Y-126871874D01*
X144043648Y-126781320D01*
X144039858Y-126693440D01*
X143933088Y-126581405D01*
X143725758Y-126533353D01*
X143474822Y-126551116D01*
X143237233Y-126636525D01*
X143190172Y-126666134D01*
X143057037Y-126746947D01*
X143008535Y-126706565D01*
X143002000Y-126552724D01*
X143071697Y-126326666D01*
X143283417Y-126181755D01*
X143641098Y-126115821D01*
X143804172Y-126111000D01*
X144112368Y-126150157D01*
G36*
X142842342Y-126130511D02*
G01*
X142904348Y-126177848D01*
X142903222Y-126181564D01*
X142682604Y-126712291D01*
X142468709Y-127188458D01*
X142272485Y-127588732D01*
X142104881Y-127891780D01*
X141976845Y-128076270D01*
X141906427Y-128123786D01*
X141812280Y-128037016D01*
X141685095Y-127829647D01*
X141548242Y-127540741D01*
X141527094Y-127489766D01*
X141404212Y-127207706D01*
X141300016Y-127004443D01*
X141233128Y-126915362D01*
X141224605Y-126914958D01*
X141168798Y-127004614D01*
X141071236Y-127210786D01*
X140951286Y-127492072D01*
X140929447Y-127545910D01*
X140769623Y-127897720D01*
X140634088Y-128089783D01*
X140514794Y-128128570D01*
X140403692Y-128020550D01*
X140383358Y-127984924D01*
X140298235Y-127810576D01*
X140177365Y-127544169D01*
X140037374Y-127224749D01*
X139894885Y-126891363D01*
X139766524Y-126583059D01*
X139668916Y-126338881D01*
X139618686Y-126197879D01*
X139615333Y-126181066D01*
X139687569Y-126127465D01*
X139817238Y-126111000D01*
X139929448Y-126134266D01*
X140030249Y-126224142D01*
X140142380Y-126410736D01*
X140288582Y-126724161D01*
X140300198Y-126750533D01*
X140581253Y-127390067D01*
X140831004Y-126750533D01*
X140991157Y-126378032D01*
X141127071Y-126169543D01*
X141254614Y-126124564D01*
X141389651Y-126242590D01*
X141548048Y-126523119D01*
X141641262Y-126724833D01*
X141914403Y-127338666D01*
X142161868Y-126797997D01*
X142285041Y-126519112D01*
X142373671Y-126299798D01*
X142409273Y-126185906D01*
X142409333Y-126184163D01*
X142483108Y-126133320D01*
X142661523Y-126111041D01*
X142670388Y-126111000D01*
X142842342Y-126130511D01*
X142842342Y-126130511D01*
G37*
X142842342Y-126130511D02*
X142904348Y-126177848D01*
X142903222Y-126181564D01*
X142682604Y-126712291D01*
X142468709Y-127188458D01*
X142272485Y-127588732D01*
X142104881Y-127891780D01*
X141976845Y-128076270D01*
X141906427Y-128123786D01*
X141812280Y-128037016D01*
X141685095Y-127829647D01*
X141548242Y-127540741D01*
X141527094Y-127489766D01*
X141404212Y-127207706D01*
X141300016Y-127004443D01*
X141233128Y-126915362D01*
X141224605Y-126914958D01*
X141168798Y-127004614D01*
X141071236Y-127210786D01*
X140951286Y-127492072D01*
X140929447Y-127545910D01*
X140769623Y-127897720D01*
X140634088Y-128089783D01*
X140514794Y-128128570D01*
X140403692Y-128020550D01*
X140383358Y-127984924D01*
X140298235Y-127810576D01*
X140177365Y-127544169D01*
X140037374Y-127224749D01*
X139894885Y-126891363D01*
X139766524Y-126583059D01*
X139668916Y-126338881D01*
X139618686Y-126197879D01*
X139615333Y-126181066D01*
X139687569Y-126127465D01*
X139817238Y-126111000D01*
X139929448Y-126134266D01*
X140030249Y-126224142D01*
X140142380Y-126410736D01*
X140288582Y-126724161D01*
X140300198Y-126750533D01*
X140581253Y-127390067D01*
X140831004Y-126750533D01*
X140991157Y-126378032D01*
X141127071Y-126169543D01*
X141254614Y-126124564D01*
X141389651Y-126242590D01*
X141548048Y-126523119D01*
X141641262Y-126724833D01*
X141914403Y-127338666D01*
X142161868Y-126797997D01*
X142285041Y-126519112D01*
X142373671Y-126299798D01*
X142409273Y-126185906D01*
X142409333Y-126184163D01*
X142483108Y-126133320D01*
X142661523Y-126111041D01*
X142670388Y-126111000D01*
X142842342Y-126130511D01*
G36*
X138044794Y-126149760D02*
G01*
X138116027Y-126216833D01*
X138172563Y-126280208D01*
X138267016Y-126216833D01*
X138445380Y-126138484D01*
X138706510Y-126113964D01*
X138971917Y-126145423D01*
X139103993Y-126193879D01*
X139273038Y-126373043D01*
X139384423Y-126701299D01*
X139439341Y-127183128D01*
X139446000Y-127478300D01*
X139446000Y-128143000D01*
X138944354Y-128143000D01*
X138920010Y-127368800D01*
X138902021Y-126983807D01*
X138872714Y-126734145D01*
X138825315Y-126585872D01*
X138753047Y-126505046D01*
X138746769Y-126500966D01*
X138587924Y-126454779D01*
X138389124Y-126524501D01*
X138365769Y-126537317D01*
X138253651Y-126609643D01*
X138183354Y-126699491D01*
X138143255Y-126846173D01*
X138121732Y-127089001D01*
X138109203Y-127405150D01*
X138095338Y-127758983D01*
X138075496Y-127976613D01*
X138039239Y-128091111D01*
X137976133Y-128135550D01*
X137876370Y-128143000D01*
X137668000Y-128143000D01*
X137668000Y-126111000D01*
X137872611Y-126111000D01*
X138044794Y-126149760D01*
X138044794Y-126149760D01*
G37*
X138044794Y-126149760D02*
X138116027Y-126216833D01*
X138172563Y-126280208D01*
X138267016Y-126216833D01*
X138445380Y-126138484D01*
X138706510Y-126113964D01*
X138971917Y-126145423D01*
X139103993Y-126193879D01*
X139273038Y-126373043D01*
X139384423Y-126701299D01*
X139439341Y-127183128D01*
X139446000Y-127478300D01*
X139446000Y-128143000D01*
X138944354Y-128143000D01*
X138920010Y-127368800D01*
X138902021Y-126983807D01*
X138872714Y-126734145D01*
X138825315Y-126585872D01*
X138753047Y-126505046D01*
X138746769Y-126500966D01*
X138587924Y-126454779D01*
X138389124Y-126524501D01*
X138365769Y-126537317D01*
X138253651Y-126609643D01*
X138183354Y-126699491D01*
X138143255Y-126846173D01*
X138121732Y-127089001D01*
X138109203Y-127405150D01*
X138095338Y-127758983D01*
X138075496Y-127976613D01*
X138039239Y-128091111D01*
X137976133Y-128135550D01*
X137876370Y-128143000D01*
X137668000Y-128143000D01*
X137668000Y-126111000D01*
X137872611Y-126111000D01*
X138044794Y-126149760D01*
G36*
X137268841Y-126139501D02*
G01*
X137408138Y-126236047D01*
X137450537Y-126385883D01*
X137387854Y-126536914D01*
X137272951Y-126647640D01*
X137206176Y-126625218D01*
X137068132Y-126540673D01*
X136869496Y-126553348D01*
X136679582Y-126651844D01*
X136614467Y-126722505D01*
X136528153Y-126944748D01*
X136487076Y-127308399D01*
X136482666Y-127526838D01*
X136479830Y-127843937D01*
X136463031Y-128027911D01*
X136419833Y-128114960D01*
X136337800Y-128141287D01*
X136271000Y-128143000D01*
X136059333Y-128143000D01*
X136059333Y-126111000D01*
X136271000Y-126111000D01*
X136434567Y-126148366D01*
X136482550Y-126284846D01*
X136482666Y-126296298D01*
X136482666Y-126481596D01*
X136655298Y-126296298D01*
X136853847Y-126156956D01*
X137071219Y-126108914D01*
X137268841Y-126139501D01*
X137268841Y-126139501D01*
G37*
X137268841Y-126139501D02*
X137408138Y-126236047D01*
X137450537Y-126385883D01*
X137387854Y-126536914D01*
X137272951Y-126647640D01*
X137206176Y-126625218D01*
X137068132Y-126540673D01*
X136869496Y-126553348D01*
X136679582Y-126651844D01*
X136614467Y-126722505D01*
X136528153Y-126944748D01*
X136487076Y-127308399D01*
X136482666Y-127526838D01*
X136479830Y-127843937D01*
X136463031Y-128027911D01*
X136419833Y-128114960D01*
X136337800Y-128141287D01*
X136271000Y-128143000D01*
X136059333Y-128143000D01*
X136059333Y-126111000D01*
X136271000Y-126111000D01*
X136434567Y-126148366D01*
X136482550Y-126284846D01*
X136482666Y-126296298D01*
X136482666Y-126481596D01*
X136655298Y-126296298D01*
X136853847Y-126156956D01*
X137071219Y-126108914D01*
X137268841Y-126139501D01*
G36*
X135004185Y-126173310D02*
G01*
X135334252Y-126347814D01*
X135589894Y-126635431D01*
X135592161Y-126639251D01*
X135706571Y-126981858D01*
X135679695Y-127334885D01*
X135533157Y-127662553D01*
X135288581Y-127929080D01*
X134967591Y-128098687D01*
X134684743Y-128140747D01*
X134397882Y-128106274D01*
X134144016Y-128023808D01*
X134101230Y-128000445D01*
X133806253Y-127725972D01*
X133641766Y-127372176D01*
X133627267Y-127127000D01*
X134027333Y-127127000D01*
X134077374Y-127292807D01*
X134198227Y-127490704D01*
X134202811Y-127496581D01*
X134429837Y-127670196D01*
X134704333Y-127722700D01*
X134965623Y-127649778D01*
X135077965Y-127558843D01*
X135203052Y-127310632D01*
X135218331Y-127015445D01*
X135123120Y-126751547D01*
X135085436Y-126703412D01*
X134850165Y-126555850D01*
X134572215Y-126539940D01*
X134310768Y-126652058D01*
X134202811Y-126757418D01*
X134080404Y-126954809D01*
X134027392Y-127123097D01*
X134027333Y-127127000D01*
X133627267Y-127127000D01*
X133618542Y-126979487D01*
X133732433Y-126616228D01*
X133963817Y-126333376D01*
X134279329Y-126165600D01*
X134639331Y-126112408D01*
X135004185Y-126173310D01*
X135004185Y-126173310D01*
G37*
X135004185Y-126173310D02*
X135334252Y-126347814D01*
X135589894Y-126635431D01*
X135592161Y-126639251D01*
X135706571Y-126981858D01*
X135679695Y-127334885D01*
X135533157Y-127662553D01*
X135288581Y-127929080D01*
X134967591Y-128098687D01*
X134684743Y-128140747D01*
X134397882Y-128106274D01*
X134144016Y-128023808D01*
X134101230Y-128000445D01*
X133806253Y-127725972D01*
X133641766Y-127372176D01*
X133627267Y-127127000D01*
X134027333Y-127127000D01*
X134077374Y-127292807D01*
X134198227Y-127490704D01*
X134202811Y-127496581D01*
X134429837Y-127670196D01*
X134704333Y-127722700D01*
X134965623Y-127649778D01*
X135077965Y-127558843D01*
X135203052Y-127310632D01*
X135218331Y-127015445D01*
X135123120Y-126751547D01*
X135085436Y-126703412D01*
X134850165Y-126555850D01*
X134572215Y-126539940D01*
X134310768Y-126652058D01*
X134202811Y-126757418D01*
X134080404Y-126954809D01*
X134027392Y-127123097D01*
X134027333Y-127127000D01*
X133627267Y-127127000D01*
X133618542Y-126979487D01*
X133732433Y-126616228D01*
X133963817Y-126333376D01*
X134279329Y-126165600D01*
X134639331Y-126112408D01*
X135004185Y-126173310D01*
G36*
X132824094Y-126128038D02*
G01*
X133098629Y-126148464D01*
X133246848Y-126186881D01*
X133311743Y-126264242D01*
X133333504Y-126376292D01*
X133339465Y-126511377D01*
X133287427Y-126569744D01*
X133135259Y-126572528D01*
X132975329Y-126555968D01*
X132590406Y-126563507D01*
X132325284Y-126683431D01*
X132185767Y-126911939D01*
X132164666Y-127086618D01*
X132233958Y-127402943D01*
X132344736Y-127561070D01*
X132479003Y-127666621D01*
X132640382Y-127709581D01*
X132890124Y-127702790D01*
X132979736Y-127694187D01*
X133241680Y-127672082D01*
X133377130Y-127684843D01*
X133427592Y-127746113D01*
X133434666Y-127843725D01*
X133383246Y-128017957D01*
X133300741Y-128091608D01*
X133052149Y-128136633D01*
X132729480Y-128134815D01*
X132419943Y-128090884D01*
X132251874Y-128034685D01*
X132068378Y-127895391D01*
X131878856Y-127684592D01*
X131842421Y-127633766D01*
X131685121Y-127273190D01*
X131694167Y-126912063D01*
X131867270Y-126565204D01*
X132035703Y-126382089D01*
X132227454Y-126221532D01*
X132394676Y-126142105D01*
X132608836Y-126120776D01*
X132824094Y-126128038D01*
X132824094Y-126128038D01*
G37*
X132824094Y-126128038D02*
X133098629Y-126148464D01*
X133246848Y-126186881D01*
X133311743Y-126264242D01*
X133333504Y-126376292D01*
X133339465Y-126511377D01*
X133287427Y-126569744D01*
X133135259Y-126572528D01*
X132975329Y-126555968D01*
X132590406Y-126563507D01*
X132325284Y-126683431D01*
X132185767Y-126911939D01*
X132164666Y-127086618D01*
X132233958Y-127402943D01*
X132344736Y-127561070D01*
X132479003Y-127666621D01*
X132640382Y-127709581D01*
X132890124Y-127702790D01*
X132979736Y-127694187D01*
X133241680Y-127672082D01*
X133377130Y-127684843D01*
X133427592Y-127746113D01*
X133434666Y-127843725D01*
X133383246Y-128017957D01*
X133300741Y-128091608D01*
X133052149Y-128136633D01*
X132729480Y-128134815D01*
X132419943Y-128090884D01*
X132251874Y-128034685D01*
X132068378Y-127895391D01*
X131878856Y-127684592D01*
X131842421Y-127633766D01*
X131685121Y-127273190D01*
X131694167Y-126912063D01*
X131867270Y-126565204D01*
X132035703Y-126382089D01*
X132227454Y-126221532D01*
X132394676Y-126142105D01*
X132608836Y-126120776D01*
X132824094Y-126128038D01*
G36*
X129373927Y-126029586D02*
G01*
X129764652Y-126044051D01*
X130076368Y-126067778D01*
X130273627Y-126100936D01*
X130307566Y-126113978D01*
X130382202Y-126171228D01*
X130430183Y-126269019D01*
X130457220Y-126440702D01*
X130469019Y-126719624D01*
X130471333Y-127070712D01*
X130460607Y-127540053D01*
X130429173Y-127863782D01*
X130378143Y-128031260D01*
X130369733Y-128041400D01*
X130257636Y-128072595D01*
X130010946Y-128099104D01*
X129663959Y-128120422D01*
X129250970Y-128136041D01*
X128806275Y-128145457D01*
X128364168Y-128148162D01*
X127958946Y-128143650D01*
X127624904Y-128131415D01*
X127396336Y-128110952D01*
X127310444Y-128086555D01*
X127272492Y-127971037D01*
X127254278Y-127763129D01*
X127254000Y-127733388D01*
X127214761Y-127484622D01*
X127119741Y-127288571D01*
X127113877Y-127281833D01*
X127020227Y-127152816D01*
X127049961Y-127047659D01*
X127113877Y-126972166D01*
X127211282Y-126781417D01*
X127253922Y-126533313D01*
X127254000Y-126523433D01*
X127281663Y-126294707D01*
X127348929Y-126135235D01*
X127355599Y-126127933D01*
X127475927Y-126090339D01*
X127729946Y-126061004D01*
X128082204Y-126040093D01*
X128497254Y-126027774D01*
X128939645Y-126024216D01*
X129373927Y-126029586D01*
X129373927Y-126029586D01*
G37*
X129373927Y-126029586D02*
X129764652Y-126044051D01*
X130076368Y-126067778D01*
X130273627Y-126100936D01*
X130307566Y-126113978D01*
X130382202Y-126171228D01*
X130430183Y-126269019D01*
X130457220Y-126440702D01*
X130469019Y-126719624D01*
X130471333Y-127070712D01*
X130460607Y-127540053D01*
X130429173Y-127863782D01*
X130378143Y-128031260D01*
X130369733Y-128041400D01*
X130257636Y-128072595D01*
X130010946Y-128099104D01*
X129663959Y-128120422D01*
X129250970Y-128136041D01*
X128806275Y-128145457D01*
X128364168Y-128148162D01*
X127958946Y-128143650D01*
X127624904Y-128131415D01*
X127396336Y-128110952D01*
X127310444Y-128086555D01*
X127272492Y-127971037D01*
X127254278Y-127763129D01*
X127254000Y-127733388D01*
X127214761Y-127484622D01*
X127119741Y-127288571D01*
X127113877Y-127281833D01*
X127020227Y-127152816D01*
X127049961Y-127047659D01*
X127113877Y-126972166D01*
X127211282Y-126781417D01*
X127253922Y-126533313D01*
X127254000Y-126523433D01*
X127281663Y-126294707D01*
X127348929Y-126135235D01*
X127355599Y-126127933D01*
X127475927Y-126090339D01*
X127729946Y-126061004D01*
X128082204Y-126040093D01*
X128497254Y-126027774D01*
X128939645Y-126024216D01*
X129373927Y-126029586D01*
G36*
X124454673Y-125822294D02*
G01*
X124530166Y-125886211D01*
X124734869Y-125985110D01*
X125075479Y-126025027D01*
X125170732Y-126026333D01*
X125509620Y-126033581D01*
X125738321Y-126073849D01*
X125878471Y-126174922D01*
X125951708Y-126364584D01*
X125979667Y-126670621D01*
X125984000Y-127070712D01*
X125973274Y-127540053D01*
X125941839Y-127863782D01*
X125890810Y-128031260D01*
X125882399Y-128041400D01*
X125770302Y-128072595D01*
X125523612Y-128099104D01*
X125176625Y-128120422D01*
X124763637Y-128136041D01*
X124318941Y-128145457D01*
X123876835Y-128148162D01*
X123471613Y-128143650D01*
X123137570Y-128131415D01*
X122909003Y-128110952D01*
X122823111Y-128086555D01*
X122789630Y-127968854D01*
X122769919Y-127726537D01*
X122762960Y-127403678D01*
X122767737Y-127044348D01*
X122783235Y-126692619D01*
X122808438Y-126392562D01*
X122842329Y-126188250D01*
X122868266Y-126127933D01*
X123006619Y-126072515D01*
X123263134Y-126036236D01*
X123517766Y-126026333D01*
X123887858Y-126007724D01*
X124125261Y-125947514D01*
X124220499Y-125886211D01*
X124349516Y-125792560D01*
X124454673Y-125822294D01*
X124454673Y-125822294D01*
G37*
X124454673Y-125822294D02*
X124530166Y-125886211D01*
X124734869Y-125985110D01*
X125075479Y-126025027D01*
X125170732Y-126026333D01*
X125509620Y-126033581D01*
X125738321Y-126073849D01*
X125878471Y-126174922D01*
X125951708Y-126364584D01*
X125979667Y-126670621D01*
X125984000Y-127070712D01*
X125973274Y-127540053D01*
X125941839Y-127863782D01*
X125890810Y-128031260D01*
X125882399Y-128041400D01*
X125770302Y-128072595D01*
X125523612Y-128099104D01*
X125176625Y-128120422D01*
X124763637Y-128136041D01*
X124318941Y-128145457D01*
X123876835Y-128148162D01*
X123471613Y-128143650D01*
X123137570Y-128131415D01*
X122909003Y-128110952D01*
X122823111Y-128086555D01*
X122789630Y-127968854D01*
X122769919Y-127726537D01*
X122762960Y-127403678D01*
X122767737Y-127044348D01*
X122783235Y-126692619D01*
X122808438Y-126392562D01*
X122842329Y-126188250D01*
X122868266Y-126127933D01*
X123006619Y-126072515D01*
X123263134Y-126036236D01*
X123517766Y-126026333D01*
X123887858Y-126007724D01*
X124125261Y-125947514D01*
X124220499Y-125886211D01*
X124349516Y-125792560D01*
X124454673Y-125822294D01*
D13*
X111200000Y-124966252D02*
X111200000Y-124443748D01*
X109780000Y-124966252D02*
X109780000Y-124443748D01*
X153800000Y-104270000D02*
X153800000Y-86230000D01*
X110360000Y-104270000D02*
X153800000Y-104270000D01*
X110360000Y-86230000D02*
X110360000Y-104270000D01*
X113030000Y-88900000D02*
X113030000Y-86230000D01*
X148590000Y-88900000D02*
X113030000Y-88900000D01*
X148590000Y-88900000D02*
X148590000Y-86230000D01*
X113030000Y-101600000D02*
X113030000Y-104270000D01*
X151130000Y-101600000D02*
X113030000Y-101600000D01*
X151130000Y-101600000D02*
X151130000Y-104270000D01*
X153800000Y-86230000D02*
X151130000Y-86230000D01*
X148590000Y-86230000D02*
X110360000Y-86230000D01*
X151130000Y-88900000D02*
X151130000Y-86230000D01*
X148590000Y-88900000D02*
X151130000Y-88900000D01*
X150555000Y-46930000D02*
X150555000Y-48260000D01*
X149225000Y-46930000D02*
X150555000Y-46930000D01*
X147955000Y-46930000D02*
X147955000Y-49590000D01*
X147955000Y-49590000D02*
X145355000Y-49590000D01*
X147955000Y-46930000D02*
X145355000Y-46930000D01*
X145355000Y-46930000D02*
X145355000Y-49590000D01*
X145475000Y-46930000D02*
X145475000Y-48260000D01*
X144145000Y-46930000D02*
X145475000Y-46930000D01*
X142875000Y-46930000D02*
X142875000Y-49590000D01*
X142875000Y-49590000D02*
X140275000Y-49590000D01*
X142875000Y-46930000D02*
X140275000Y-46930000D01*
X140275000Y-46930000D02*
X140275000Y-49590000D01*
X164430000Y-49260000D02*
X160530000Y-49260000D01*
X164430000Y-47260000D02*
X160530000Y-47260000D01*
X164430000Y-49260000D02*
X164430000Y-47260000D01*
X159930000Y-51070000D02*
X163830000Y-51070000D01*
X159930000Y-53070000D02*
X163830000Y-53070000D01*
X159930000Y-51070000D02*
X159930000Y-53070000D01*
X170780000Y-54340000D02*
X166880000Y-54340000D01*
X170780000Y-52340000D02*
X166880000Y-52340000D01*
X170780000Y-54340000D02*
X170780000Y-52340000D01*
X166280000Y-56150000D02*
X170180000Y-56150000D01*
X166280000Y-58150000D02*
X170180000Y-58150000D01*
X166280000Y-56150000D02*
X166280000Y-58150000D01*
X118780000Y-52340000D02*
X122680000Y-52340000D01*
X118780000Y-54340000D02*
X122680000Y-54340000D01*
X118780000Y-52340000D02*
X118780000Y-54340000D01*
X123280000Y-58150000D02*
X119380000Y-58150000D01*
X123280000Y-56150000D02*
X119380000Y-56150000D01*
X123280000Y-58150000D02*
X123280000Y-56150000D01*
X125765000Y-47260000D02*
X129665000Y-47260000D01*
X125765000Y-49260000D02*
X129665000Y-49260000D01*
X125765000Y-47260000D02*
X125765000Y-49260000D01*
X130265000Y-53070000D02*
X126365000Y-53070000D01*
X130265000Y-51070000D02*
X126365000Y-51070000D01*
X130265000Y-53070000D02*
X130265000Y-51070000D01*
X138936252Y-60250000D02*
X138413748Y-60250000D01*
X138936252Y-61670000D02*
X138413748Y-61670000D01*
X145340000Y-76183748D02*
X145340000Y-76706252D01*
X146760000Y-76183748D02*
X146760000Y-76706252D01*
X110996252Y-62790000D02*
X110473748Y-62790000D01*
X110996252Y-64210000D02*
X110473748Y-64210000D01*
X115063748Y-64210000D02*
X115586252Y-64210000D01*
X115063748Y-62790000D02*
X115586252Y-62790000D01*
X182940000Y-48260000D02*
X182940000Y-49590000D01*
X182940000Y-49590000D02*
X181610000Y-49590000D01*
X180340000Y-49590000D02*
X167580000Y-49590000D01*
X167580000Y-46930000D02*
X167580000Y-49590000D01*
X180340000Y-46930000D02*
X167580000Y-46930000D01*
X180340000Y-46930000D02*
X180340000Y-49590000D01*
X107890000Y-48260000D02*
X107890000Y-46930000D01*
X107890000Y-46930000D02*
X109220000Y-46930000D01*
X110490000Y-46930000D02*
X123250000Y-46930000D01*
X123250000Y-49590000D02*
X123250000Y-46930000D01*
X110490000Y-49590000D02*
X123250000Y-49590000D01*
X110490000Y-49590000D02*
X110490000Y-46930000D01*
X144685000Y-114989000D02*
X146195000Y-114989000D01*
X144685000Y-118690000D02*
X146195000Y-118690000D01*
X146195000Y-121960000D02*
X146195000Y-111720000D01*
X144685000Y-111720000D02*
X149326000Y-111720000D01*
X144685000Y-121960000D02*
X149326000Y-121960000D01*
X149326000Y-121960000D02*
X149326000Y-111720000D01*
X144685000Y-121960000D02*
X144685000Y-111720000D01*
X113611000Y-57055000D02*
X113611000Y-58565000D01*
X109910000Y-57055000D02*
X109910000Y-58565000D01*
X106640000Y-58565000D02*
X116880000Y-58565000D01*
X116880000Y-57055000D02*
X116880000Y-61696000D01*
X106640000Y-57055000D02*
X106640000Y-61696000D01*
X106640000Y-61696000D02*
X116880000Y-61696000D01*
X106640000Y-57055000D02*
X116880000Y-57055000D01*
X153670000Y-67931000D02*
X153670000Y-71325000D01*
X151130000Y-67931000D02*
X151130000Y-71325000D01*
X148590000Y-67931000D02*
X148590000Y-71325000D01*
X146050000Y-67931000D02*
X146050000Y-71325000D01*
X143510000Y-67931000D02*
X143510000Y-71325000D01*
X140970000Y-67931000D02*
X140970000Y-71325000D01*
X138430000Y-67931000D02*
X138430000Y-71325000D01*
X135890000Y-67931000D02*
X135890000Y-71340000D01*
X146630000Y-62690000D02*
X146630000Y-64530000D01*
X142931000Y-62690000D02*
X142931000Y-64530000D01*
X134560000Y-64530000D02*
X155000000Y-64530000D01*
X155000000Y-62690000D02*
X155000000Y-67931000D01*
X134560000Y-62690000D02*
X134560000Y-67931000D01*
X153325000Y-67931000D02*
X155000000Y-67931000D01*
X150785000Y-67931000D02*
X151476000Y-67931000D01*
X148245000Y-67931000D02*
X148936000Y-67931000D01*
X145705000Y-67931000D02*
X146396000Y-67931000D01*
X143165000Y-67931000D02*
X143856000Y-67931000D01*
X140625000Y-67931000D02*
X141316000Y-67931000D01*
X138085000Y-67931000D02*
X138776000Y-67931000D01*
X134560000Y-67931000D02*
X136236000Y-67931000D01*
X134560000Y-62690000D02*
X155000000Y-62690000D01*
X111760000Y-109160000D02*
X113090000Y-109160000D01*
X113090000Y-109160000D02*
X113090000Y-110490000D01*
X110490000Y-109160000D02*
X110490000Y-111760000D01*
X110490000Y-111760000D02*
X113090000Y-111760000D01*
X113090000Y-111760000D02*
X113090000Y-119440000D01*
X107890000Y-119440000D02*
X113090000Y-119440000D01*
X107890000Y-109160000D02*
X107890000Y-119440000D01*
X107890000Y-109160000D02*
X110490000Y-109160000D01*
X176513748Y-64210000D02*
X177036252Y-64210000D01*
X176513748Y-62790000D02*
X177036252Y-62790000D01*
X176513748Y-60400000D02*
X177036252Y-60400000D01*
X176513748Y-58980000D02*
X177036252Y-58980000D01*
X176513748Y-56590000D02*
X177036252Y-56590000D01*
X176513748Y-55170000D02*
X177036252Y-55170000D01*
X167623748Y-128345000D02*
X168146252Y-128345000D01*
X167623748Y-126925000D02*
X168146252Y-126925000D01*
X170163748Y-125805000D02*
X170686252Y-125805000D01*
X170163748Y-124385000D02*
X170686252Y-124385000D01*
X152960000Y-75693748D02*
X152960000Y-76216252D01*
X154380000Y-75693748D02*
X154380000Y-76216252D01*
X132640000Y-73153748D02*
X132640000Y-73676252D01*
X134060000Y-73153748D02*
X134060000Y-73676252D01*
X123750000Y-92203748D02*
X123750000Y-92726252D01*
X125170000Y-92203748D02*
X125170000Y-92726252D01*
X128830000Y-92203748D02*
X128830000Y-92726252D01*
X130250000Y-92203748D02*
X130250000Y-92726252D01*
X126290000Y-92203748D02*
X126290000Y-92726252D01*
X127710000Y-92203748D02*
X127710000Y-92726252D01*
X116130000Y-92203748D02*
X116130000Y-92726252D01*
X117550000Y-92203748D02*
X117550000Y-92726252D01*
X113590000Y-92203748D02*
X113590000Y-92726252D01*
X115010000Y-92203748D02*
X115010000Y-92726252D01*
X111050000Y-92203748D02*
X111050000Y-92726252D01*
X112470000Y-92203748D02*
X112470000Y-92726252D01*
X177036252Y-52630000D02*
X176513748Y-52630000D01*
X177036252Y-54050000D02*
X176513748Y-54050000D01*
X112523748Y-54050000D02*
X113046252Y-54050000D01*
X112523748Y-52630000D02*
X113046252Y-52630000D01*
X118093748Y-121360000D02*
X118616252Y-121360000D01*
X118093748Y-119940000D02*
X118616252Y-119940000D01*
X118616252Y-117400000D02*
X118093748Y-117400000D01*
X118616252Y-118820000D02*
X118093748Y-118820000D01*
X114375000Y-124966252D02*
X114375000Y-124443748D01*
X112955000Y-124966252D02*
X112955000Y-124443748D01*
X108025000Y-124966252D02*
X108025000Y-124443748D01*
X106605000Y-124966252D02*
X106605000Y-124443748D01*
X158690000Y-127060000D02*
X158690000Y-125730000D01*
X160020000Y-127060000D02*
X158690000Y-127060000D01*
X161290000Y-127060000D02*
X161290000Y-124400000D01*
X161290000Y-124400000D02*
X163890000Y-124400000D01*
X161290000Y-127060000D02*
X163890000Y-127060000D01*
X163890000Y-127060000D02*
X163890000Y-124400000D01*
X158690000Y-123250000D02*
X158690000Y-121920000D01*
X160020000Y-123250000D02*
X158690000Y-123250000D01*
X161290000Y-123250000D02*
X161290000Y-120590000D01*
X161290000Y-120590000D02*
X163890000Y-120590000D01*
X161290000Y-123250000D02*
X163890000Y-123250000D01*
X163890000Y-123250000D02*
X163890000Y-120590000D01*
X118110000Y-67885000D02*
X119440000Y-67885000D01*
X119440000Y-67885000D02*
X119440000Y-69215000D01*
X119440000Y-70485000D02*
X119440000Y-78165000D01*
X116780000Y-78165000D02*
X119440000Y-78165000D01*
X116780000Y-70485000D02*
X116780000Y-78165000D01*
X116780000Y-70485000D02*
X119440000Y-70485000D01*
X113665000Y-67885000D02*
X114995000Y-67885000D01*
X114995000Y-67885000D02*
X114995000Y-69215000D01*
X114995000Y-70485000D02*
X114995000Y-78165000D01*
X112335000Y-78165000D02*
X114995000Y-78165000D01*
X112335000Y-70485000D02*
X112335000Y-78165000D01*
X112335000Y-70485000D02*
X114995000Y-70485000D01*
X107890000Y-67885000D02*
X109220000Y-67885000D01*
X107890000Y-69215000D02*
X107890000Y-67885000D01*
X107890000Y-70485000D02*
X110550000Y-70485000D01*
X110550000Y-70485000D02*
X110550000Y-75625000D01*
X107890000Y-70485000D02*
X107890000Y-75625000D01*
X107890000Y-75625000D02*
X110550000Y-75625000D01*
X181610000Y-53280000D02*
X182940000Y-53280000D01*
X182940000Y-53280000D02*
X182940000Y-54610000D01*
X182940000Y-55880000D02*
X182940000Y-63560000D01*
X180280000Y-63560000D02*
X182940000Y-63560000D01*
X180280000Y-55880000D02*
X180280000Y-63560000D01*
X180280000Y-55880000D02*
X182940000Y-55880000D01*
X162500000Y-130810000D02*
X162500000Y-129480000D01*
X162500000Y-129480000D02*
X163830000Y-129480000D01*
X165100000Y-129480000D02*
X172780000Y-129480000D01*
X172780000Y-132140000D02*
X172780000Y-129480000D01*
X165100000Y-132140000D02*
X172780000Y-132140000D01*
X165100000Y-132140000D02*
X165100000Y-129480000D01*
X138490000Y-130810000D02*
X138490000Y-132140000D01*
X138490000Y-132140000D02*
X137160000Y-132140000D01*
X135890000Y-132140000D02*
X118050000Y-132140000D01*
X118050000Y-129480000D02*
X118050000Y-132140000D01*
X135890000Y-129480000D02*
X118050000Y-129480000D01*
X135890000Y-129480000D02*
X135890000Y-132140000D01*
X121860000Y-109160000D02*
X123190000Y-109160000D01*
X121860000Y-110490000D02*
X121860000Y-109160000D01*
X121860000Y-111760000D02*
X124520000Y-111760000D01*
X124520000Y-111760000D02*
X124520000Y-119440000D01*
X121860000Y-111760000D02*
X121860000Y-119440000D01*
X121860000Y-119440000D02*
X124520000Y-119440000D01*
X143585000Y-116076252D02*
X143585000Y-115553748D01*
X142165000Y-116076252D02*
X142165000Y-115553748D01*
X148718748Y-110565000D02*
X149241252Y-110565000D01*
X148718748Y-109145000D02*
X149241252Y-109145000D01*
X118670000Y-92203748D02*
X118670000Y-92726252D01*
X120090000Y-92203748D02*
X120090000Y-92726252D01*
X121210000Y-92203748D02*
X121210000Y-92726252D01*
X122630000Y-92203748D02*
X122630000Y-92726252D01*
D11*
X167092380Y-94278333D02*
X167806666Y-94278333D01*
X167949523Y-94325952D01*
X168044761Y-94421190D01*
X168092380Y-94564047D01*
X168092380Y-94659285D01*
X168092380Y-93278333D02*
X168092380Y-93849761D01*
X168092380Y-93564047D02*
X167092380Y-93564047D01*
X167235238Y-93659285D01*
X167330476Y-93754523D01*
X167378095Y-93849761D01*
X134676428Y-91888571D02*
X134676428Y-92960000D01*
X134605000Y-93174285D01*
X134462142Y-93317142D01*
X134247857Y-93388571D01*
X134105000Y-93388571D01*
X136105000Y-93388571D02*
X135390714Y-93388571D01*
X135390714Y-91888571D01*
X137462142Y-93245714D02*
X137390714Y-93317142D01*
X137176428Y-93388571D01*
X137033571Y-93388571D01*
X136819285Y-93317142D01*
X136676428Y-93174285D01*
X136605000Y-93031428D01*
X136533571Y-92745714D01*
X136533571Y-92531428D01*
X136605000Y-92245714D01*
X136676428Y-92102857D01*
X136819285Y-91960000D01*
X137033571Y-91888571D01*
X137176428Y-91888571D01*
X137390714Y-91960000D01*
X137462142Y-92031428D01*
X138533571Y-91888571D02*
X138533571Y-92960000D01*
X138462142Y-93174285D01*
X138319285Y-93317142D01*
X138105000Y-93388571D01*
X137962142Y-93388571D01*
X139962142Y-93388571D02*
X139247857Y-93388571D01*
X139247857Y-91888571D01*
X141319285Y-93245714D02*
X141247857Y-93317142D01*
X141033571Y-93388571D01*
X140890714Y-93388571D01*
X140676428Y-93317142D01*
X140533571Y-93174285D01*
X140462142Y-93031428D01*
X140390714Y-92745714D01*
X140390714Y-92531428D01*
X140462142Y-92245714D01*
X140533571Y-92102857D01*
X140676428Y-91960000D01*
X140890714Y-91888571D01*
X141033571Y-91888571D01*
X141247857Y-91960000D01*
X141319285Y-92031428D01*
X142390714Y-91888571D02*
X142390714Y-92960000D01*
X142319285Y-93174285D01*
X142176428Y-93317142D01*
X141962142Y-93388571D01*
X141819285Y-93388571D01*
X143819285Y-93388571D02*
X143105000Y-93388571D01*
X143105000Y-91888571D01*
X145176428Y-93245714D02*
X145105000Y-93317142D01*
X144890714Y-93388571D01*
X144747857Y-93388571D01*
X144533571Y-93317142D01*
X144390714Y-93174285D01*
X144319285Y-93031428D01*
X144247857Y-92745714D01*
X144247857Y-92531428D01*
X144319285Y-92245714D01*
X144390714Y-92102857D01*
X144533571Y-91960000D01*
X144747857Y-91888571D01*
X144890714Y-91888571D01*
X145105000Y-91960000D01*
X145176428Y-92031428D01*
X146247857Y-91888571D02*
X146247857Y-92960000D01*
X146176428Y-93174285D01*
X146033571Y-93317142D01*
X145819285Y-93388571D01*
X145676428Y-93388571D01*
X147676428Y-93388571D02*
X146962142Y-93388571D01*
X146962142Y-91888571D01*
X149033571Y-93245714D02*
X148962142Y-93317142D01*
X148747857Y-93388571D01*
X148605000Y-93388571D01*
X148390714Y-93317142D01*
X148247857Y-93174285D01*
X148176428Y-93031428D01*
X148105000Y-92745714D01*
X148105000Y-92531428D01*
X148176428Y-92245714D01*
X148247857Y-92102857D01*
X148390714Y-91960000D01*
X148605000Y-91888571D01*
X148747857Y-91888571D01*
X148962142Y-91960000D01*
X149033571Y-92031428D01*
X109292380Y-125347857D02*
X108816190Y-125681190D01*
X109292380Y-125919285D02*
X108292380Y-125919285D01*
X108292380Y-125538333D01*
X108340000Y-125443095D01*
X108387619Y-125395476D01*
X108482857Y-125347857D01*
X108625714Y-125347857D01*
X108720952Y-125395476D01*
X108768571Y-125443095D01*
X108816190Y-125538333D01*
X108816190Y-125919285D01*
X108387619Y-124966904D02*
X108340000Y-124919285D01*
X108292380Y-124824047D01*
X108292380Y-124585952D01*
X108340000Y-124490714D01*
X108387619Y-124443095D01*
X108482857Y-124395476D01*
X108578095Y-124395476D01*
X108720952Y-124443095D01*
X109292380Y-125014523D01*
X109292380Y-124395476D01*
X108292380Y-123776428D02*
X108292380Y-123681190D01*
X108340000Y-123585952D01*
X108387619Y-123538333D01*
X108482857Y-123490714D01*
X108673333Y-123443095D01*
X108911428Y-123443095D01*
X109101904Y-123490714D01*
X109197142Y-123538333D01*
X109244761Y-123585952D01*
X109292380Y-123681190D01*
X109292380Y-123776428D01*
X109244761Y-123871666D01*
X109197142Y-123919285D01*
X109101904Y-123966904D01*
X108911428Y-124014523D01*
X108673333Y-124014523D01*
X108482857Y-123966904D01*
X108387619Y-123919285D01*
X108340000Y-123871666D01*
X108292380Y-123776428D01*
X155106666Y-95964285D02*
X155106666Y-95488095D01*
X155392380Y-96059523D02*
X154392380Y-95726190D01*
X155392380Y-95392857D01*
X155392380Y-94535714D02*
X155392380Y-95107142D01*
X155392380Y-94821428D02*
X154392380Y-94821428D01*
X154535238Y-94916666D01*
X154630476Y-95011904D01*
X154678095Y-95107142D01*
X147891666Y-51204761D02*
X148034523Y-51252380D01*
X148272619Y-51252380D01*
X148367857Y-51204761D01*
X148415476Y-51157142D01*
X148463095Y-51061904D01*
X148463095Y-50966666D01*
X148415476Y-50871428D01*
X148367857Y-50823809D01*
X148272619Y-50776190D01*
X148082142Y-50728571D01*
X147986904Y-50680952D01*
X147939285Y-50633333D01*
X147891666Y-50538095D01*
X147891666Y-50442857D01*
X147939285Y-50347619D01*
X147986904Y-50300000D01*
X148082142Y-50252380D01*
X148320238Y-50252380D01*
X148463095Y-50300000D01*
X148796428Y-50252380D02*
X149034523Y-51252380D01*
X149225000Y-50538095D01*
X149415476Y-51252380D01*
X149653571Y-50252380D01*
X150558333Y-51252380D02*
X149986904Y-51252380D01*
X150272619Y-51252380D02*
X150272619Y-50252380D01*
X150177380Y-50395238D01*
X150082142Y-50490476D01*
X149986904Y-50538095D01*
X140184285Y-50728571D02*
X140327142Y-50776190D01*
X140374761Y-50823809D01*
X140422380Y-50919047D01*
X140422380Y-51061904D01*
X140374761Y-51157142D01*
X140327142Y-51204761D01*
X140231904Y-51252380D01*
X139850952Y-51252380D01*
X139850952Y-50252380D01*
X140184285Y-50252380D01*
X140279523Y-50300000D01*
X140327142Y-50347619D01*
X140374761Y-50442857D01*
X140374761Y-50538095D01*
X140327142Y-50633333D01*
X140279523Y-50680952D01*
X140184285Y-50728571D01*
X139850952Y-50728571D01*
X140708095Y-50252380D02*
X141279523Y-50252380D01*
X140993809Y-51252380D02*
X140993809Y-50252380D01*
X142136666Y-51252380D02*
X141565238Y-51252380D01*
X141850952Y-51252380D02*
X141850952Y-50252380D01*
X141755714Y-50395238D01*
X141660476Y-50490476D01*
X141565238Y-50538095D01*
X161441904Y-50712380D02*
X161441904Y-49712380D01*
X161680000Y-49712380D01*
X161822857Y-49760000D01*
X161918095Y-49855238D01*
X161965714Y-49950476D01*
X162013333Y-50140952D01*
X162013333Y-50283809D01*
X161965714Y-50474285D01*
X161918095Y-50569523D01*
X161822857Y-50664761D01*
X161680000Y-50712380D01*
X161441904Y-50712380D01*
X162584761Y-50140952D02*
X162489523Y-50093333D01*
X162441904Y-50045714D01*
X162394285Y-49950476D01*
X162394285Y-49902857D01*
X162441904Y-49807619D01*
X162489523Y-49760000D01*
X162584761Y-49712380D01*
X162775238Y-49712380D01*
X162870476Y-49760000D01*
X162918095Y-49807619D01*
X162965714Y-49902857D01*
X162965714Y-49950476D01*
X162918095Y-50045714D01*
X162870476Y-50093333D01*
X162775238Y-50140952D01*
X162584761Y-50140952D01*
X162489523Y-50188571D01*
X162441904Y-50236190D01*
X162394285Y-50331428D01*
X162394285Y-50521904D01*
X162441904Y-50617142D01*
X162489523Y-50664761D01*
X162584761Y-50712380D01*
X162775238Y-50712380D01*
X162870476Y-50664761D01*
X162918095Y-50617142D01*
X162965714Y-50521904D01*
X162965714Y-50331428D01*
X162918095Y-50236190D01*
X162870476Y-50188571D01*
X162775238Y-50140952D01*
X161441904Y-54427380D02*
X161441904Y-53427380D01*
X161680000Y-53427380D01*
X161822857Y-53475000D01*
X161918095Y-53570238D01*
X161965714Y-53665476D01*
X162013333Y-53855952D01*
X162013333Y-53998809D01*
X161965714Y-54189285D01*
X161918095Y-54284523D01*
X161822857Y-54379761D01*
X161680000Y-54427380D01*
X161441904Y-54427380D01*
X162346666Y-53427380D02*
X163013333Y-53427380D01*
X162584761Y-54427380D01*
X167791904Y-55792380D02*
X167791904Y-54792380D01*
X168030000Y-54792380D01*
X168172857Y-54840000D01*
X168268095Y-54935238D01*
X168315714Y-55030476D01*
X168363333Y-55220952D01*
X168363333Y-55363809D01*
X168315714Y-55554285D01*
X168268095Y-55649523D01*
X168172857Y-55744761D01*
X168030000Y-55792380D01*
X167791904Y-55792380D01*
X169220476Y-54792380D02*
X169030000Y-54792380D01*
X168934761Y-54840000D01*
X168887142Y-54887619D01*
X168791904Y-55030476D01*
X168744285Y-55220952D01*
X168744285Y-55601904D01*
X168791904Y-55697142D01*
X168839523Y-55744761D01*
X168934761Y-55792380D01*
X169125238Y-55792380D01*
X169220476Y-55744761D01*
X169268095Y-55697142D01*
X169315714Y-55601904D01*
X169315714Y-55363809D01*
X169268095Y-55268571D01*
X169220476Y-55220952D01*
X169125238Y-55173333D01*
X168934761Y-55173333D01*
X168839523Y-55220952D01*
X168791904Y-55268571D01*
X168744285Y-55363809D01*
X167791904Y-59507380D02*
X167791904Y-58507380D01*
X168030000Y-58507380D01*
X168172857Y-58555000D01*
X168268095Y-58650238D01*
X168315714Y-58745476D01*
X168363333Y-58935952D01*
X168363333Y-59078809D01*
X168315714Y-59269285D01*
X168268095Y-59364523D01*
X168172857Y-59459761D01*
X168030000Y-59507380D01*
X167791904Y-59507380D01*
X169268095Y-58507380D02*
X168791904Y-58507380D01*
X168744285Y-58983571D01*
X168791904Y-58935952D01*
X168887142Y-58888333D01*
X169125238Y-58888333D01*
X169220476Y-58935952D01*
X169268095Y-58983571D01*
X169315714Y-59078809D01*
X169315714Y-59316904D01*
X169268095Y-59412142D01*
X169220476Y-59459761D01*
X169125238Y-59507380D01*
X168887142Y-59507380D01*
X168791904Y-59459761D01*
X168744285Y-59412142D01*
X120291904Y-55697380D02*
X120291904Y-54697380D01*
X120530000Y-54697380D01*
X120672857Y-54745000D01*
X120768095Y-54840238D01*
X120815714Y-54935476D01*
X120863333Y-55125952D01*
X120863333Y-55268809D01*
X120815714Y-55459285D01*
X120768095Y-55554523D01*
X120672857Y-55649761D01*
X120530000Y-55697380D01*
X120291904Y-55697380D01*
X121720476Y-55030714D02*
X121720476Y-55697380D01*
X121482380Y-54649761D02*
X121244285Y-55364047D01*
X121863333Y-55364047D01*
X120291904Y-59602380D02*
X120291904Y-58602380D01*
X120530000Y-58602380D01*
X120672857Y-58650000D01*
X120768095Y-58745238D01*
X120815714Y-58840476D01*
X120863333Y-59030952D01*
X120863333Y-59173809D01*
X120815714Y-59364285D01*
X120768095Y-59459523D01*
X120672857Y-59554761D01*
X120530000Y-59602380D01*
X120291904Y-59602380D01*
X121196666Y-58602380D02*
X121815714Y-58602380D01*
X121482380Y-58983333D01*
X121625238Y-58983333D01*
X121720476Y-59030952D01*
X121768095Y-59078571D01*
X121815714Y-59173809D01*
X121815714Y-59411904D01*
X121768095Y-59507142D01*
X121720476Y-59554761D01*
X121625238Y-59602380D01*
X121339523Y-59602380D01*
X121244285Y-59554761D01*
X121196666Y-59507142D01*
X127276904Y-50617380D02*
X127276904Y-49617380D01*
X127515000Y-49617380D01*
X127657857Y-49665000D01*
X127753095Y-49760238D01*
X127800714Y-49855476D01*
X127848333Y-50045952D01*
X127848333Y-50188809D01*
X127800714Y-50379285D01*
X127753095Y-50474523D01*
X127657857Y-50569761D01*
X127515000Y-50617380D01*
X127276904Y-50617380D01*
X128229285Y-49712619D02*
X128276904Y-49665000D01*
X128372142Y-49617380D01*
X128610238Y-49617380D01*
X128705476Y-49665000D01*
X128753095Y-49712619D01*
X128800714Y-49807857D01*
X128800714Y-49903095D01*
X128753095Y-50045952D01*
X128181666Y-50617380D01*
X128800714Y-50617380D01*
X127276904Y-54522380D02*
X127276904Y-53522380D01*
X127515000Y-53522380D01*
X127657857Y-53570000D01*
X127753095Y-53665238D01*
X127800714Y-53760476D01*
X127848333Y-53950952D01*
X127848333Y-54093809D01*
X127800714Y-54284285D01*
X127753095Y-54379523D01*
X127657857Y-54474761D01*
X127515000Y-54522380D01*
X127276904Y-54522380D01*
X128800714Y-54522380D02*
X128229285Y-54522380D01*
X128515000Y-54522380D02*
X128515000Y-53522380D01*
X128419761Y-53665238D01*
X128324523Y-53760476D01*
X128229285Y-53808095D01*
X138508333Y-59412142D02*
X138460714Y-59459761D01*
X138317857Y-59507380D01*
X138222619Y-59507380D01*
X138079761Y-59459761D01*
X137984523Y-59364523D01*
X137936904Y-59269285D01*
X137889285Y-59078809D01*
X137889285Y-58935952D01*
X137936904Y-58745476D01*
X137984523Y-58650238D01*
X138079761Y-58555000D01*
X138222619Y-58507380D01*
X138317857Y-58507380D01*
X138460714Y-58555000D01*
X138508333Y-58602619D01*
X139365476Y-58840714D02*
X139365476Y-59507380D01*
X139127380Y-58459761D02*
X138889285Y-59174047D01*
X139508333Y-59174047D01*
X146407142Y-80176666D02*
X146454761Y-80224285D01*
X146502380Y-80367142D01*
X146502380Y-80462380D01*
X146454761Y-80605238D01*
X146359523Y-80700476D01*
X146264285Y-80748095D01*
X146073809Y-80795714D01*
X145930952Y-80795714D01*
X145740476Y-80748095D01*
X145645238Y-80700476D01*
X145550000Y-80605238D01*
X145502380Y-80462380D01*
X145502380Y-80367142D01*
X145550000Y-80224285D01*
X145597619Y-80176666D01*
X145502380Y-79843333D02*
X145502380Y-79224285D01*
X145883333Y-79557619D01*
X145883333Y-79414761D01*
X145930952Y-79319523D01*
X145978571Y-79271904D01*
X146073809Y-79224285D01*
X146311904Y-79224285D01*
X146407142Y-79271904D01*
X146454761Y-79319523D01*
X146502380Y-79414761D01*
X146502380Y-79700476D01*
X146454761Y-79795714D01*
X146407142Y-79843333D01*
X110568333Y-65507142D02*
X110520714Y-65554761D01*
X110377857Y-65602380D01*
X110282619Y-65602380D01*
X110139761Y-65554761D01*
X110044523Y-65459523D01*
X109996904Y-65364285D01*
X109949285Y-65173809D01*
X109949285Y-65030952D01*
X109996904Y-64840476D01*
X110044523Y-64745238D01*
X110139761Y-64650000D01*
X110282619Y-64602380D01*
X110377857Y-64602380D01*
X110520714Y-64650000D01*
X110568333Y-64697619D01*
X111425476Y-64602380D02*
X111235000Y-64602380D01*
X111139761Y-64650000D01*
X111092142Y-64697619D01*
X110996904Y-64840476D01*
X110949285Y-65030952D01*
X110949285Y-65411904D01*
X110996904Y-65507142D01*
X111044523Y-65554761D01*
X111139761Y-65602380D01*
X111330238Y-65602380D01*
X111425476Y-65554761D01*
X111473095Y-65507142D01*
X111520714Y-65411904D01*
X111520714Y-65173809D01*
X111473095Y-65078571D01*
X111425476Y-65030952D01*
X111330238Y-64983333D01*
X111139761Y-64983333D01*
X111044523Y-65030952D01*
X110996904Y-65078571D01*
X110949285Y-65173809D01*
X115158333Y-65762142D02*
X115110714Y-65809761D01*
X114967857Y-65857380D01*
X114872619Y-65857380D01*
X114729761Y-65809761D01*
X114634523Y-65714523D01*
X114586904Y-65619285D01*
X114539285Y-65428809D01*
X114539285Y-65285952D01*
X114586904Y-65095476D01*
X114634523Y-65000238D01*
X114729761Y-64905000D01*
X114872619Y-64857380D01*
X114967857Y-64857380D01*
X115110714Y-64905000D01*
X115158333Y-64952619D01*
X116063095Y-64857380D02*
X115586904Y-64857380D01*
X115539285Y-65333571D01*
X115586904Y-65285952D01*
X115682142Y-65238333D01*
X115920238Y-65238333D01*
X116015476Y-65285952D01*
X116063095Y-65333571D01*
X116110714Y-65428809D01*
X116110714Y-65666904D01*
X116063095Y-65762142D01*
X116015476Y-65809761D01*
X115920238Y-65857380D01*
X115682142Y-65857380D01*
X115586904Y-65809761D01*
X115539285Y-65762142D01*
X181276666Y-50252380D02*
X181276666Y-50966666D01*
X181229047Y-51109523D01*
X181133809Y-51204761D01*
X180990952Y-51252380D01*
X180895714Y-51252380D01*
X181657619Y-50252380D02*
X182276666Y-50252380D01*
X181943333Y-50633333D01*
X182086190Y-50633333D01*
X182181428Y-50680952D01*
X182229047Y-50728571D01*
X182276666Y-50823809D01*
X182276666Y-51061904D01*
X182229047Y-51157142D01*
X182181428Y-51204761D01*
X182086190Y-51252380D01*
X181800476Y-51252380D01*
X181705238Y-51204761D01*
X181657619Y-51157142D01*
X107616666Y-50252380D02*
X107616666Y-50966666D01*
X107569047Y-51109523D01*
X107473809Y-51204761D01*
X107330952Y-51252380D01*
X107235714Y-51252380D01*
X108045238Y-50347619D02*
X108092857Y-50300000D01*
X108188095Y-50252380D01*
X108426190Y-50252380D01*
X108521428Y-50300000D01*
X108569047Y-50347619D01*
X108616666Y-50442857D01*
X108616666Y-50538095D01*
X108569047Y-50680952D01*
X107997619Y-51252380D01*
X108616666Y-51252380D01*
X149947380Y-116966904D02*
X150756904Y-116966904D01*
X150852142Y-116919285D01*
X150899761Y-116871666D01*
X150947380Y-116776428D01*
X150947380Y-116585952D01*
X150899761Y-116490714D01*
X150852142Y-116443095D01*
X150756904Y-116395476D01*
X149947380Y-116395476D01*
X150280714Y-115490714D02*
X150947380Y-115490714D01*
X149899761Y-115728809D02*
X150614047Y-115966904D01*
X150614047Y-115347857D01*
X110998095Y-55507380D02*
X110998095Y-56316904D01*
X111045714Y-56412142D01*
X111093333Y-56459761D01*
X111188571Y-56507380D01*
X111379047Y-56507380D01*
X111474285Y-56459761D01*
X111521904Y-56412142D01*
X111569523Y-56316904D01*
X111569523Y-55507380D01*
X111950476Y-55507380D02*
X112569523Y-55507380D01*
X112236190Y-55888333D01*
X112379047Y-55888333D01*
X112474285Y-55935952D01*
X112521904Y-55983571D01*
X112569523Y-56078809D01*
X112569523Y-56316904D01*
X112521904Y-56412142D01*
X112474285Y-56459761D01*
X112379047Y-56507380D01*
X112093333Y-56507380D01*
X111998095Y-56459761D01*
X111950476Y-56412142D01*
X144018095Y-61142380D02*
X144018095Y-61951904D01*
X144065714Y-62047142D01*
X144113333Y-62094761D01*
X144208571Y-62142380D01*
X144399047Y-62142380D01*
X144494285Y-62094761D01*
X144541904Y-62047142D01*
X144589523Y-61951904D01*
X144589523Y-61142380D01*
X145018095Y-61237619D02*
X145065714Y-61190000D01*
X145160952Y-61142380D01*
X145399047Y-61142380D01*
X145494285Y-61190000D01*
X145541904Y-61237619D01*
X145589523Y-61332857D01*
X145589523Y-61428095D01*
X145541904Y-61570952D01*
X144970476Y-62142380D01*
X145589523Y-62142380D01*
X109728095Y-107172380D02*
X109728095Y-107981904D01*
X109775714Y-108077142D01*
X109823333Y-108124761D01*
X109918571Y-108172380D01*
X110109047Y-108172380D01*
X110204285Y-108124761D01*
X110251904Y-108077142D01*
X110299523Y-107981904D01*
X110299523Y-107172380D01*
X111299523Y-108172380D02*
X110728095Y-108172380D01*
X111013809Y-108172380D02*
X111013809Y-107172380D01*
X110918571Y-107315238D01*
X110823333Y-107410476D01*
X110728095Y-107458095D01*
X172712142Y-63952380D02*
X172378809Y-63476190D01*
X172140714Y-63952380D02*
X172140714Y-62952380D01*
X172521666Y-62952380D01*
X172616904Y-63000000D01*
X172664523Y-63047619D01*
X172712142Y-63142857D01*
X172712142Y-63285714D01*
X172664523Y-63380952D01*
X172616904Y-63428571D01*
X172521666Y-63476190D01*
X172140714Y-63476190D01*
X173664523Y-63952380D02*
X173093095Y-63952380D01*
X173378809Y-63952380D02*
X173378809Y-62952380D01*
X173283571Y-63095238D01*
X173188333Y-63190476D01*
X173093095Y-63238095D01*
X174140714Y-63952380D02*
X174331190Y-63952380D01*
X174426428Y-63904761D01*
X174474047Y-63857142D01*
X174569285Y-63714285D01*
X174616904Y-63523809D01*
X174616904Y-63142857D01*
X174569285Y-63047619D01*
X174521666Y-63000000D01*
X174426428Y-62952380D01*
X174235952Y-62952380D01*
X174140714Y-63000000D01*
X174093095Y-63047619D01*
X174045476Y-63142857D01*
X174045476Y-63380952D01*
X174093095Y-63476190D01*
X174140714Y-63523809D01*
X174235952Y-63571428D01*
X174426428Y-63571428D01*
X174521666Y-63523809D01*
X174569285Y-63476190D01*
X174616904Y-63380952D01*
X172712142Y-60142380D02*
X172378809Y-59666190D01*
X172140714Y-60142380D02*
X172140714Y-59142380D01*
X172521666Y-59142380D01*
X172616904Y-59190000D01*
X172664523Y-59237619D01*
X172712142Y-59332857D01*
X172712142Y-59475714D01*
X172664523Y-59570952D01*
X172616904Y-59618571D01*
X172521666Y-59666190D01*
X172140714Y-59666190D01*
X173664523Y-60142380D02*
X173093095Y-60142380D01*
X173378809Y-60142380D02*
X173378809Y-59142380D01*
X173283571Y-59285238D01*
X173188333Y-59380476D01*
X173093095Y-59428095D01*
X174235952Y-59570952D02*
X174140714Y-59523333D01*
X174093095Y-59475714D01*
X174045476Y-59380476D01*
X174045476Y-59332857D01*
X174093095Y-59237619D01*
X174140714Y-59190000D01*
X174235952Y-59142380D01*
X174426428Y-59142380D01*
X174521666Y-59190000D01*
X174569285Y-59237619D01*
X174616904Y-59332857D01*
X174616904Y-59380476D01*
X174569285Y-59475714D01*
X174521666Y-59523333D01*
X174426428Y-59570952D01*
X174235952Y-59570952D01*
X174140714Y-59618571D01*
X174093095Y-59666190D01*
X174045476Y-59761428D01*
X174045476Y-59951904D01*
X174093095Y-60047142D01*
X174140714Y-60094761D01*
X174235952Y-60142380D01*
X174426428Y-60142380D01*
X174521666Y-60094761D01*
X174569285Y-60047142D01*
X174616904Y-59951904D01*
X174616904Y-59761428D01*
X174569285Y-59666190D01*
X174521666Y-59618571D01*
X174426428Y-59570952D01*
X172712142Y-56332380D02*
X172378809Y-55856190D01*
X172140714Y-56332380D02*
X172140714Y-55332380D01*
X172521666Y-55332380D01*
X172616904Y-55380000D01*
X172664523Y-55427619D01*
X172712142Y-55522857D01*
X172712142Y-55665714D01*
X172664523Y-55760952D01*
X172616904Y-55808571D01*
X172521666Y-55856190D01*
X172140714Y-55856190D01*
X173664523Y-56332380D02*
X173093095Y-56332380D01*
X173378809Y-56332380D02*
X173378809Y-55332380D01*
X173283571Y-55475238D01*
X173188333Y-55570476D01*
X173093095Y-55618095D01*
X173997857Y-55332380D02*
X174664523Y-55332380D01*
X174235952Y-56332380D01*
X170172142Y-128087380D02*
X169838809Y-127611190D01*
X169600714Y-128087380D02*
X169600714Y-127087380D01*
X169981666Y-127087380D01*
X170076904Y-127135000D01*
X170124523Y-127182619D01*
X170172142Y-127277857D01*
X170172142Y-127420714D01*
X170124523Y-127515952D01*
X170076904Y-127563571D01*
X169981666Y-127611190D01*
X169600714Y-127611190D01*
X171124523Y-128087380D02*
X170553095Y-128087380D01*
X170838809Y-128087380D02*
X170838809Y-127087380D01*
X170743571Y-127230238D01*
X170648333Y-127325476D01*
X170553095Y-127373095D01*
X171981666Y-127087380D02*
X171791190Y-127087380D01*
X171695952Y-127135000D01*
X171648333Y-127182619D01*
X171553095Y-127325476D01*
X171505476Y-127515952D01*
X171505476Y-127896904D01*
X171553095Y-127992142D01*
X171600714Y-128039761D01*
X171695952Y-128087380D01*
X171886428Y-128087380D01*
X171981666Y-128039761D01*
X172029285Y-127992142D01*
X172076904Y-127896904D01*
X172076904Y-127658809D01*
X172029285Y-127563571D01*
X171981666Y-127515952D01*
X171886428Y-127468333D01*
X171695952Y-127468333D01*
X171600714Y-127515952D01*
X171553095Y-127563571D01*
X171505476Y-127658809D01*
X173347142Y-125547380D02*
X173013809Y-125071190D01*
X172775714Y-125547380D02*
X172775714Y-124547380D01*
X173156666Y-124547380D01*
X173251904Y-124595000D01*
X173299523Y-124642619D01*
X173347142Y-124737857D01*
X173347142Y-124880714D01*
X173299523Y-124975952D01*
X173251904Y-125023571D01*
X173156666Y-125071190D01*
X172775714Y-125071190D01*
X174299523Y-125547380D02*
X173728095Y-125547380D01*
X174013809Y-125547380D02*
X174013809Y-124547380D01*
X173918571Y-124690238D01*
X173823333Y-124785476D01*
X173728095Y-124833095D01*
X175204285Y-124547380D02*
X174728095Y-124547380D01*
X174680476Y-125023571D01*
X174728095Y-124975952D01*
X174823333Y-124928333D01*
X175061428Y-124928333D01*
X175156666Y-124975952D01*
X175204285Y-125023571D01*
X175251904Y-125118809D01*
X175251904Y-125356904D01*
X175204285Y-125452142D01*
X175156666Y-125499761D01*
X175061428Y-125547380D01*
X174823333Y-125547380D01*
X174728095Y-125499761D01*
X174680476Y-125452142D01*
X154122380Y-80162857D02*
X153646190Y-80496190D01*
X154122380Y-80734285D02*
X153122380Y-80734285D01*
X153122380Y-80353333D01*
X153170000Y-80258095D01*
X153217619Y-80210476D01*
X153312857Y-80162857D01*
X153455714Y-80162857D01*
X153550952Y-80210476D01*
X153598571Y-80258095D01*
X153646190Y-80353333D01*
X153646190Y-80734285D01*
X154122380Y-79210476D02*
X154122380Y-79781904D01*
X154122380Y-79496190D02*
X153122380Y-79496190D01*
X153265238Y-79591428D01*
X153360476Y-79686666D01*
X153408095Y-79781904D01*
X153455714Y-78353333D02*
X154122380Y-78353333D01*
X153074761Y-78591428D02*
X153789047Y-78829523D01*
X153789047Y-78210476D01*
X133802380Y-78112857D02*
X133326190Y-78446190D01*
X133802380Y-78684285D02*
X132802380Y-78684285D01*
X132802380Y-78303333D01*
X132850000Y-78208095D01*
X132897619Y-78160476D01*
X132992857Y-78112857D01*
X133135714Y-78112857D01*
X133230952Y-78160476D01*
X133278571Y-78208095D01*
X133326190Y-78303333D01*
X133326190Y-78684285D01*
X133802380Y-77160476D02*
X133802380Y-77731904D01*
X133802380Y-77446190D02*
X132802380Y-77446190D01*
X132945238Y-77541428D01*
X133040476Y-77636666D01*
X133088095Y-77731904D01*
X132802380Y-76827142D02*
X132802380Y-76208095D01*
X133183333Y-76541428D01*
X133183333Y-76398571D01*
X133230952Y-76303333D01*
X133278571Y-76255714D01*
X133373809Y-76208095D01*
X133611904Y-76208095D01*
X133707142Y-76255714D01*
X133754761Y-76303333D01*
X133802380Y-76398571D01*
X133802380Y-76684285D01*
X133754761Y-76779523D01*
X133707142Y-76827142D01*
X124912380Y-97162857D02*
X124436190Y-97496190D01*
X124912380Y-97734285D02*
X123912380Y-97734285D01*
X123912380Y-97353333D01*
X123960000Y-97258095D01*
X124007619Y-97210476D01*
X124102857Y-97162857D01*
X124245714Y-97162857D01*
X124340952Y-97210476D01*
X124388571Y-97258095D01*
X124436190Y-97353333D01*
X124436190Y-97734285D01*
X124912380Y-96210476D02*
X124912380Y-96781904D01*
X124912380Y-96496190D02*
X123912380Y-96496190D01*
X124055238Y-96591428D01*
X124150476Y-96686666D01*
X124198095Y-96781904D01*
X124007619Y-95829523D02*
X123960000Y-95781904D01*
X123912380Y-95686666D01*
X123912380Y-95448571D01*
X123960000Y-95353333D01*
X124007619Y-95305714D01*
X124102857Y-95258095D01*
X124198095Y-95258095D01*
X124340952Y-95305714D01*
X124912380Y-95877142D01*
X124912380Y-95258095D01*
X129992380Y-97162857D02*
X129516190Y-97496190D01*
X129992380Y-97734285D02*
X128992380Y-97734285D01*
X128992380Y-97353333D01*
X129040000Y-97258095D01*
X129087619Y-97210476D01*
X129182857Y-97162857D01*
X129325714Y-97162857D01*
X129420952Y-97210476D01*
X129468571Y-97258095D01*
X129516190Y-97353333D01*
X129516190Y-97734285D01*
X129992380Y-96210476D02*
X129992380Y-96781904D01*
X129992380Y-96496190D02*
X128992380Y-96496190D01*
X129135238Y-96591428D01*
X129230476Y-96686666D01*
X129278095Y-96781904D01*
X129992380Y-95258095D02*
X129992380Y-95829523D01*
X129992380Y-95543809D02*
X128992380Y-95543809D01*
X129135238Y-95639047D01*
X129230476Y-95734285D01*
X129278095Y-95829523D01*
X127452380Y-97162857D02*
X126976190Y-97496190D01*
X127452380Y-97734285D02*
X126452380Y-97734285D01*
X126452380Y-97353333D01*
X126500000Y-97258095D01*
X126547619Y-97210476D01*
X126642857Y-97162857D01*
X126785714Y-97162857D01*
X126880952Y-97210476D01*
X126928571Y-97258095D01*
X126976190Y-97353333D01*
X126976190Y-97734285D01*
X127452380Y-96210476D02*
X127452380Y-96781904D01*
X127452380Y-96496190D02*
X126452380Y-96496190D01*
X126595238Y-96591428D01*
X126690476Y-96686666D01*
X126738095Y-96781904D01*
X126452380Y-95591428D02*
X126452380Y-95496190D01*
X126500000Y-95400952D01*
X126547619Y-95353333D01*
X126642857Y-95305714D01*
X126833333Y-95258095D01*
X127071428Y-95258095D01*
X127261904Y-95305714D01*
X127357142Y-95353333D01*
X127404761Y-95400952D01*
X127452380Y-95496190D01*
X127452380Y-95591428D01*
X127404761Y-95686666D01*
X127357142Y-95734285D01*
X127261904Y-95781904D01*
X127071428Y-95829523D01*
X126833333Y-95829523D01*
X126642857Y-95781904D01*
X126547619Y-95734285D01*
X126500000Y-95686666D01*
X126452380Y-95591428D01*
X117292380Y-96051666D02*
X116816190Y-96385000D01*
X117292380Y-96623095D02*
X116292380Y-96623095D01*
X116292380Y-96242142D01*
X116340000Y-96146904D01*
X116387619Y-96099285D01*
X116482857Y-96051666D01*
X116625714Y-96051666D01*
X116720952Y-96099285D01*
X116768571Y-96146904D01*
X116816190Y-96242142D01*
X116816190Y-96623095D01*
X117292380Y-95575476D02*
X117292380Y-95385000D01*
X117244761Y-95289761D01*
X117197142Y-95242142D01*
X117054285Y-95146904D01*
X116863809Y-95099285D01*
X116482857Y-95099285D01*
X116387619Y-95146904D01*
X116340000Y-95194523D01*
X116292380Y-95289761D01*
X116292380Y-95480238D01*
X116340000Y-95575476D01*
X116387619Y-95623095D01*
X116482857Y-95670714D01*
X116720952Y-95670714D01*
X116816190Y-95623095D01*
X116863809Y-95575476D01*
X116911428Y-95480238D01*
X116911428Y-95289761D01*
X116863809Y-95194523D01*
X116816190Y-95146904D01*
X116720952Y-95099285D01*
X114752380Y-96051666D02*
X114276190Y-96385000D01*
X114752380Y-96623095D02*
X113752380Y-96623095D01*
X113752380Y-96242142D01*
X113800000Y-96146904D01*
X113847619Y-96099285D01*
X113942857Y-96051666D01*
X114085714Y-96051666D01*
X114180952Y-96099285D01*
X114228571Y-96146904D01*
X114276190Y-96242142D01*
X114276190Y-96623095D01*
X114180952Y-95480238D02*
X114133333Y-95575476D01*
X114085714Y-95623095D01*
X113990476Y-95670714D01*
X113942857Y-95670714D01*
X113847619Y-95623095D01*
X113800000Y-95575476D01*
X113752380Y-95480238D01*
X113752380Y-95289761D01*
X113800000Y-95194523D01*
X113847619Y-95146904D01*
X113942857Y-95099285D01*
X113990476Y-95099285D01*
X114085714Y-95146904D01*
X114133333Y-95194523D01*
X114180952Y-95289761D01*
X114180952Y-95480238D01*
X114228571Y-95575476D01*
X114276190Y-95623095D01*
X114371428Y-95670714D01*
X114561904Y-95670714D01*
X114657142Y-95623095D01*
X114704761Y-95575476D01*
X114752380Y-95480238D01*
X114752380Y-95289761D01*
X114704761Y-95194523D01*
X114657142Y-95146904D01*
X114561904Y-95099285D01*
X114371428Y-95099285D01*
X114276190Y-95146904D01*
X114228571Y-95194523D01*
X114180952Y-95289761D01*
X112212380Y-96051666D02*
X111736190Y-96385000D01*
X112212380Y-96623095D02*
X111212380Y-96623095D01*
X111212380Y-96242142D01*
X111260000Y-96146904D01*
X111307619Y-96099285D01*
X111402857Y-96051666D01*
X111545714Y-96051666D01*
X111640952Y-96099285D01*
X111688571Y-96146904D01*
X111736190Y-96242142D01*
X111736190Y-96623095D01*
X111212380Y-95718333D02*
X111212380Y-95051666D01*
X112212380Y-95480238D01*
X173043333Y-53792380D02*
X172710000Y-53316190D01*
X172471904Y-53792380D02*
X172471904Y-52792380D01*
X172852857Y-52792380D01*
X172948095Y-52840000D01*
X172995714Y-52887619D01*
X173043333Y-52982857D01*
X173043333Y-53125714D01*
X172995714Y-53220952D01*
X172948095Y-53268571D01*
X172852857Y-53316190D01*
X172471904Y-53316190D01*
X173900476Y-52792380D02*
X173710000Y-52792380D01*
X173614761Y-52840000D01*
X173567142Y-52887619D01*
X173471904Y-53030476D01*
X173424285Y-53220952D01*
X173424285Y-53601904D01*
X173471904Y-53697142D01*
X173519523Y-53744761D01*
X173614761Y-53792380D01*
X173805238Y-53792380D01*
X173900476Y-53744761D01*
X173948095Y-53697142D01*
X173995714Y-53601904D01*
X173995714Y-53363809D01*
X173948095Y-53268571D01*
X173900476Y-53220952D01*
X173805238Y-53173333D01*
X173614761Y-53173333D01*
X173519523Y-53220952D01*
X173471904Y-53268571D01*
X173424285Y-53363809D01*
X115403333Y-53792380D02*
X115070000Y-53316190D01*
X114831904Y-53792380D02*
X114831904Y-52792380D01*
X115212857Y-52792380D01*
X115308095Y-52840000D01*
X115355714Y-52887619D01*
X115403333Y-52982857D01*
X115403333Y-53125714D01*
X115355714Y-53220952D01*
X115308095Y-53268571D01*
X115212857Y-53316190D01*
X114831904Y-53316190D01*
X116308095Y-52792380D02*
X115831904Y-52792380D01*
X115784285Y-53268571D01*
X115831904Y-53220952D01*
X115927142Y-53173333D01*
X116165238Y-53173333D01*
X116260476Y-53220952D01*
X116308095Y-53268571D01*
X116355714Y-53363809D01*
X116355714Y-53601904D01*
X116308095Y-53697142D01*
X116260476Y-53744761D01*
X116165238Y-53792380D01*
X115927142Y-53792380D01*
X115831904Y-53744761D01*
X115784285Y-53697142D01*
X118188333Y-123007380D02*
X117855000Y-122531190D01*
X117616904Y-123007380D02*
X117616904Y-122007380D01*
X117997857Y-122007380D01*
X118093095Y-122055000D01*
X118140714Y-122102619D01*
X118188333Y-122197857D01*
X118188333Y-122340714D01*
X118140714Y-122435952D01*
X118093095Y-122483571D01*
X117997857Y-122531190D01*
X117616904Y-122531190D01*
X119045476Y-122340714D02*
X119045476Y-123007380D01*
X118807380Y-121959761D02*
X118569285Y-122674047D01*
X119188333Y-122674047D01*
X118188333Y-116657380D02*
X117855000Y-116181190D01*
X117616904Y-116657380D02*
X117616904Y-115657380D01*
X117997857Y-115657380D01*
X118093095Y-115705000D01*
X118140714Y-115752619D01*
X118188333Y-115847857D01*
X118188333Y-115990714D01*
X118140714Y-116085952D01*
X118093095Y-116133571D01*
X117997857Y-116181190D01*
X117616904Y-116181190D01*
X118521666Y-115657380D02*
X119140714Y-115657380D01*
X118807380Y-116038333D01*
X118950238Y-116038333D01*
X119045476Y-116085952D01*
X119093095Y-116133571D01*
X119140714Y-116228809D01*
X119140714Y-116466904D01*
X119093095Y-116562142D01*
X119045476Y-116609761D01*
X118950238Y-116657380D01*
X118664523Y-116657380D01*
X118569285Y-116609761D01*
X118521666Y-116562142D01*
X112467380Y-124871666D02*
X111991190Y-125205000D01*
X112467380Y-125443095D02*
X111467380Y-125443095D01*
X111467380Y-125062142D01*
X111515000Y-124966904D01*
X111562619Y-124919285D01*
X111657857Y-124871666D01*
X111800714Y-124871666D01*
X111895952Y-124919285D01*
X111943571Y-124966904D01*
X111991190Y-125062142D01*
X111991190Y-125443095D01*
X111562619Y-124490714D02*
X111515000Y-124443095D01*
X111467380Y-124347857D01*
X111467380Y-124109761D01*
X111515000Y-124014523D01*
X111562619Y-123966904D01*
X111657857Y-123919285D01*
X111753095Y-123919285D01*
X111895952Y-123966904D01*
X112467380Y-124538333D01*
X112467380Y-123919285D01*
X107767380Y-121451666D02*
X107291190Y-121785000D01*
X107767380Y-122023095D02*
X106767380Y-122023095D01*
X106767380Y-121642142D01*
X106815000Y-121546904D01*
X106862619Y-121499285D01*
X106957857Y-121451666D01*
X107100714Y-121451666D01*
X107195952Y-121499285D01*
X107243571Y-121546904D01*
X107291190Y-121642142D01*
X107291190Y-122023095D01*
X107767380Y-120499285D02*
X107767380Y-121070714D01*
X107767380Y-120785000D02*
X106767380Y-120785000D01*
X106910238Y-120880238D01*
X107005476Y-120975476D01*
X107053095Y-121070714D01*
X157142380Y-126563333D02*
X157856666Y-126563333D01*
X157999523Y-126610952D01*
X158094761Y-126706190D01*
X158142380Y-126849047D01*
X158142380Y-126944285D01*
X158142380Y-126087142D02*
X157142380Y-126087142D01*
X157142380Y-125706190D01*
X157190000Y-125610952D01*
X157237619Y-125563333D01*
X157332857Y-125515714D01*
X157475714Y-125515714D01*
X157570952Y-125563333D01*
X157618571Y-125610952D01*
X157666190Y-125706190D01*
X157666190Y-126087142D01*
X157237619Y-125134761D02*
X157190000Y-125087142D01*
X157142380Y-124991904D01*
X157142380Y-124753809D01*
X157190000Y-124658571D01*
X157237619Y-124610952D01*
X157332857Y-124563333D01*
X157428095Y-124563333D01*
X157570952Y-124610952D01*
X158142380Y-125182380D01*
X158142380Y-124563333D01*
X157142380Y-122753333D02*
X157856666Y-122753333D01*
X157999523Y-122800952D01*
X158094761Y-122896190D01*
X158142380Y-123039047D01*
X158142380Y-123134285D01*
X158142380Y-122277142D02*
X157142380Y-122277142D01*
X157142380Y-121896190D01*
X157190000Y-121800952D01*
X157237619Y-121753333D01*
X157332857Y-121705714D01*
X157475714Y-121705714D01*
X157570952Y-121753333D01*
X157618571Y-121800952D01*
X157666190Y-121896190D01*
X157666190Y-122277142D01*
X158142380Y-120753333D02*
X158142380Y-121324761D01*
X158142380Y-121039047D02*
X157142380Y-121039047D01*
X157285238Y-121134285D01*
X157380476Y-121229523D01*
X157428095Y-121324761D01*
X117300476Y-78827380D02*
X117300476Y-79541666D01*
X117252857Y-79684523D01*
X117157619Y-79779761D01*
X117014761Y-79827380D01*
X116919523Y-79827380D01*
X118300476Y-79827380D02*
X117729047Y-79827380D01*
X118014761Y-79827380D02*
X118014761Y-78827380D01*
X117919523Y-78970238D01*
X117824285Y-79065476D01*
X117729047Y-79113095D01*
X118919523Y-78827380D02*
X119014761Y-78827380D01*
X119110000Y-78875000D01*
X119157619Y-78922619D01*
X119205238Y-79017857D01*
X119252857Y-79208333D01*
X119252857Y-79446428D01*
X119205238Y-79636904D01*
X119157619Y-79732142D01*
X119110000Y-79779761D01*
X119014761Y-79827380D01*
X118919523Y-79827380D01*
X118824285Y-79779761D01*
X118776666Y-79732142D01*
X118729047Y-79636904D01*
X118681428Y-79446428D01*
X118681428Y-79208333D01*
X118729047Y-79017857D01*
X118776666Y-78922619D01*
X118824285Y-78875000D01*
X118919523Y-78827380D01*
X113331666Y-78827380D02*
X113331666Y-79541666D01*
X113284047Y-79684523D01*
X113188809Y-79779761D01*
X113045952Y-79827380D01*
X112950714Y-79827380D01*
X113855476Y-79827380D02*
X114045952Y-79827380D01*
X114141190Y-79779761D01*
X114188809Y-79732142D01*
X114284047Y-79589285D01*
X114331666Y-79398809D01*
X114331666Y-79017857D01*
X114284047Y-78922619D01*
X114236428Y-78875000D01*
X114141190Y-78827380D01*
X113950714Y-78827380D01*
X113855476Y-78875000D01*
X113807857Y-78922619D01*
X113760238Y-79017857D01*
X113760238Y-79255952D01*
X113807857Y-79351190D01*
X113855476Y-79398809D01*
X113950714Y-79446428D01*
X114141190Y-79446428D01*
X114236428Y-79398809D01*
X114284047Y-79351190D01*
X114331666Y-79255952D01*
X108886666Y-76287380D02*
X108886666Y-77001666D01*
X108839047Y-77144523D01*
X108743809Y-77239761D01*
X108600952Y-77287380D01*
X108505714Y-77287380D01*
X109505714Y-76715952D02*
X109410476Y-76668333D01*
X109362857Y-76620714D01*
X109315238Y-76525476D01*
X109315238Y-76477857D01*
X109362857Y-76382619D01*
X109410476Y-76335000D01*
X109505714Y-76287380D01*
X109696190Y-76287380D01*
X109791428Y-76335000D01*
X109839047Y-76382619D01*
X109886666Y-76477857D01*
X109886666Y-76525476D01*
X109839047Y-76620714D01*
X109791428Y-76668333D01*
X109696190Y-76715952D01*
X109505714Y-76715952D01*
X109410476Y-76763571D01*
X109362857Y-76811190D01*
X109315238Y-76906428D01*
X109315238Y-77096904D01*
X109362857Y-77192142D01*
X109410476Y-77239761D01*
X109505714Y-77287380D01*
X109696190Y-77287380D01*
X109791428Y-77239761D01*
X109839047Y-77192142D01*
X109886666Y-77096904D01*
X109886666Y-76906428D01*
X109839047Y-76811190D01*
X109791428Y-76763571D01*
X109696190Y-76715952D01*
X181276666Y-64222380D02*
X181276666Y-64936666D01*
X181229047Y-65079523D01*
X181133809Y-65174761D01*
X180990952Y-65222380D01*
X180895714Y-65222380D01*
X181657619Y-64222380D02*
X182324285Y-64222380D01*
X181895714Y-65222380D01*
X160512380Y-131143333D02*
X161226666Y-131143333D01*
X161369523Y-131190952D01*
X161464761Y-131286190D01*
X161512380Y-131429047D01*
X161512380Y-131524285D01*
X160512380Y-130238571D02*
X160512380Y-130429047D01*
X160560000Y-130524285D01*
X160607619Y-130571904D01*
X160750476Y-130667142D01*
X160940952Y-130714761D01*
X161321904Y-130714761D01*
X161417142Y-130667142D01*
X161464761Y-130619523D01*
X161512380Y-130524285D01*
X161512380Y-130333809D01*
X161464761Y-130238571D01*
X161417142Y-130190952D01*
X161321904Y-130143333D01*
X161083809Y-130143333D01*
X160988571Y-130190952D01*
X160940952Y-130238571D01*
X160893333Y-130333809D01*
X160893333Y-130524285D01*
X160940952Y-130619523D01*
X160988571Y-130667142D01*
X161083809Y-130714761D01*
X139382380Y-131143333D02*
X140096666Y-131143333D01*
X140239523Y-131190952D01*
X140334761Y-131286190D01*
X140382380Y-131429047D01*
X140382380Y-131524285D01*
X139382380Y-130190952D02*
X139382380Y-130667142D01*
X139858571Y-130714761D01*
X139810952Y-130667142D01*
X139763333Y-130571904D01*
X139763333Y-130333809D01*
X139810952Y-130238571D01*
X139858571Y-130190952D01*
X139953809Y-130143333D01*
X140191904Y-130143333D01*
X140287142Y-130190952D01*
X140334761Y-130238571D01*
X140382380Y-130333809D01*
X140382380Y-130571904D01*
X140334761Y-130667142D01*
X140287142Y-130714761D01*
X122856666Y-107612380D02*
X122856666Y-108326666D01*
X122809047Y-108469523D01*
X122713809Y-108564761D01*
X122570952Y-108612380D01*
X122475714Y-108612380D01*
X123761428Y-107945714D02*
X123761428Y-108612380D01*
X123523333Y-107564761D02*
X123285238Y-108279047D01*
X123904285Y-108279047D01*
X141582142Y-115981666D02*
X141629761Y-116029285D01*
X141677380Y-116172142D01*
X141677380Y-116267380D01*
X141629761Y-116410238D01*
X141534523Y-116505476D01*
X141439285Y-116553095D01*
X141248809Y-116600714D01*
X141105952Y-116600714D01*
X140915476Y-116553095D01*
X140820238Y-116505476D01*
X140725000Y-116410238D01*
X140677380Y-116267380D01*
X140677380Y-116172142D01*
X140725000Y-116029285D01*
X140772619Y-115981666D01*
X141105952Y-115410238D02*
X141058333Y-115505476D01*
X141010714Y-115553095D01*
X140915476Y-115600714D01*
X140867857Y-115600714D01*
X140772619Y-115553095D01*
X140725000Y-115505476D01*
X140677380Y-115410238D01*
X140677380Y-115219761D01*
X140725000Y-115124523D01*
X140772619Y-115076904D01*
X140867857Y-115029285D01*
X140915476Y-115029285D01*
X141010714Y-115076904D01*
X141058333Y-115124523D01*
X141105952Y-115219761D01*
X141105952Y-115410238D01*
X141153571Y-115505476D01*
X141201190Y-115553095D01*
X141296428Y-115600714D01*
X141486904Y-115600714D01*
X141582142Y-115553095D01*
X141629761Y-115505476D01*
X141677380Y-115410238D01*
X141677380Y-115219761D01*
X141629761Y-115124523D01*
X141582142Y-115076904D01*
X141486904Y-115029285D01*
X141296428Y-115029285D01*
X141201190Y-115076904D01*
X141153571Y-115124523D01*
X141105952Y-115219761D01*
X148813333Y-108562142D02*
X148765714Y-108609761D01*
X148622857Y-108657380D01*
X148527619Y-108657380D01*
X148384761Y-108609761D01*
X148289523Y-108514523D01*
X148241904Y-108419285D01*
X148194285Y-108228809D01*
X148194285Y-108085952D01*
X148241904Y-107895476D01*
X148289523Y-107800238D01*
X148384761Y-107705000D01*
X148527619Y-107657380D01*
X148622857Y-107657380D01*
X148765714Y-107705000D01*
X148813333Y-107752619D01*
X149146666Y-107657380D02*
X149813333Y-107657380D01*
X149384761Y-108657380D01*
X119737142Y-96051666D02*
X119784761Y-96099285D01*
X119832380Y-96242142D01*
X119832380Y-96337380D01*
X119784761Y-96480238D01*
X119689523Y-96575476D01*
X119594285Y-96623095D01*
X119403809Y-96670714D01*
X119260952Y-96670714D01*
X119070476Y-96623095D01*
X118975238Y-96575476D01*
X118880000Y-96480238D01*
X118832380Y-96337380D01*
X118832380Y-96242142D01*
X118880000Y-96099285D01*
X118927619Y-96051666D01*
X118927619Y-95670714D02*
X118880000Y-95623095D01*
X118832380Y-95527857D01*
X118832380Y-95289761D01*
X118880000Y-95194523D01*
X118927619Y-95146904D01*
X119022857Y-95099285D01*
X119118095Y-95099285D01*
X119260952Y-95146904D01*
X119832380Y-95718333D01*
X119832380Y-95099285D01*
X122277142Y-96051666D02*
X122324761Y-96099285D01*
X122372380Y-96242142D01*
X122372380Y-96337380D01*
X122324761Y-96480238D01*
X122229523Y-96575476D01*
X122134285Y-96623095D01*
X121943809Y-96670714D01*
X121800952Y-96670714D01*
X121610476Y-96623095D01*
X121515238Y-96575476D01*
X121420000Y-96480238D01*
X121372380Y-96337380D01*
X121372380Y-96242142D01*
X121420000Y-96099285D01*
X121467619Y-96051666D01*
X122372380Y-95099285D02*
X122372380Y-95670714D01*
X122372380Y-95385000D02*
X121372380Y-95385000D01*
X121515238Y-95480238D01*
X121610476Y-95575476D01*
X121658095Y-95670714D01*
M02*
